SplineFontDB: 1.0
FontName: DejaVuSans-BoldOblique
FullName: DejaVu Sans Bold Oblique
FamilyName: DejaVu Sans
Weight: Bold
Copyright: Copyright (c) 2003 by Bitstream, Inc. All Rights Reserved.\nDejaVu changes are in public domain\n
Version: 2.3
ItalicAngle: -11
UnderlinePosition: -227
UnderlineWidth: 258
Ascent: 1556
Descent: 492
Order2: 1
NeedsXUIDChange: 1
FSType: 0
PfmFamily: 17
TTFWeight: 700
TTFWidth: 5
LineGap: 0
VLineGap: 0
Panose: 2 11 8 3 3 3 4 11 2 4
OS2TypoAscent: 1556
OS2TypoAOffset: 0
OS2TypoDescent: -492
OS2TypoDOffset: 0
OS2TypoLinegap: 410
OS2WinAscent: 1901
OS2WinAOffset: 0
OS2WinDescent: 483
OS2WinDOffset: 0
HheadAscent: 1901
HheadAOffset: 0
HheadDescent: -483
HheadDOffset: 0
OS2Vendor: 'PfEd'
ScriptLang: 4
 3 cyrl 1 dflt grek 1 dflt latn 1 dflt 
 1 DFLT 1 dflt 
 1 latn 1 dflt 
 1 armn 1 dflt 
ChainSub: class 0 0 'ccmp' 4 4 4 2
  Class: 3 i j
  Class: 181 gravecomb acutecomb uni0302 tildecomb uni0304 uni0305 uni0306 uni0307 uni0308 uni030A uni030B uni030C uni030D uni030E uni030F uni0310 uni0311 uni0312 uni0313 uni0314 uni033D uni033E

StartChar: .notdef
Encoding: 0 -1 0
AltUni: 0
Width: 1229
Flags: W
Fore
102 -362 m 1,0,-1
 102 1444 l 1,1,-1
 1126 1444 l 1,2,-1
 1126 -362 l 1,3,-1
 102 -362 l 1,0,-1
217 -248 m 1,4,-1
 1012 -248 l 1,5,-1
 1012 1329 l 1,6,-1
 217 1329 l 1,7,-1
 217 -248 l 1,4,-1
EndSplineSet
EndChar
StartChar: exclam
Encoding: 33 33 33
Width: 934
Flags: W
Fore
432 1493 m 1,0,-1
 793 1493 l 1,1,-1
 680 920 l 1,2,-1
 549 502 l 1,3,-1
 291 502 l 1,4,-1
 319 920 l 1,5,-1
 432 1493 l 1,0,-1
211 356 m 1,6,-1
 571 356 l 1,7,-1
 502 0 l 1,8,-1
 141 0 l 1,9,-1
 211 356 l 1,6,-1
EndSplineSet
EndChar
StartChar: quotedbl
Encoding: 34 34 34
Width: 1067
Flags: W
Fore
872 1493 m 1,0,-1
 872 938 l 1,1,-1
 635 938 l 1,2,-1
 635 1493 l 1,3,-1
 872 1493 l 1,0,-1
432 1493 m 1,4,-1
 432 938 l 1,5,-1
 195 938 l 1,6,-1
 195 1493 l 1,7,-1
 432 1493 l 1,4,-1
EndSplineSet
EndChar
StartChar: numbersign
Encoding: 35 35 35
Width: 1425
Flags: W
Fore
1024 872 m 1,0,-1
 760 872 l 1,1,-1
 690 598 l 1,2,-1
 954 598 l 1,3,-1
 1024 872 l 1,0,-1
911 1470 m 1,4,-1
 815 1085 l 1,5,-1
 1079 1085 l 1,6,-1
 1176 1470 l 1,7,-1
 1397 1470 l 1,8,-1
 1300 1085 l 1,9,-1
 1597 1085 l 1,10,-1
 1544 872 l 1,11,-1
 1247 872 l 1,12,-1
 1178 598 l 1,13,-1
 1475 598 l 1,14,-1
 1421 383 l 1,15,-1
 1126 383 l 1,16,-1
 1030 0 l 1,17,-1
 809 0 l 1,18,-1
 905 383 l 1,19,-1
 641 383 l 1,20,-1
 545 0 l 1,21,-1
 322 0 l 1,22,-1
 418 383 l 1,23,-1
 133 383 l 1,24,-1
 186 598 l 1,25,-1
 467 598 l 1,26,-1
 537 872 l 1,27,-1
 254 872 l 1,28,-1
 307 1085 l 1,29,-1
 592 1085 l 1,30,-1
 688 1470 l 1,31,-1
 911 1470 l 1,4,-1
EndSplineSet
EndChar
StartChar: dollar
Encoding: 36 36 36
Width: 1425
Flags: W
Fore
596 -301 m 1,0,-1
 434 -301 l 1,1,-1
 493 0 l 1,2,3
 366 5 366 5 257 26.5 c 128,-1,4
 148 48 148 48 55 86 c 1,5,-1
 104 348 l 1,6,7
 200 293 200 293 308.5 262.5 c 128,-1,8
 417 232 417 232 537 228 c 1,9,-1
 598 539 l 1,10,11
 388 570 388 570 292.5 650.5 c 128,-1,12
 197 731 197 731 197 874 c 0,13,14
 197 1073 197 1073 346.5 1195.5 c 128,-1,15
 496 1318 496 1318 751 1327 c 1,16,-1
 795 1556 l 1,17,-1
 956 1556 l 1,18,-1
 913 1329 l 1,19,20
 1014 1323 1014 1323 1108 1306 c 128,-1,21
 1202 1289 1202 1289 1290 1262 c 1,22,-1
 1241 1008 l 1,23,24
 1178 1045 1178 1045 1082.5 1068.5 c 128,-1,25
 987 1092 987 1092 868 1099 c 1,26,-1
 811 811 l 1,27,28
 1024 775 1024 775 1126.5 694 c 128,-1,29
 1229 613 1229 613 1229 479 c 0,30,31
 1229 259 1229 259 1078.5 134 c 128,-1,32
 928 9 928 9 654 0 c 1,33,-1
 596 -301 l 1,0,-1
655 836 m 1,34,-1
 706 1098 l 1,35,36
 622 1090 622 1090 572 1049.5 c 128,-1,37
 522 1009 522 1009 522 948 c 0,38,39
 522 900 522 900 554.5 872.5 c 128,-1,40
 587 845 587 845 655 836 c 1,34,-1
754 512 m 1,41,-1
 699 227 l 1,42,43
 798 232 798 232 851.5 275 c 128,-1,44
 905 318 905 318 905 393 c 0,45,46
 905 444 905 444 868.5 472.5 c 128,-1,47
 832 501 832 501 754 512 c 1,41,-1
EndSplineSet
EndChar
StartChar: percent
Encoding: 37 37 37
Width: 2052
Flags: W
Fore
1565 616 m 0,0,1
 1479 616 1479 616 1423.5 532 c 128,-1,2
 1368 448 1368 448 1368 315 c 0,3,4
 1368 228 1368 228 1398.5 184.5 c 128,-1,5
 1429 141 1429 141 1491 141 c 0,6,7
 1578 141 1578 141 1633 225 c 128,-1,8
 1688 309 1688 309 1688 444 c 0,9,10
 1688 529 1688 529 1656.5 572.5 c 128,-1,11
 1625 616 1625 616 1565 616 c 0,0,1
1593 784 m 0,12,13
 1750 784 1750 784 1844.5 698.5 c 128,-1,14
 1939 613 1939 613 1939 473 c 0,15,16
 1939 249 1939 249 1806.5 110 c 128,-1,17
 1674 -29 1674 -29 1460 -29 c 0,18,19
 1303 -29 1303 -29 1208.5 57.5 c 128,-1,20
 1114 144 1114 144 1114 285 c 0,21,22
 1114 507 1114 507 1246.5 645.5 c 128,-1,23
 1379 784 1379 784 1593 784 c 0,12,13
532 -29 m 1,24,-1
 287 -29 l 1,25,-1
 1522 1520 l 1,26,-1
 1767 1520 l 1,27,-1
 532 -29 l 1,24,-1
594 1520 m 0,28,29
 750 1520 750 1520 845 1434 c 128,-1,30
 940 1348 940 1348 940 1208 c 0,31,32
 940 985 940 985 806.5 846 c 128,-1,33
 673 707 673 707 459 707 c 0,34,35
 302 707 302 707 207.5 792 c 128,-1,36
 113 877 113 877 113 1018 c 0,37,38
 113 1240 113 1240 246.5 1380 c 128,-1,39
 380 1520 380 1520 594 1520 c 0,28,29
563 1352 m 0,40,41
 477 1352 477 1352 422 1267.5 c 128,-1,42
 367 1183 367 1183 367 1051 c 0,43,44
 367 963 367 963 397.5 918.5 c 128,-1,45
 428 874 428 874 489 874 c 0,46,47
 576 874 576 874 631 959 c 128,-1,48
 686 1044 686 1044 686 1180 c 0,49,50
 686 1264 686 1264 654.5 1308 c 128,-1,51
 623 1352 623 1352 563 1352 c 0,40,41
EndSplineSet
EndChar
StartChar: ampersand
Encoding: 38 38 38
Width: 1786
Flags: W
Fore
877 915 m 2,0,-1
 1174 541 l 1,1,2
 1236 604 1236 604 1281 692 c 128,-1,3
 1326 780 1326 780 1354 895 c 1,4,-1
 1665 895 l 1,5,6
 1622 720 1622 720 1542.5 577 c 128,-1,7
 1463 434 1463 434 1343 322 c 1,8,-1
 1599 0 l 1,9,-1
 1161 0 l 1,10,-1
 1077 106 l 1,11,12
 959 38 959 38 841 4.5 c 128,-1,13
 723 -29 723 -29 600 -29 c 0,14,15
 355 -29 355 -29 206 94 c 128,-1,16
 57 217 57 217 57 416 c 0,17,18
 57 567 57 567 152.5 693.5 c 128,-1,19
 248 820 248 820 449 934 c 1,20,21
 423 978 423 978 410 1023 c 128,-1,22
 397 1068 397 1068 397 1116 c 0,23,24
 397 1292 397 1292 548 1406 c 128,-1,25
 699 1520 699 1520 938 1520 c 0,26,27
 1029 1520 1029 1520 1124.5 1505.5 c 128,-1,28
 1220 1491 1220 1491 1321 1462 c 1,29,-1
 1268 1184 l 1,30,31
 1181 1232 1181 1232 1102 1255 c 128,-1,32
 1023 1278 1023 1278 944 1278 c 0,33,34
 858 1278 858 1278 808 1242 c 128,-1,35
 758 1206 758 1206 758 1145 c 0,36,37
 758 1107 758 1107 788 1048.5 c 128,-1,38
 818 990 818 990 877 915 c 2,0,-1
575 743 m 1,39,40
 495 692 495 692 453.5 625.5 c 128,-1,41
 412 559 412 559 412 483 c 0,42,43
 412 376 412 376 488 302.5 c 128,-1,44
 564 229 564 229 678 229 c 0,45,46
 738 229 738 229 797 250 c 128,-1,47
 856 271 856 271 915 313 c 1,48,-1
 575 743 l 1,39,40
EndSplineSet
EndChar
StartChar: quotesingle
Encoding: 39 39 39
Width: 627
Flags: W
Fore
432 1493 m 1,0,-1
 432 938 l 1,1,-1
 195 938 l 1,2,-1
 195 1493 l 1,3,-1
 432 1493 l 1,0,-1
EndSplineSet
EndChar
StartChar: parenleft
Encoding: 40 40 40
Width: 936
Flags: W
Fore
604 -270 m 1,0,-1
 313 -270 l 1,1,2
 235 -104 235 -104 196.5 55.5 c 128,-1,3
 158 215 158 215 158 373 c 0,4,5
 158 668 158 668 285 962.5 c 128,-1,6
 412 1257 412 1257 668 1554 c 1,7,-1
 958 1554 l 1,8,9
 725 1244 725 1244 610.5 940.5 c 128,-1,10
 496 637 496 637 496 332 c 0,11,12
 496 182 496 182 523 32.5 c 128,-1,13
 550 -117 550 -117 604 -270 c 1,0,-1
EndSplineSet
EndChar
StartChar: parenright
Encoding: 41 41 41
Width: 936
Flags: W
Fore
299 1554 m 1,0,-1
 592 1554 l 1,1,2
 669 1390 669 1390 707 1230.5 c 128,-1,3
 745 1071 745 1071 745 911 c 0,4,5
 745 613 745 613 618.5 318.5 c 128,-1,6
 492 24 492 24 238 -270 c 1,7,-1
 -55 -270 l 1,8,9
 178 40 178 40 293 344 c 128,-1,10
 408 648 408 648 408 954 c 0,11,12
 408 1104 408 1104 381 1252.5 c 128,-1,13
 354 1401 354 1401 299 1554 c 1,0,-1
EndSplineSet
EndChar
StartChar: asterisk
Encoding: 42 42 42
Width: 1071
Flags: W
Fore
1030 1217 m 1,0,-1
 700 1044 l 1,1,-1
 1030 870 l 1,2,-1
 954 729 l 1,3,-1
 621 913 l 1,4,-1
 621 569 l 1,5,-1
 451 569 l 1,6,-1
 451 913 l 1,7,-1
 117 729 l 1,8,-1
 41 870 l 1,9,-1
 375 1044 l 1,10,-1
 41 1217 l 1,11,-1
 117 1358 l 1,12,-1
 451 1176 l 1,13,-1
 451 1520 l 1,14,-1
 621 1520 l 1,15,-1
 621 1176 l 1,16,-1
 954 1358 l 1,17,-1
 1030 1217 l 1,0,-1
EndSplineSet
EndChar
StartChar: plus
Encoding: 43 43 43
Width: 1716
Flags: W
Fore
977 1284 m 1,0,-1
 977 760 l 1,1,-1
 1499 760 l 1,2,-1
 1499 524 l 1,3,-1
 977 524 l 1,4,-1
 977 0 l 1,5,-1
 739 0 l 1,6,-1
 739 524 l 1,7,-1
 217 524 l 1,8,-1
 217 760 l 1,9,-1
 739 760 l 1,10,-1
 739 1284 l 1,11,-1
 977 1284 l 1,0,-1
EndSplineSet
EndChar
StartChar: comma
Encoding: 44 44 44
Width: 778
Flags: W
Fore
164 387 m 1,0,-1
 524 387 l 1,1,-1
 465 82 l 1,2,-1
 143 -291 l 1,3,-1
 -70 -291 l 1,4,-1
 104 82 l 1,5,-1
 164 387 l 1,0,-1
EndSplineSet
EndChar
StartChar: hyphen
Encoding: 45 45 45
Width: 850
Flags: W
Fore
109 735 m 1,0,-1
 737 735 l 1,1,-1
 680 444 l 1,2,-1
 51 444 l 1,3,-1
 109 735 l 1,0,-1
EndSplineSet
KernsSLIFO: 356 -301 0 0 221 -339 0 0 376 -339 0 0 89 -339 0 0 88 -206 0 0 87 -92 0 0 86 -149 0 0 84 -301 0 0
EndChar
StartChar: period
Encoding: 46 46 46
Width: 778
Flags: W
Fore
170 387 m 1,0,-1
 530 387 l 1,1,-1
 455 0 l 1,2,-1
 94 0 l 1,3,-1
 170 387 l 1,0,-1
EndSplineSet
EndChar
StartChar: slash
Encoding: 47 47 47
Width: 748
Flags: W
Fore
657 1493 m 1,0,-1
 889 1493 l 1,1,-1
 35 -190 l 1,2,-1
 -197 -190 l 1,3,-1
 657 1493 l 1,0,-1
EndSplineSet
EndChar
StartChar: zero
Encoding: 48 48 48
Width: 1425
Flags: W
Fore
612 233 m 0,0,1
 689 233 689 233 748.5 279 c 128,-1,2
 808 325 808 325 848 414 c 0,3,4
 876 477 876 477 899 557.5 c 128,-1,5
 922 638 922 638 942 748 c 0,6,7
 959 837 959 837 968 912 c 128,-1,8
 977 987 977 987 977 1040 c 0,9,10
 977 1152 977 1152 937 1204.5 c 128,-1,11
 897 1257 897 1257 813 1257 c 0,12,13
 735 1257 735 1257 676 1212.5 c 128,-1,14
 617 1168 617 1168 578 1077 c 1,15,16
 548 1012 548 1012 523.5 929 c 128,-1,17
 499 846 499 846 481 748 c 0,18,19
 464 658 464 658 455 581 c 128,-1,20
 446 504 446 504 446 451 c 0,21,22
 446 340 446 340 487 286.5 c 128,-1,23
 528 233 528 233 612 233 c 0,0,1
1352 983 m 0,24,25
 1352 784 1352 784 1297 596 c 128,-1,26
 1242 408 1242 408 1143 266 c 0,27,28
 1042 120 1042 120 899 45.5 c 128,-1,29
 756 -29 756 -29 580 -29 c 0,30,31
 335 -29 335 -29 204.5 110 c 128,-1,32
 74 249 74 249 74 510 c 0,33,34
 74 706 74 706 128.5 894.5 c 128,-1,35
 183 1083 183 1083 281 1223 c 0,36,37
 384 1370 384 1370 526 1445 c 128,-1,38
 668 1520 668 1520 846 1520 c 0,39,40
 1089 1520 1089 1520 1220.5 1380.5 c 128,-1,41
 1352 1241 1352 1241 1352 983 c 0,24,25
EndSplineSet
EndChar
StartChar: one
Encoding: 49 49 49
Width: 1425
Flags: W
Fore
141 266 m 1,0,-1
 481 266 l 1,1,-1
 668 1231 l 1,2,-1
 305 1159 l 1,3,-1
 356 1421 l 1,4,-1
 717 1493 l 1,5,-1
 1083 1493 l 1,6,-1
 846 266 l 1,7,-1
 1184 266 l 1,8,-1
 1133 0 l 1,9,-1
 88 0 l 1,10,-1
 141 266 l 1,0,-1
EndSplineSet
EndChar
StartChar: two
Encoding: 50 50 50
Width: 1425
Flags: W
Fore
506 283 m 1,0,-1
 1155 283 l 1,1,-1
 1100 0 l 1,2,-1
 16 0 l 1,3,-1
 72 285 l 1,4,-1
 707 764 l 1,5,6
 811 844 811 844 865.5 926 c 128,-1,7
 920 1008 920 1008 920 1085 c 0,8,9
 920 1167 920 1167 864 1212 c 128,-1,10
 808 1257 808 1257 707 1257 c 0,11,12
 612 1257 612 1257 495 1219.5 c 128,-1,13
 378 1182 378 1182 231 1104 c 1,14,-1
 295 1421 l 1,15,16
 431 1471 431 1471 562 1495.5 c 128,-1,17
 693 1520 693 1520 821 1520 c 0,18,19
 1049 1520 1049 1520 1180 1421.5 c 128,-1,20
 1311 1323 1311 1323 1311 1153 c 0,21,22
 1311 1007 1311 1007 1231 887 c 128,-1,23
 1151 767 1151 767 879 563 c 2,24,-1
 506 283 l 1,0,-1
EndSplineSet
EndChar
StartChar: three
Encoding: 51 51 51
Width: 1425
Flags: W
Fore
967 805 m 1,0,1
 1080 779 1080 779 1143 700 c 128,-1,2
 1206 621 1206 621 1206 506 c 0,3,4
 1206 258 1206 258 1009.5 114.5 c 128,-1,5
 813 -29 813 -29 469 -29 c 0,6,7
 339 -29 339 -29 221.5 -10.5 c 128,-1,8
 104 8 104 8 0 45 c 1,9,-1
 57 342 l 1,10,11
 146 290 146 290 251 261.5 c 128,-1,12
 356 233 356 233 461 233 c 0,13,14
 630 233 630 233 728.5 296.5 c 128,-1,15
 827 360 827 360 827 467 c 0,16,17
 827 556 827 556 752 600.5 c 128,-1,18
 677 645 677 645 526 645 c 2,19,-1
 373 645 l 1,20,-1
 422 893 l 1,21,-1
 584 893 l 2,22,23
 741 893 741 893 832.5 950 c 128,-1,24
 924 1007 924 1007 924 1104 c 0,25,26
 924 1180 924 1180 860.5 1220 c 128,-1,27
 797 1260 797 1260 676 1260 c 0,28,29
 591 1260 591 1260 491 1238 c 128,-1,30
 391 1216 391 1216 283 1174 c 1,31,-1
 338 1456 l 1,32,33
 456 1488 456 1488 570.5 1504 c 128,-1,34
 685 1520 685 1520 797 1520 c 0,35,36
 1050 1520 1050 1520 1177.5 1436 c 128,-1,37
 1305 1352 1305 1352 1305 1186 c 0,38,39
 1305 1037 1305 1037 1216.5 937.5 c 128,-1,40
 1128 838 1128 838 967 805 c 1,0,1
EndSplineSet
EndChar
StartChar: four
Encoding: 52 52 52
Width: 1425
Flags: W
Fore
844 1165 m 1,0,-1
 313 551 l 1,1,-1
 723 551 l 1,2,-1
 844 1165 l 1,0,-1
834 1493 m 1,3,-1
 1272 1493 l 1,4,-1
 1087 551 l 1,5,-1
 1300 551 l 1,6,-1
 1247 272 l 1,7,-1
 1034 272 l 1,8,-1
 981 0 l 1,9,-1
 616 0 l 1,10,-1
 670 272 l 1,11,-1
 -2 272 l 1,12,-1
 63 602 l 1,13,-1
 834 1493 l 1,3,-1
EndSplineSet
EndChar
StartChar: five
Encoding: 53 53 53
Width: 1425
Flags: W
Fore
362 1493 m 1,0,-1
 1319 1493 l 1,1,-1
 1264 1210 l 1,2,-1
 614 1210 l 1,3,-1
 569 979 l 1,4,5
 613 991 613 991 660.5 997.5 c 128,-1,6
 708 1004 708 1004 756 1004 c 0,7,8
 985 1004 985 1004 1114 899.5 c 128,-1,9
 1243 795 1243 795 1243 610 c 0,10,11
 1243 316 1243 316 1044 143.5 c 128,-1,12
 845 -29 845 -29 504 -29 c 0,13,14
 379 -29 379 -29 261 -4.5 c 128,-1,15
 143 20 143 20 27 70 c 1,16,-1
 86 373 l 1,17,18
 197 301 197 301 301.5 267 c 128,-1,19
 406 233 406 233 514 233 c 0,20,21
 672 233 672 233 767 315.5 c 128,-1,22
 862 398 862 398 862 532 c 0,23,24
 862 628 862 628 790 684.5 c 128,-1,25
 718 741 718 741 594 741 c 0,26,27
 510 741 510 741 412.5 719.5 c 128,-1,28
 315 698 315 698 199 653 c 1,29,-1
 362 1493 l 1,0,-1
EndSplineSet
EndChar
StartChar: six
Encoding: 54 54 54
Width: 1425
Flags: W
Fore
741 737 m 0,0,1
 627 737 627 737 554 643 c 128,-1,2
 481 549 481 549 481 401 c 0,3,4
 481 312 481 312 526 262.5 c 128,-1,5
 571 213 571 213 651 213 c 0,6,7
 764 213 764 213 837.5 305.5 c 128,-1,8
 911 398 911 398 911 539 c 0,9,10
 911 635 911 635 867 686 c 128,-1,11
 823 737 823 737 741 737 c 0,0,1
1352 1454 m 1,12,-1
 1298 1178 l 1,13,14
 1212 1222 1212 1222 1131 1244 c 128,-1,15
 1050 1266 1050 1266 969 1266 c 0,16,17
 783 1266 783 1266 668 1166 c 128,-1,18
 553 1066 553 1066 528 885 c 1,19,20
 606 936 606 936 688.5 960.5 c 128,-1,21
 771 985 771 985 864 985 c 0,22,23
 1048 985 1048 985 1165 876 c 128,-1,24
 1282 767 1282 767 1282 598 c 0,25,26
 1282 322 1282 322 1101.5 145.5 c 128,-1,27
 921 -31 921 -31 637 -31 c 0,28,29
 382 -31 382 -31 242 113.5 c 128,-1,30
 102 258 102 258 102 522 c 0,31,32
 102 726 102 726 164 911.5 c 128,-1,33
 226 1097 226 1097 338 1231 c 0,34,35
 458 1374 458 1374 621.5 1446 c 128,-1,36
 785 1518 785 1518 989 1518 c 0,37,38
 1083 1518 1083 1518 1172 1502 c 128,-1,39
 1261 1486 1261 1486 1352 1454 c 1,12,-1
EndSplineSet
EndChar
StartChar: seven
Encoding: 55 55 55
Width: 1425
Flags: W
Fore
295 1493 m 1,0,-1
 1421 1493 l 1,1,-1
 1376 1274 l 1,2,-1
 545 0 l 1,3,-1
 160 0 l 1,4,-1
 950 1210 l 1,5,-1
 242 1210 l 1,6,-1
 295 1493 l 1,0,-1
EndSplineSet
EndChar
StartChar: eight
Encoding: 56 56 56
Width: 1425
Flags: W
Fore
688 668 m 0,0,1
 571 668 571 668 492.5 588.5 c 128,-1,2
 414 509 414 509 414 393 c 0,3,4
 414 310 414 310 465 261.5 c 128,-1,5
 516 213 516 213 604 213 c 0,6,7
 723 213 723 213 801 291.5 c 128,-1,8
 879 370 879 370 879 487 c 0,9,10
 879 570 879 570 827.5 619 c 128,-1,11
 776 668 776 668 688 668 c 0,0,1
442 795 m 1,12,13
 334 840 334 840 280.5 912 c 128,-1,14
 227 984 227 984 227 1085 c 0,15,16
 227 1288 227 1288 393.5 1404 c 128,-1,17
 560 1520 560 1520 854 1520 c 0,18,19
 1090 1520 1090 1520 1220 1432 c 128,-1,20
 1350 1344 1350 1344 1350 1184 c 0,21,22
 1350 1042 1350 1042 1259.5 941 c 128,-1,23
 1169 840 1169 840 1001 795 c 1,24,25
 1123 748 1123 748 1181 669 c 128,-1,26
 1239 590 1239 590 1239 469 c 0,27,28
 1239 239 1239 239 1059.5 105 c 128,-1,29
 880 -29 880 -29 567 -29 c 0,30,31
 320 -29 320 -29 182.5 69.5 c 128,-1,32
 45 168 45 168 45 344 c 0,33,34
 45 503 45 503 150.5 622.5 c 128,-1,35
 256 742 256 742 442 795 c 1,12,13
819 1278 m 0,36,37
 717 1278 717 1278 655.5 1218.5 c 128,-1,38
 594 1159 594 1159 594 1061 c 0,39,40
 594 993 594 993 638.5 951 c 128,-1,41
 683 909 683 909 756 909 c 0,42,43
 858 909 858 909 919.5 968.5 c 128,-1,44
 981 1028 981 1028 981 1126 c 0,45,46
 981 1195 981 1195 936.5 1236.5 c 128,-1,47
 892 1278 892 1278 819 1278 c 0,36,37
EndSplineSet
EndChar
StartChar: nine
Encoding: 57 57 57
Width: 1425
Flags: W
Fore
84 33 m 1,0,-1
 137 309 l 1,1,2
 224 264 224 264 305 242.5 c 128,-1,3
 386 221 386 221 467 221 c 0,4,5
 653 221 653 221 768 321 c 128,-1,6
 883 421 883 421 907 602 c 1,7,8
 830 551 830 551 748 526.5 c 128,-1,9
 666 502 666 502 573 502 c 0,10,11
 390 502 390 502 273 611 c 128,-1,12
 156 720 156 720 156 889 c 0,13,14
 156 1165 156 1165 336.5 1341.5 c 128,-1,15
 517 1518 517 1518 801 1518 c 0,16,17
 1056 1518 1056 1518 1195.5 1373.5 c 128,-1,18
 1335 1229 1335 1229 1335 965 c 0,19,20
 1335 762 1335 762 1273 576.5 c 128,-1,21
 1211 391 1211 391 1098 256 c 0,22,23
 978 113 978 113 815.5 41 c 128,-1,24
 653 -31 653 -31 449 -31 c 0,25,26
 354 -31 354 -31 264 -15 c 128,-1,27
 174 1 174 1 84 33 c 1,0,-1
694 750 m 0,28,29
 808 750 808 750 881 844 c 128,-1,30
 954 938 954 938 954 1085 c 0,31,32
 954 1176 954 1176 910.5 1225 c 128,-1,33
 867 1274 867 1274 786 1274 c 0,34,35
 673 1274 673 1274 598.5 1181 c 128,-1,36
 524 1088 524 1088 524 948 c 0,37,38
 524 852 524 852 568 801 c 128,-1,39
 612 750 612 750 694 750 c 0,28,29
EndSplineSet
EndChar
StartChar: colon
Encoding: 58 58 58
Width: 819
Flags: W
Fore
301 1120 m 1,0,-1
 662 1120 l 1,1,-1
 588 733 l 1,2,-1
 227 733 l 1,3,-1
 301 1120 l 1,0,-1
160 387 m 1,4,-1
 520 387 l 1,5,-1
 444 0 l 1,6,-1
 84 0 l 1,7,-1
 160 387 l 1,4,-1
EndSplineSet
EndChar
StartChar: semicolon
Encoding: 59 59 59
Width: 819
Flags: W
Fore
160 387 m 1,0,-1
 520 387 l 1,1,-1
 461 82 l 1,2,-1
 141 -291 l 1,3,-1
 -72 -291 l 1,4,-1
 100 82 l 1,5,-1
 160 387 l 1,0,-1
301 1120 m 1,6,-1
 662 1120 l 1,7,-1
 588 733 l 1,8,-1
 227 733 l 1,9,-1
 301 1120 l 1,6,-1
EndSplineSet
EndChar
StartChar: less
Encoding: 60 60 60
Width: 1716
Flags: W
Fore
1499 973 m 1,0,-1
 535 641 l 1,1,-1
 1499 311 l 1,2,-1
 1499 61 l 1,3,-1
 217 524 l 1,4,-1
 217 760 l 1,5,-1
 1499 1223 l 1,6,-1
 1499 973 l 1,0,-1
EndSplineSet
EndChar
StartChar: equal
Encoding: 61 61 61
Width: 1716
Flags: W
Fore
217 987 m 1,0,-1
 1499 987 l 1,1,-1
 1499 752 l 1,2,-1
 217 752 l 1,3,-1
 217 987 l 1,0,-1
217 532 m 1,4,-1
 1499 532 l 1,5,-1
 1499 295 l 1,6,-1
 217 295 l 1,7,-1
 217 532 l 1,4,-1
EndSplineSet
EndChar
StartChar: greater
Encoding: 62 62 62
Width: 1716
Flags: W
Fore
217 973 m 1,0,-1
 217 1223 l 1,1,-1
 1499 760 l 1,2,-1
 1499 524 l 1,3,-1
 217 61 l 1,4,-1
 217 311 l 1,5,-1
 1182 641 l 1,6,-1
 217 973 l 1,0,-1
EndSplineSet
EndChar
StartChar: question
Encoding: 63 63 63
Width: 1188
Flags: W
Fore
283 356 m 1,0,-1
 643 356 l 1,1,-1
 573 0 l 1,2,-1
 213 0 l 1,3,-1
 283 356 l 1,0,-1
672 504 m 1,4,-1
 311 504 l 1,5,-1
 319 553 l 1,6,7
 335 633 335 633 378.5 695.5 c 128,-1,8
 422 758 422 758 553 860 c 2,9,-1
 627 918 l 2,10,11
 706 979 706 979 742 1032 c 128,-1,12
 778 1085 778 1085 778 1139 c 0,13,14
 778 1196 778 1196 737.5 1226.5 c 128,-1,15
 697 1257 697 1257 621 1257 c 0,16,17
 541 1257 541 1257 440.5 1223.5 c 128,-1,18
 340 1190 340 1190 225 1124 c 1,19,-1
 287 1438 l 1,20,21
 414 1480 414 1480 519 1500 c 128,-1,22
 624 1520 624 1520 721 1520 c 0,23,24
 915 1520 915 1520 1025 1434.5 c 128,-1,25
 1135 1349 1135 1349 1135 1200 c 0,26,27
 1135 1081 1135 1081 1082 987 c 128,-1,28
 1029 893 1029 893 901 791 c 2,29,-1
 825 731 l 2,30,31
 745 669 745 669 716.5 630.5 c 128,-1,32
 688 592 688 592 680 549 c 1,33,-1
 672 504 l 1,4,-1
EndSplineSet
EndChar
StartChar: at
Encoding: 64 64 64
Width: 2048
Flags: W
Fore
1034 801 m 0,0,1
 928 801 928 801 852 696 c 128,-1,2
 776 591 776 591 776 446 c 0,3,4
 776 362 776 362 816.5 318 c 128,-1,5
 857 274 857 274 934 274 c 0,6,7
 1040 274 1040 274 1114 374.5 c 128,-1,8
 1188 475 1188 475 1188 621 c 0,9,10
 1188 707 1188 707 1148 754 c 128,-1,11
 1108 801 1108 801 1034 801 c 0,0,1
1147 246 m 1,12,13
 1102 171 1102 171 1027 129.5 c 128,-1,14
 952 88 952 88 862 88 c 0,15,16
 719 88 719 88 637 182.5 c 128,-1,17
 555 277 555 277 555 444 c 0,18,19
 555 665 555 665 697 826 c 128,-1,20
 839 987 839 987 1036 987 c 0,21,22
 1119 987 1119 987 1181.5 945 c 128,-1,23
 1244 903 1244 903 1264 834 c 1,24,-1
 1288 967 l 1,25,-1
 1491 967 l 1,26,-1
 1358 274 l 1,27,28
 1509 296 1509 296 1610.5 437.5 c 128,-1,29
 1712 579 1712 579 1712 770 c 0,30,31
 1712 983 1712 983 1547.5 1118 c 128,-1,32
 1383 1253 1383 1253 1120 1253 c 0,33,34
 924 1253 924 1253 755.5 1177 c 128,-1,35
 587 1101 587 1101 469 958 c 0,36,37
 377 848 377 848 329 716 c 128,-1,38
 281 584 281 584 281 442 c 0,39,40
 281 173 281 173 446.5 2.5 c 128,-1,41
 612 -168 612 -168 872 -168 c 0,42,43
 990 -168 990 -168 1105.5 -124.5 c 128,-1,44
 1221 -81 1221 -81 1325 2 c 1,45,-1
 1434 -156 l 1,46,47
 1288 -254 1288 -254 1145 -303 c 128,-1,48
 1002 -352 1002 -352 860 -352 c 0,49,50
 725 -352 725 -352 600 -311 c 128,-1,51
 475 -270 475 -270 377 -193 c 0,52,53
 237 -85 237 -85 164.5 74 c 128,-1,54
 92 233 92 233 92 434 c 0,55,56
 92 610 92 610 152 774 c 128,-1,57
 212 938 212 938 326 1075 c 0,58,59
 472 1251 472 1251 677.5 1345.5 c 128,-1,60
 883 1440 883 1440 1120 1440 c 0,61,62
 1286 1440 1286 1440 1427 1393.5 c 128,-1,63
 1568 1347 1568 1347 1679 1255 c 1,64,65
 1784 1166 1784 1166 1841 1046.5 c 128,-1,66
 1898 927 1898 927 1898 797 c 0,67,68
 1898 482 1898 482 1693.5 285 c 128,-1,69
 1489 88 1489 88 1157 88 c 0,70,71
 1152 88 1152 88 1143 87 c 128,-1,72
 1134 86 1134 86 1130 86 c 0,73,74
 1125 86 1125 86 1121.5 86.5 c 128,-1,75
 1118 87 1118 87 1116 88 c 1,76,-1
 1147 246 l 1,12,13
EndSplineSet
EndChar
StartChar: A
Encoding: 65 65 65
Width: 1585
Flags: W
AnchorPoint: "below" 644.896 0 basechar 0
AnchorPoint: "above" 937 1520 basechar 0
Fore
1006 272 m 1,0,-1
 410 272 l 1,1,-1
 262 0 l 1,2,-1
 -133 0 l 1,3,-1
 711 1493 l 1,4,-1
 1151 1493 l 1,5,-1
 1415 0 l 1,6,-1
 1049 0 l 1,7,-1
 1006 272 l 1,0,-1
555 543 m 1,8,-1
 956 543 l 1,9,-1
 866 1118 l 1,10,-1
 555 543 l 1,8,-1
EndSplineSet
KernsSLIFO: 7923 -149 0 0 563 -149 0 0 375 -149 0 0 7813 -92 0 0 7811 -92 0 0 7809 -92 0 0 373 -92 0 0 539 -112 0 0 355 -112 0 0 267 -63 0 0 265 -63 0 0 562 -235 0 0 7922 -235 0 0 374 -235 0 0 7812 -112 0 0 7810 -112 0 0 7808 -112 0 0 372 -112 0 0 370 -92 0 0 368 -92 0 0 364 -92 0 0 362 -92 0 0 360 -92 0 0 538 -196 0 0 354 -196 0 0 558 -63 0 0 492 -63 0 0 490 -63 0 0 336 -63 0 0 334 -63 0 0 332 -63 0 0 266 -63 0 0 264 -63 0 0 366 -92 0 0 357 -112 0 0 356 -196 0 0 271 -63 0 0 273 -63 0 0 269 -63 0 0 268 -63 0 0 263 -63 0 0 262 -63 0 0 253 -149 0 0 221 -235 0 0 217 -92 0 0 219 -92 0 0 218 -92 0 0 210 -63 0 0 212 -63 0 0 211 -63 0 0 8222 104 0 0 8218 104 0 0 376 -235 0 0 255 -149 0 0 8217 -253 0 0 8221 -253 0 0 338 -63 0 0 213 -63 0 0 216 -63 0 0 231 -63 0 0 220 -92 0 0 214 -63 0 0 199 -63 0 0 121 -149 0 0 119 -92 0 0 118 -112 0 0 116 -112 0 0 100 -63 0 0 99 -63 0 0 89 -235 0 0 87 -112 0 0 86 -139 0 0 85 -92 0 0 84 -196 0 0 79 -63 0 0 67 -63 0 0 59 38 0 0 58 38 0 0 46 38 0 0 44 38 0 0
EndChar
StartChar: B
Encoding: 66 66 66
Width: 1561
Flags: W
AnchorPoint: "below" 654.896 0 basechar 0
AnchorPoint: "above" 950.354 1520 basechar 0
Fore
819 915 m 2,0,1
 922 915 922 915 980 967 c 128,-1,2
 1038 1019 1038 1019 1038 1110 c 0,3,4
 1038 1169 1038 1169 997.5 1200 c 128,-1,5
 957 1231 957 1231 881 1231 c 2,6,-1
 666 1231 l 1,7,-1
 604 915 l 1,8,-1
 819 915 l 2,0,1
705 262 m 2,9,10
 837 262 837 262 908 325 c 128,-1,11
 979 388 979 388 979 506 c 0,12,13
 979 581 979 581 930 617 c 128,-1,14
 881 653 881 653 780 653 c 2,15,-1
 553 653 l 1,16,-1
 477 262 l 1,17,-1
 705 262 l 2,9,10
1161 799 m 1,18,19
 1259 771 1259 771 1312.5 696.5 c 128,-1,20
 1366 622 1366 622 1366 512 c 0,21,22
 1366 271 1366 271 1186.5 135.5 c 128,-1,23
 1007 0 1007 0 682 0 c 2,24,-1
 43 0 l 1,25,-1
 334 1493 l 1,26,-1
 911 1493 l 2,27,28
 1177 1493 1177 1493 1304.5 1415 c 128,-1,29
 1432 1337 1432 1337 1432 1174 c 0,30,31
 1432 1037 1432 1037 1357 933.5 c 128,-1,32
 1282 830 1282 830 1161 799 c 1,18,19
EndSplineSet
KernsSLIFO: 7922 -112 0 0 562 -112 0 0 374 -112 0 0 7812 -112 0 0 7810 -112 0 0 7808 -112 0 0 372 -112 0 0 221 -112 0 0 376 -112 0 0 89 -112 0 0 87 -112 0 0 86 -83 0 0
EndChar
StartChar: C
Encoding: 67 67 67
Width: 1503
Flags: W
AnchorPoint: "below" 764.09 0 basechar 0
AnchorPoint: "above" 1076 1520 basechar 0
Fore
1241 70 m 1,0,1
 1103 21 1103 21 976 -4 c 128,-1,2
 849 -29 849 -29 735 -29 c 0,3,4
 434 -29 434 -29 254 136 c 128,-1,5
 74 301 74 301 74 573 c 0,6,7
 74 752 74 752 131 910.5 c 128,-1,8
 188 1069 188 1069 299 1200 c 0,9,10
 430 1354 430 1354 614.5 1437 c 128,-1,11
 799 1520 799 1520 1012 1520 c 0,12,13
 1128 1520 1128 1520 1245 1492.5 c 128,-1,14
 1362 1465 1362 1465 1483 1409 c 1,15,-1
 1421 1100 l 1,16,17
 1325 1173 1325 1173 1228 1207 c 128,-1,18
 1131 1241 1131 1241 1020 1241 c 0,19,20
 789 1241 789 1241 633 1063 c 128,-1,21
 477 885 477 885 477 618 c 0,22,23
 477 446 477 446 573 348 c 128,-1,24
 669 250 669 250 838 250 c 0,25,26
 939 250 939 250 1052.5 286.5 c 128,-1,27
 1166 323 1166 323 1307 401 c 1,28,-1
 1241 70 l 1,0,1
EndSplineSet
KernsSLIFO: 536 -73 0 0 348 -73 0 0 346 -73 0 0 350 -73 0 0 352 -73 0 0 83 -73 0 0
EndChar
StartChar: D
Encoding: 68 68 68
Width: 1700
Flags: W
AnchorPoint: "below" 631.896 0 basechar 0
AnchorPoint: "above" 980 1520 basechar 0
Fore
664 1202 m 1,0,-1
 485 291 l 1,1,-1
 623 291 l 2,2,3
 892 291 892 291 1049 442 c 128,-1,4
 1206 593 1206 593 1206 850 c 0,5,6
 1206 1024 1206 1024 1103.5 1113 c 128,-1,7
 1001 1202 1001 1202 799 1202 c 2,8,-1
 664 1202 l 1,0,-1
334 1493 m 1,9,-1
 739 1493 l 2,10,11
 1029 1493 1029 1493 1174 1458.5 c 128,-1,12
 1319 1424 1319 1424 1415 1343 c 0,13,14
 1512 1262 1512 1262 1561 1146.5 c 128,-1,15
 1610 1031 1610 1031 1610 885 c 0,16,17
 1610 682 1610 682 1526.5 502.5 c 128,-1,18
 1443 323 1443 323 1292 201 c 1,19,20
 1160 92 1160 92 985.5 46 c 128,-1,21
 811 0 811 0 449 0 c 2,22,-1
 43 0 l 1,23,-1
 334 1493 l 1,9,-1
EndSplineSet
KernsSLIFO: 7922 -159 0 0 562 -159 0 0 374 -159 0 0 221 -159 0 0 8222 -36 0 0 8218 -36 0 0 376 -159 0 0 89 -159 0 0 45 38 0 0
EndChar
StartChar: E
Encoding: 69 69 69
Width: 1399
Flags: W
AnchorPoint: "below" 544.896 0 basechar 0
AnchorPoint: "above" 896 1520 basechar 0
Fore
334 1493 m 1,0,-1
 1372 1493 l 1,1,-1
 1315 1202 l 1,2,-1
 662 1202 l 1,3,-1
 608 924 l 1,4,-1
 1223 924 l 1,5,-1
 1165 633 l 1,6,-1
 551 633 l 1,7,-1
 485 291 l 1,8,-1
 1159 291 l 1,9,-1
 1104 0 l 1,10,-1
 43 0 l 1,11,-1
 334 1493 l 1,0,-1
EndSplineSet
EndChar
StartChar: F
Encoding: 70 70 70
Width: 1399
Flags: W
AnchorPoint: "below" 234.896 0 basechar 0
AnchorPoint: "above" 840.354 1520 basechar 0
Fore
334 1493 m 1,0,-1
 1372 1493 l 1,1,-1
 1315 1202 l 1,2,-1
 662 1202 l 1,3,-1
 608 924 l 1,4,-1
 1223 924 l 1,5,-1
 1165 633 l 1,6,-1
 551 633 l 1,7,-1
 428 0 l 1,8,-1
 43 0 l 1,9,-1
 334 1493 l 1,0,-1
EndSplineSet
KernsSLIFO: 483 -235 0 0 7923 -188 0 0 563 -188 0 0 375 -188 0 0 371 -196 0 0 369 -196 0 0 365 -196 0 0 363 -196 0 0 361 -196 0 0 343 -225 0 0 559 -159 0 0 493 -159 0 0 491 -159 0 0 337 -159 0 0 335 -159 0 0 333 -159 0 0 281 -159 0 0 279 -159 0 0 277 -159 0 0 275 -159 0 0 261 -235 0 0 259 -235 0 0 257 -235 0 0 260 -264 0 0 258 -264 0 0 256 -264 0 0 252 -196 0 0 229 -235 0 0 230 -235 0 0 59 -112 0 0 242 -159 0 0 45 -102 0 0 8222 -452 0 0 367 -196 0 0 245 -159 0 0 235 -159 0 0 249 -196 0 0 44 -444 0 0 224 -235 0 0 195 -264 0 0 234 -159 0 0 341 -225 0 0 232 -159 0 0 196 -264 0 0 193 -264 0 0 8217 -36 0 0 251 -196 0 0 253 -188 0 0 8218 -452 0 0 227 -235 0 0 194 -264 0 0 248 -159 0 0 244 -159 0 0 65 -264 0 0 97 -235 0 0 228 -235 0 0 246 -159 0 0 250 -196 0 0 225 -235 0 0 345 -225 0 0 46 -452 0 0 226 -235 0 0 233 -159 0 0 283 -159 0 0 101 -159 0 0 339 -159 0 0 255 -188 0 0 111 -159 0 0 114 -225 0 0 117 -196 0 0 192 -264 0 0 121 -188 0 0 58 -112 0 0 243 -159 0 0
EndChar
StartChar: G
Encoding: 71 71 71
Width: 1681
Flags: W
AnchorPoint: "above" 1080.55 1520 basechar 0
AnchorPoint: "below" 785.09 0 basechar 0
Fore
1395 111 m 1,0,1
 1249 40 1249 40 1092 5.5 c 128,-1,2
 935 -29 935 -29 756 -29 c 0,3,4
 438 -29 438 -29 256 132.5 c 128,-1,5
 74 294 74 294 74 573 c 0,6,7
 74 754 74 754 131 912.5 c 128,-1,8
 188 1071 188 1071 301 1202 c 0,9,10
 439 1362 439 1362 626.5 1441 c 128,-1,11
 814 1520 814 1520 1055 1520 c 0,12,13
 1189 1520 1189 1520 1325 1492 c 128,-1,14
 1461 1464 1461 1464 1593 1409 c 1,15,-1
 1534 1100 l 1,16,17
 1412 1171 1412 1171 1295.5 1206 c 128,-1,18
 1179 1241 1179 1241 1061 1241 c 0,19,20
 803 1241 803 1241 641 1069 c 128,-1,21
 479 897 479 897 479 627 c 0,22,23
 479 448 479 448 573.5 349 c 128,-1,24
 668 250 668 250 840 250 c 0,25,26
 896 250 896 250 952 257.5 c 128,-1,27
 1008 265 1008 265 1065 281 c 1,28,-1
 1122 571 l 1,29,-1
 887 571 l 1,30,-1
 936 829 l 1,31,-1
 1534 829 l 1,32,-1
 1395 111 l 1,0,1
EndSplineSet
KernsSLIFO: 356 -36 0 0 221 -83 0 0 376 -83 0 0 89 -83 0 0 84 -36 0 0
EndChar
StartChar: H
Encoding: 72 72 72
Width: 1714
Flags: W
AnchorPoint: "above" 1005.35 1520 basechar 0
AnchorPoint: "below" 709.896 0 basechar 0
Fore
334 1493 m 1,0,-1
 719 1493 l 1,1,-1
 608 924 l 1,2,-1
 1176 924 l 1,3,-1
 1286 1493 l 1,4,-1
 1671 1493 l 1,5,-1
 1380 0 l 1,6,-1
 995 0 l 1,7,-1
 1118 633 l 1,8,-1
 551 633 l 1,9,-1
 428 0 l 1,10,-1
 43 0 l 1,11,-1
 334 1493 l 1,0,-1
EndSplineSet
EndChar
StartChar: I
Encoding: 73 73 73
Width: 762
Flags: W
AnchorPoint: "below" 234.062 6 basechar 0
AnchorPoint: "above" 539 1520 basechar 0
Fore
334 1493 m 1,0,-1
 719 1493 l 1,1,-1
 428 0 l 1,2,-1
 43 0 l 1,3,-1
 334 1493 l 1,0,-1
EndSplineSet
EndChar
StartChar: J
Encoding: 74 74 74
Width: 762
Flags: W
AnchorPoint: "below" 189.159 -430 basechar 0
AnchorPoint: "above" 566 1520 basechar 0
Fore
334 1493 m 1,0,-1
 719 1493 l 1,1,-1
 457 145 l 1,2,3
 399 -147 399 -147 229.5 -278.5 c 128,-1,4
 60 -410 60 -410 -262 -410 c 2,5,-1
 -340 -410 l 1,6,-1
 -283 -119 l 1,7,-1
 -223 -119 l 2,8,9
 -104 -119 -104 -119 -28.5 -51.5 c 128,-1,10
 47 16 47 16 72 145 c 2,11,-1
 334 1493 l 1,0,-1
EndSplineSet
EndChar
StartChar: K
Encoding: 75 75 75
Width: 1587
Flags: W
AnchorPoint: "above" 1031.35 1520 basechar 0
AnchorPoint: "below" 735.896 0 basechar 0
Fore
334 1493 m 1,0,-1
 719 1493 l 1,1,-1
 614 956 l 1,2,-1
 1249 1493 l 1,3,-1
 1714 1493 l 1,4,-1
 858 768 l 1,5,-1
 1503 0 l 1,6,-1
 1051 0 l 1,7,-1
 549 623 l 1,8,-1
 428 0 l 1,9,-1
 43 0 l 1,10,-1
 334 1493 l 1,0,-1
EndSplineSet
KernsSLIFO: 367 -112 0 0 366 -73 0 0 283 -112 0 0 268 -131 0 0 262 -131 0 0 253 -206 0 0 217 -73 0 0 219 -73 0 0 218 -73 0 0 210 -131 0 0 212 -131 0 0 211 -131 0 0 8222 38 0 0 8218 38 0 0 255 -206 0 0 339 -112 0 0 338 -178 0 0 213 -131 0 0 248 -112 0 0 216 -55 0 0 252 -112 0 0 251 -112 0 0 249 -112 0 0 250 -112 0 0 245 -112 0 0 246 -112 0 0 244 -112 0 0 242 -112 0 0 243 -112 0 0 235 -112 0 0 234 -112 0 0 232 -112 0 0 233 -112 0 0 220 -73 0 0 214 -131 0 0 199 -131 0 0 121 -206 0 0 117 -112 0 0 111 -112 0 0 101 -112 0 0 87 -55 0 0 85 -73 0 0 79 -131 0 0 67 -131 0 0 45 -253 0 0
EndChar
StartChar: L
Encoding: 76 76 76
Width: 1305
Flags: W
AnchorPoint: "above" 530.354 1520 basechar 0
AnchorPoint: "below" 572.896 0 basechar 0
Fore
334 1493 m 1,0,-1
 719 1493 l 1,1,-1
 485 291 l 1,2,-1
 1159 291 l 1,3,-1
 1104 0 l 1,4,-1
 43 0 l 1,5,-1
 334 1493 l 1,0,-1
EndSplineSet
KernsSLIFO: 366 -112 0 0 356 -339 0 0 253 -253 0 0 221 -319 0 0 217 -112 0 0 219 -112 0 0 218 -112 0 0 210 -73 0 0 212 -73 0 0 211 -73 0 0 376 -319 0 0 255 -253 0 0 8217 -509 0 0 8221 -528 0 0 338 -73 0 0 213 -73 0 0 216 -73 0 0 220 -112 0 0 214 -73 0 0 121 -253 0 0 89 -319 0 0 87 -178 0 0 86 -282 0 0 85 -112 0 0 84 -339 0 0 79 -73 0 0
EndChar
StartChar: M
Encoding: 77 77 77
Width: 2038
Flags: W
AnchorPoint: "above" 1168.35 1520 basechar 0
AnchorPoint: "below" 872.896 0 basechar 0
Fore
334 1493 m 1,0,-1
 807 1493 l 1,1,-1
 999 700 l 1,2,-1
 1503 1493 l 1,3,-1
 1995 1493 l 1,4,-1
 1704 0 l 1,5,-1
 1339 0 l 1,6,-1
 1552 1102 l 1,7,-1
 1034 287 l 1,8,-1
 827 287 l 1,9,-1
 621 1102 l 1,10,-1
 408 0 l 1,11,-1
 43 0 l 1,12,-1
 334 1493 l 1,0,-1
EndSplineSet
EndChar
StartChar: N
Encoding: 78 78 78
Width: 1714
Flags: W
AnchorPoint: "below" 733.896 0 basechar 0
AnchorPoint: "above" 1076 1520 basechar 0
Fore
334 1493 m 1,0,-1
 764 1493 l 1,1,-1
 1106 459 l 1,2,-1
 1307 1493 l 1,3,-1
 1671 1493 l 1,4,-1
 1380 0 l 1,5,-1
 950 0 l 1,6,-1
 608 1034 l 1,7,-1
 408 0 l 1,8,-1
 43 0 l 1,9,-1
 334 1493 l 1,0,-1
EndSplineSet
EndChar
StartChar: O
Encoding: 79 79 79
Width: 1741
Flags: W
AnchorPoint: "above" 1020.55 1520 basechar 0
AnchorPoint: "below" 725.09 0 basechar 0
Fore
1260 881 m 0,0,1
 1260 1057 1260 1057 1180.5 1149 c 128,-1,2
 1101 1241 1101 1241 950 1241 c 0,3,4
 750 1241 750 1241 614.5 1061.5 c 128,-1,5
 479 882 479 882 479 612 c 0,6,7
 479 440 479 440 558 345 c 128,-1,8
 637 250 637 250 778 250 c 0,9,10
 893 250 893 250 982.5 298.5 c 128,-1,11
 1072 347 1072 347 1135 442 c 0,12,13
 1195 533 1195 533 1227.5 647 c 128,-1,14
 1260 761 1260 761 1260 881 c 0,0,1
1006 1520 m 0,15,16
 1304 1520 1304 1520 1485.5 1354.5 c 128,-1,17
 1667 1189 1667 1189 1667 922 c 0,18,19
 1667 740 1667 740 1611.5 578 c 128,-1,20
 1556 416 1556 416 1450 287 c 0,21,22
 1320 128 1320 128 1142.5 49.5 c 128,-1,23
 965 -29 965 -29 733 -29 c 0,24,25
 436 -29 436 -29 255 136 c 128,-1,26
 74 301 74 301 74 569 c 0,27,28
 74 752 74 752 129 914 c 128,-1,29
 184 1076 184 1076 291 1206 c 0,30,31
 419 1364 419 1364 596.5 1442 c 128,-1,32
 774 1520 774 1520 1006 1520 c 0,15,16
EndSplineSet
KernsSLIFO: 221 -149 0 0 376 -149 0 0 89 -149 0 0 88 -73 0 0 86 -73 0 0 46 -45 0 0 45 38 0 0 44 -45 0 0
EndChar
StartChar: P
Encoding: 80 80 80
Width: 1501
Flags: W
AnchorPoint: "below" 234.896 0 basechar 0
AnchorPoint: "above" 952.354 1520 basechar 0
Fore
334 1493 m 1,0,-1
 973 1493 l 2,1,2
 1208 1493 1208 1493 1340.5 1385.5 c 128,-1,3
 1473 1278 1473 1278 1473 1087 c 0,4,5
 1473 970 1473 970 1429 864.5 c 128,-1,6
 1385 759 1385 759 1303 680 c 0,7,8
 1214 595 1214 595 1091 556.5 c 128,-1,9
 968 518 968 518 782 518 c 2,10,-1
 528 518 l 1,11,-1
 428 0 l 1,12,-1
 43 0 l 1,13,-1
 334 1493 l 1,0,-1
666 1214 m 1,14,-1
 584 797 l 1,15,-1
 797 797 l 2,16,17
 933 797 933 797 1005 861 c 128,-1,18
 1077 925 1077 925 1077 1047 c 0,19,20
 1077 1128 1077 1128 1025.5 1171 c 128,-1,21
 974 1214 974 1214 877 1214 c 2,22,-1
 666 1214 l 1,14,-1
EndSplineSet
KernsSLIFO: 252 -73 0 0 229 -131 0 0 230 -131 0 0 45 -36 0 0 8222 -415 0 0 367 -73 0 0 235 -55 0 0 249 -73 0 0 44 -528 0 0 224 -131 0 0 195 -188 0 0 234 -55 0 0 341 -63 0 0 8221 38 0 0 232 -55 0 0 196 -188 0 0 193 -188 0 0 8217 57 0 0 251 -73 0 0 8218 -415 0 0 227 -131 0 0 194 -188 0 0 117 -73 0 0 353 -73 0 0 65 -188 0 0 97 -131 0 0 228 -131 0 0 250 -73 0 0 351 -73 0 0 225 -131 0 0 345 -63 0 0 226 -131 0 0 233 -55 0 0 283 -55 0 0 101 -55 0 0 115 -73 0 0 114 -63 0 0 46 -528 0 0 192 -188 0 0
EndChar
StartChar: Q
Encoding: 81 81 81
Width: 1741
Flags: W
AnchorPoint: "below" 751.331 0 basechar 0
AnchorPoint: "above" 1046.79 1520 basechar 0
Fore
760 -27 m 1,0,1
 749 -28 749 -28 738 -28.5 c 128,-1,2
 727 -29 727 -29 702 -29 c 0,3,4
 589 -29 589 -29 489 2 c 128,-1,5
 389 33 389 33 307 94 c 0,6,7
 197 175 197 175 135.5 300.5 c 128,-1,8
 74 426 74 426 74 569 c 0,9,10
 74 752 74 752 129.5 914.5 c 128,-1,11
 185 1077 185 1077 291 1206 c 0,12,13
 420 1365 420 1365 596.5 1442.5 c 128,-1,14
 773 1520 773 1520 1006 1520 c 0,15,16
 1304 1520 1304 1520 1485.5 1354.5 c 128,-1,17
 1667 1189 1667 1189 1667 922 c 0,18,19
 1667 608 1667 608 1514.5 371.5 c 128,-1,20
 1362 135 1362 135 1090 27 c 1,21,-1
 1319 -299 l 1,22,-1
 952 -299 l 1,23,-1
 760 -27 l 1,0,1
1260 881 m 0,24,25
 1260 1057 1260 1057 1180.5 1149 c 128,-1,26
 1101 1241 1101 1241 950 1241 c 0,27,28
 750 1241 750 1241 614.5 1061.5 c 128,-1,29
 479 882 479 882 479 612 c 0,30,31
 479 440 479 440 558 345 c 128,-1,32
 637 250 637 250 778 250 c 0,33,34
 893 250 893 250 982.5 298.5 c 128,-1,35
 1072 347 1072 347 1135 442 c 0,36,37
 1195 533 1195 533 1227.5 647 c 128,-1,38
 1260 761 1260 761 1260 881 c 0,24,25
EndSplineSet
KernsSLIFO: 45 38 0 0
EndChar
StartChar: R
Encoding: 82 82 82
Width: 1577
Flags: W
AnchorPoint: "below" 565.896 0 basechar 0
AnchorPoint: "above" 890 1520 basechar 0
Fore
752 831 m 2,0,1
 883 831 883 831 950.5 892 c 128,-1,2
 1018 953 1018 953 1018 1071 c 0,3,4
 1018 1145 1018 1145 971.5 1179.5 c 128,-1,5
 925 1214 925 1214 825 1214 c 2,6,-1
 666 1214 l 1,7,-1
 590 831 l 1,8,-1
 752 831 l 2,0,1
539 565 m 1,9,-1
 428 0 l 1,10,-1
 43 0 l 1,11,-1
 334 1493 l 1,12,-1
 903 1493 l 2,13,14
 1149 1493 1149 1493 1276 1401 c 128,-1,15
 1403 1309 1403 1309 1403 1130 c 0,16,17
 1403 949 1403 949 1303 832 c 128,-1,18
 1203 715 1203 715 1032 698 c 1,19,20
 1110 682 1110 682 1162 618.5 c 128,-1,21
 1214 555 1214 555 1253 424 c 2,22,-1
 1380 0 l 1,23,-1
 997 0 l 1,24,-1
 885 371 l 1,25,26
 851 482 851 482 802.5 523.5 c 128,-1,27
 754 565 754 565 662 565 c 2,28,-1
 539 565 l 1,9,-1
EndSplineSet
KernsSLIFO: 367 -112 0 0 356 -92 0 0 283 -102 0 0 253 -131 0 0 221 -188 0 0 376 -188 0 0 255 -131 0 0 339 -102 0 0 248 -102 0 0 252 -112 0 0 251 -112 0 0 249 -112 0 0 250 -112 0 0 245 -102 0 0 246 -102 0 0 244 -102 0 0 242 -102 0 0 243 -102 0 0 235 -102 0 0 234 -102 0 0 232 -102 0 0 233 -102 0 0 121 -131 0 0 117 -112 0 0 111 -102 0 0 101 -102 0 0 89 -188 0 0 84 -92 0 0 46 38 0 0 44 38 0 0
EndChar
StartChar: S
Encoding: 83 83 83
Width: 1475
Flags: W
AnchorPoint: "above" 853.548 1520 basechar 0
AnchorPoint: "below" 558.09 0 basechar 0
Fore
1362 1446 m 1,0,-1
 1300 1130 l 1,1,2
 1187 1186 1187 1186 1077 1213.5 c 128,-1,3
 967 1241 967 1241 862 1241 c 0,4,5
 718 1241 718 1241 637.5 1196 c 128,-1,6
 557 1151 557 1151 557 1071 c 0,7,8
 557 1020 557 1020 592.5 991.5 c 128,-1,9
 628 963 628 963 739 936 c 2,10,-1
 897 897 l 2,11,12
 1095 847 1095 847 1187.5 752.5 c 128,-1,13
 1280 658 1280 658 1280 508 c 0,14,15
 1280 265 1280 265 1095.5 118 c 128,-1,16
 911 -29 911 -29 600 -29 c 0,17,18
 455 -29 455 -29 311.5 -2 c 128,-1,19
 168 25 168 25 31 78 c 1,20,-1
 92 403 l 1,21,22
 225 326 225 326 350.5 288 c 128,-1,23
 476 250 476 250 598 250 c 0,24,25
 730 250 730 250 812.5 304 c 128,-1,26
 895 358 895 358 895 442 c 0,27,28
 895 497 895 497 858 527.5 c 128,-1,29
 821 558 821 558 696 590 c 2,30,-1
 539 629 l 2,31,32
 365 672 365 672 280 765 c 128,-1,33
 195 858 195 858 195 1006 c 0,34,35
 195 1239 195 1239 373.5 1379.5 c 128,-1,36
 552 1520 552 1520 854 1520 c 0,37,38
 975 1520 975 1520 1102.5 1501.5 c 128,-1,39
 1230 1483 1230 1483 1362 1446 c 1,0,-1
EndSplineSet
KernsSLIFO: 350 -73 0 0 352 -73 0 0 83 -73 0 0
EndChar
StartChar: T
Encoding: 84 84 84
Width: 1397
Flags: W
AnchorPoint: "above" 848.354 1520 basechar 0
AnchorPoint: "below" 552.896 0 basechar 0
Fore
156 1493 m 1,0,-1
 1532 1493 l 1,1,-1
 1475 1202 l 1,2,-1
 979 1202 l 1,3,-1
 745 0 l 1,4,-1
 360 0 l 1,5,-1
 594 1202 l 1,6,-1
 98 1202 l 1,7,-1
 156 1493 l 1,0,-1
EndSplineSet
KernsSLIFO: 252 -264 0 0 229 -243 0 0 230 -243 0 0 59 -112 0 0 242 -264 0 0 45 -301 0 0 8222 -301 0 0 367 -264 0 0 245 -264 0 0 235 -264 0 0 249 -264 0 0 58 -112 0 0 224 -243 0 0 195 -159 0 0 234 -264 0 0 231 -264 0 0 341 -225 0 0 232 -264 0 0 196 -159 0 0 193 -159 0 0 269 -264 0 0 345 -225 0 0 251 -264 0 0 253 -339 0 0 8218 -301 0 0 227 -243 0 0 194 -159 0 0 248 -264 0 0 244 -264 0 0 353 -243 0 0 65 -159 0 0 283 -264 0 0 351 -243 0 0 228 -243 0 0 119 -282 0 0 246 -264 0 0 250 -264 0 0 263 -264 0 0 225 -243 0 0 46 -348 0 0 84 47 0 0 226 -243 0 0 233 -264 0 0 356 47 0 0 97 -243 0 0 99 -264 0 0 101 -264 0 0 339 -264 0 0 255 -339 0 0 111 -264 0 0 115 -243 0 0 114 -225 0 0 117 -264 0 0 192 -159 0 0 121 -339 0 0 44 -329 0 0 243 -264 0 0
EndChar
StartChar: U
Encoding: 85 85 85
Width: 1663
Flags: W
AnchorPoint: "below" 687.714 0 basechar 0
AnchorPoint: "above" 978 1520 basechar 0
Fore
334 1493 m 1,0,-1
 719 1493 l 1,1,-1
 545 599 l 1,2,3
 535 551 535 551 530.5 514 c 128,-1,4
 526 477 526 477 526 449 c 0,5,6
 526 351 526 351 578.5 302.5 c 128,-1,7
 631 254 631 254 735 254 c 0,8,9
 875 254 875 254 950 332.5 c 128,-1,10
 1025 411 1025 411 1061 598 c 1,11,-1
 1235 1493 l 1,12,-1
 1620 1493 l 1,13,-1
 1446 598 l 1,14,15
 1381 268 1381 268 1199.5 119.5 c 128,-1,16
 1018 -29 1018 -29 680 -29 c 0,17,18
 415 -29 415 -29 277 84.5 c 128,-1,19
 139 198 139 198 139 414 c 0,20,21
 139 450 139 450 144 494.5 c 128,-1,22
 149 539 149 539 160 598 c 1,23,-1
 334 1493 l 1,0,-1
EndSplineSet
KernsSLIFO: 193 -92 0 0 194 -92 0 0 195 -92 0 0 192 -92 0 0 196 -92 0 0 65 -92 0 0
EndChar
StartChar: V
Encoding: 86 86 86
Width: 1585
Flags: W
AnchorPoint: "below" 647.896 0 basechar 0
AnchorPoint: "above" 943.354 1520 basechar 0
Fore
156 1493 m 1,0,-1
 522 1493 l 1,1,-1
 705 377 l 1,2,-1
 1323 1493 l 1,3,-1
 1720 1493 l 1,4,-1
 877 0 l 1,5,-1
 418 0 l 1,6,-1
 156 1493 l 1,0,-1
EndSplineSet
KernsSLIFO: 367 -149 0 0 283 -149 0 0 210 -36 0 0 212 -36 0 0 211 -36 0 0 193 -139 0 0 194 -139 0 0 8222 -272 0 0 8218 -272 0 0 339 -149 0 0 338 -45 0 0 213 -36 0 0 195 -139 0 0 192 -139 0 0 248 -149 0 0 230 -159 0 0 216 -36 0 0 252 -149 0 0 251 -149 0 0 249 -149 0 0 250 -149 0 0 245 -149 0 0 246 -149 0 0 244 -149 0 0 242 -149 0 0 243 -149 0 0 235 -149 0 0 234 -149 0 0 232 -149 0 0 233 -149 0 0 229 -159 0 0 227 -159 0 0 228 -159 0 0 226 -159 0 0 224 -159 0 0 225 -159 0 0 214 -36 0 0 196 -139 0 0 117 -149 0 0 111 -149 0 0 105 -36 0 0 101 -149 0 0 97 -159 0 0 79 -36 0 0 65 -139 0 0 59 -92 0 0 58 -92 0 0 46 -319 0 0 45 -149 0 0 44 -319 0 0
EndChar
StartChar: W
Encoding: 87 87 87
Width: 2259
Flags: W
AnchorPoint: "above" 1277.71 1527 basechar 0
AnchorPoint: "below" 980.896 0 basechar 0
Fore
219 1493 m 1,0,-1
 575 1493 l 1,1,-1
 621 408 l 1,2,-1
 1090 1493 l 1,3,-1
 1456 1493 l 1,4,-1
 1505 408 l 1,5,-1
 1958 1493 l 1,6,-1
 2341 1493 l 1,7,-1
 1698 0 l 1,8,-1
 1262 0 l 1,9,-1
 1212 1135 l 1,10,-1
 729 0 l 1,11,-1
 283 0 l 1,12,-1
 219 1493 l 1,0,-1
EndSplineSet
KernsSLIFO: 229 -139 0 0 230 -139 0 0 59 -63 0 0 242 -112 0 0 45 -92 0 0 46 -178 0 0 245 -112 0 0 235 -131 0 0 44 -178 0 0 224 -139 0 0 195 -73 0 0 234 -131 0 0 341 -120 0 0 232 -131 0 0 196 -73 0 0 193 -73 0 0 227 -139 0 0 194 -73 0 0 248 -112 0 0 244 -112 0 0 65 -73 0 0 97 -139 0 0 228 -139 0 0 246 -112 0 0 225 -139 0 0 345 -120 0 0 226 -139 0 0 233 -131 0 0 283 -131 0 0 101 -131 0 0 339 -112 0 0 111 -112 0 0 114 -120 0 0 192 -73 0 0 58 -63 0 0 243 -112 0 0
EndChar
StartChar: X
Encoding: 88 88 88
Width: 1579
Flags: W
AnchorPoint: "below" 642.896 0 basechar 0
AnchorPoint: "above" 939.714 1527 basechar 0
Fore
1016 756 m 1,0,-1
 1382 0 l 1,1,-1
 991 0 l 1,2,-1
 748 500 l 1,3,-1
 311 0 l 1,4,-1
 -104 0 l 1,5,-1
 567 766 l 1,6,-1
 213 1493 l 1,7,-1
 606 1493 l 1,8,-1
 836 1024 l 1,9,-1
 1245 1493 l 1,10,-1
 1663 1493 l 1,11,-1
 1016 756 l 1,0,-1
EndSplineSet
KernsSLIFO: 283 -131 0 0 268 -73 0 0 262 -73 0 0 210 -73 0 0 212 -73 0 0 211 -73 0 0 338 -112 0 0 213 -73 0 0 216 -73 0 0 235 -131 0 0 234 -131 0 0 232 -131 0 0 233 -131 0 0 214 -73 0 0 199 -73 0 0 101 -131 0 0 79 -73 0 0 67 -73 0 0 45 -243 0 0
EndChar
StartChar: Y
Encoding: 89 89 89
Width: 1483
Flags: W
AnchorPoint: "above" 892.714 1527 basechar 0
AnchorPoint: "below" 595.896 0 basechar 0
Fore
129 1493 m 1,0,-1
 514 1493 l 1,1,-1
 768 940 l 1,2,-1
 1212 1493 l 1,3,-1
 1657 1493 l 1,4,-1
 920 623 l 1,5,-1
 799 0 l 1,6,-1
 414 0 l 1,7,-1
 535 623 l 1,8,-1
 129 1493 l 1,0,-1
EndSplineSet
KernsSLIFO: 367 -225 0 0 283 -264 0 0 268 -73 0 0 262 -73 0 0 210 -73 0 0 212 -73 0 0 211 -73 0 0 193 -196 0 0 194 -196 0 0 8222 -405 0 0 8218 -376 0 0 339 -264 0 0 338 -120 0 0 213 -73 0 0 195 -196 0 0 192 -196 0 0 248 -264 0 0 230 -243 0 0 216 -73 0 0 252 -225 0 0 251 -225 0 0 249 -225 0 0 250 -225 0 0 245 -264 0 0 246 -264 0 0 244 -264 0 0 242 -264 0 0 243 -264 0 0 235 -264 0 0 234 -264 0 0 232 -264 0 0 233 -264 0 0 229 -243 0 0 227 -243 0 0 228 -243 0 0 226 -243 0 0 224 -243 0 0 225 -243 0 0 214 -73 0 0 199 -73 0 0 196 -196 0 0 117 -225 0 0 111 -264 0 0 101 -264 0 0 97 -243 0 0 79 -73 0 0 67 -73 0 0 65 -196 0 0 59 -178 0 0 58 -178 0 0 46 -339 0 0 45 -301 0 0 44 -339 0 0
EndChar
StartChar: Z
Encoding: 90 90 90
Width: 1485
Flags: W
AnchorPoint: "above" 892.354 1520 basechar 0
AnchorPoint: "below" 594.562 -12 basechar 0
Fore
260 1493 m 1,0,-1
 1516 1493 l 1,1,-1
 1468 1255 l 1,2,-1
 500 291 l 1,3,-1
 1305 291 l 1,4,-1
 1247 0 l 1,5,-1
 -53 0 l 1,6,-1
 -8 238 l 1,7,-1
 963 1202 l 1,8,-1
 203 1202 l 1,9,-1
 260 1493 l 1,0,-1
EndSplineSet
KernsSLIFO: 45 -149 0 0
EndChar
StartChar: bracketleft
Encoding: 91 91 91
Width: 936
Flags: W
Fore
334 1556 m 1,0,-1
 954 1556 l 1,1,-1
 909 1331 l 1,2,-1
 631 1331 l 1,3,-1
 362 -45 l 1,4,-1
 643 -45 l 1,5,-1
 598 -270 l 1,6,-1
 -20 -270 l 1,7,-1
 334 1556 l 1,0,-1
EndSplineSet
EndChar
StartChar: backslash
Encoding: 92 92 92
Width: 748
Flags: W
Fore
344 -190 m 1,0,-1
 145 1493 l 1,1,-1
 367 1493 l 1,2,-1
 565 -190 l 1,3,-1
 344 -190 l 1,0,-1
EndSplineSet
EndChar
StartChar: bracketright
Encoding: 93 93 93
Width: 936
Flags: W
Fore
563 -270 m 1,0,-1
 -57 -270 l 1,1,-1
 -14 -45 l 1,2,-1
 266 -45 l 1,3,-1
 535 1331 l 1,4,-1
 254 1331 l 1,5,-1
 297 1556 l 1,6,-1
 918 1556 l 1,7,-1
 563 -270 l 1,0,-1
EndSplineSet
EndChar
StartChar: asciicircum
Encoding: 94 94 94
Width: 1716
Flags: W
Fore
981 1493 m 1,0,-1
 1509 936 l 1,1,-1
 1268 936 l 1,2,-1
 858 1237 l 1,3,-1
 449 936 l 1,4,-1
 207 936 l 1,5,-1
 735 1493 l 1,6,-1
 981 1493 l 1,0,-1
EndSplineSet
EndChar
StartChar: underscore
Encoding: 95 95 95
Width: 1024
Flags: W
Fore
1044 -293 m 1,0,-1
 1044 -483 l 1,1,-1
 -20 -483 l 1,2,-1
 -20 -293 l 1,3,-1
 1044 -293 l 1,0,-1
EndSplineSet
EndChar
StartChar: grave
Encoding: 96 96 96
Width: 1024
Flags: W
Fore
551 1638 m 1,0,-1
 760 1262 l 1,1,-1
 563 1262 l 1,2,-1
 268 1638 l 1,3,-1
 551 1638 l 1,0,-1
EndSplineSet
EndChar
StartChar: a
Encoding: 97 97 97
Width: 1382
Flags: W
AnchorPoint: "below" 589.342 0 basechar 0
AnchorPoint: "above" 784 1147 basechar 0
Fore
674 504 m 2,0,1
 540 504 540 504 471.5 462.5 c 128,-1,2
 403 421 403 421 403 340 c 0,3,4
 403 279 403 279 443.5 244 c 128,-1,5
 484 209 484 209 555 209 c 0,6,7
 665 209 665 209 739 275.5 c 128,-1,8
 813 342 813 342 838 463 c 1,9,-1
 846 504 l 1,10,-1
 674 504 l 2,0,1
1233 639 m 2,11,-1
 1108 0 l 1,12,-1
 750 0 l 1,13,-1
 780 166 l 1,14,15
 692 66 692 66 594 18.5 c 128,-1,16
 496 -29 496 -29 381 -29 c 0,17,18
 222 -29 222 -29 128.5 53.5 c 128,-1,19
 35 136 35 136 35 276 c 0,20,21
 35 490 35 490 200.5 603.5 c 128,-1,22
 366 717 366 717 678 717 c 2,23,-1
 889 717 l 1,24,-1
 893 745 l 1,25,26
 896 759 896 759 896.5 765 c 128,-1,27
 897 771 897 771 897 776 c 0,28,29
 897 842 897 842 834.5 875.5 c 128,-1,30
 772 909 772 909 649 909 c 0,31,32
 538 909 538 909 434 886 c 128,-1,33
 330 863 330 863 233 817 c 1,34,-1
 287 1090 l 1,35,36
 399 1118 399 1118 516.5 1132.5 c 128,-1,37
 634 1147 634 1147 760 1147 c 0,38,39
 1009 1147 1009 1147 1130 1061.5 c 128,-1,40
 1251 976 1251 976 1251 801 c 0,41,42
 1251 767 1251 767 1246.5 726.5 c 128,-1,43
 1242 686 1242 686 1233 639 c 2,11,-1
EndSplineSet
KernsSLIFO: 253 -63 0 0 255 -63 0 0 121 -63 0 0
EndChar
StartChar: b
Encoding: 98 98 98
Width: 1466
Flags: W
AnchorPoint: "above" 503.049 1520 basechar 0
AnchorPoint: "below" 549.591 0 basechar 0
Fore
831 887 m 0,0,1
 693 887 693 887 605.5 759.5 c 128,-1,2
 518 632 518 632 518 428 c 0,3,4
 518 336 518 336 567.5 283.5 c 128,-1,5
 617 231 617 231 705 231 c 0,6,7
 840 231 840 231 928 356.5 c 128,-1,8
 1016 482 1016 482 1016 678 c 0,9,10
 1016 780 1016 780 968.5 833.5 c 128,-1,11
 921 887 921 887 831 887 c 0,0,1
455 162 m 1,12,-1
 422 0 l 1,13,-1
 63 0 l 1,14,-1
 365 1556 l 1,15,-1
 725 1556 l 1,16,-1
 608 956 l 1,17,18
 690 1054 690 1054 780 1100.5 c 128,-1,19
 870 1147 870 1147 977 1147 c 0,20,21
 1166 1147 1166 1147 1276 1027 c 128,-1,22
 1386 907 1386 907 1386 700 c 0,23,24
 1386 571 1386 571 1347.5 449 c 128,-1,25
 1309 327 1309 327 1237 227 c 0,26,27
 1146 101 1146 101 1031.5 36 c 128,-1,28
 917 -29 917 -29 786 -29 c 0,29,30
 671 -29 671 -29 590.5 17.5 c 128,-1,31
 510 64 510 64 455 162 c 1,12,-1
EndSplineSet
EndChar
StartChar: c
Encoding: 99 99 99
Width: 1214
Flags: W
AnchorPoint: "below" 624.342 0 basechar 0
AnchorPoint: "above" 821 1147 basechar 0
Fore
1190 1085 m 1,0,-1
 1133 793 l 1,1,2
 1061 841 1061 841 991 866 c 128,-1,3
 921 891 921 891 854 891 c 0,4,5
 679 891 679 891 568 773.5 c 128,-1,6
 457 656 457 656 457 473 c 0,7,8
 457 356 457 356 526 291.5 c 128,-1,9
 595 227 595 227 721 227 c 0,10,11
 805 227 805 227 886 252 c 128,-1,12
 967 277 967 277 1040 326 c 1,13,-1
 985 33 l 1,14,15
 896 2 896 2 806 -13.5 c 128,-1,16
 716 -29 716 -29 625 -29 c 0,17,18
 361 -29 361 -29 218.5 89.5 c 128,-1,19
 76 208 76 208 76 426 c 0,20,21
 76 563 76 563 128.5 692 c 128,-1,22
 181 821 181 821 279 924 c 0,23,24
 388 1037 388 1037 529 1092 c 128,-1,25
 670 1147 670 1147 854 1147 c 0,26,27
 939 1147 939 1147 1023 1131.5 c 128,-1,28
 1107 1116 1107 1116 1190 1085 c 1,0,-1
EndSplineSet
EndChar
StartChar: d
Encoding: 100 100 100
Width: 1466
Flags: W
AnchorPoint: "above" 1261.05 1520 basechar 0
AnchorPoint: "below" 580.591 0 basechar 0
Fore
629 231 m 0,0,1
 767 231 767 231 853.5 358 c 128,-1,2
 940 485 940 485 940 690 c 0,3,4
 940 783 940 783 891.5 835 c 128,-1,5
 843 887 843 887 756 887 c 0,6,7
 620 887 620 887 532 761.5 c 128,-1,8
 444 636 444 636 444 440 c 0,9,10
 444 338 444 338 491.5 284.5 c 128,-1,11
 539 231 539 231 629 231 c 0,0,1
1006 956 m 1,12,-1
 1122 1556 l 1,13,-1
 1483 1556 l 1,14,-1
 1180 0 l 1,15,-1
 819 0 l 1,16,-1
 852 162 l 1,17,18
 770 64 770 64 680 17.5 c 128,-1,19
 590 -29 590 -29 483 -29 c 0,20,21
 294 -29 294 -29 184 91 c 128,-1,22
 74 211 74 211 74 418 c 0,23,24
 74 547 74 547 112.5 669 c 128,-1,25
 151 791 151 791 223 891 c 0,26,27
 314 1017 314 1017 428.5 1082 c 128,-1,28
 543 1147 543 1147 674 1147 c 0,29,30
 789 1147 789 1147 869.5 1100.5 c 128,-1,31
 950 1054 950 1054 1006 956 c 1,12,-1
EndSplineSet
EndChar
StartChar: e
Encoding: 101 101 101
Width: 1389
Flags: W
AnchorPoint: "below" 620.342 0 basechar 0
AnchorPoint: "above" 831 1147 basechar 0
Fore
1288 518 m 1,0,-1
 1276 461 l 1,1,-1
 438 461 l 1,2,3
 438 455 438 455 437 443.5 c 128,-1,4
 436 432 436 432 436 426 c 0,5,6
 436 317 436 317 501.5 263 c 128,-1,7
 567 209 567 209 698 209 c 0,8,9
 811 209 811 209 936.5 243 c 128,-1,10
 1062 277 1062 277 1200 344 c 1,11,-1
 1145 66 l 1,12,13
 1014 18 1014 18 884.5 -5.5 c 128,-1,14
 755 -29 755 -29 621 -29 c 0,15,16
 359 -29 359 -29 216.5 92 c 128,-1,17
 74 213 74 213 74 434 c 0,18,19
 74 562 74 562 119.5 682.5 c 128,-1,20
 165 803 165 803 252 903 c 0,21,22
 355 1023 355 1023 498.5 1085 c 128,-1,23
 642 1147 642 1147 817 1147 c 0,24,25
 1044 1147 1044 1147 1177.5 1026 c 128,-1,26
 1311 905 1311 905 1311 700 c 0,27,28
 1311 660 1311 660 1305.5 615.5 c 128,-1,29
 1300 571 1300 571 1288 518 c 1,0,-1
950 682 m 1,30,31
 953 695 953 695 954.5 708.5 c 128,-1,32
 956 722 956 722 956 735 c 0,33,34
 956 815 956 815 908 862 c 128,-1,35
 860 909 860 909 778 909 c 0,36,37
 673 909 673 909 599.5 851.5 c 128,-1,38
 526 794 526 794 487 682 c 1,39,-1
 950 682 l 1,30,31
EndSplineSet
EndChar
StartChar: f
Encoding: 102 102 102
Width: 891
Flags: W
AnchorPoint: "above" 538.23 1520 basechar 0
AnchorPoint: "below" 242.772 0 basechar 0
Fore
1106 1556 m 1,0,-1
 1059 1321 l 1,1,-1
 862 1321 l 2,2,3
 787 1321 787 1321 752.5 1293.5 c 128,-1,4
 718 1266 718 1266 705 1199 c 1,5,-1
 688 1120 l 1,6,-1
 991 1120 l 1,7,-1
 942 864 l 1,8,-1
 639 864 l 1,9,-1
 471 0 l 1,10,-1
 111 0 l 1,11,-1
 279 864 l 1,12,-1
 102 864 l 1,13,-1
 152 1120 l 1,14,-1
 328 1120 l 1,15,-1
 344 1198 l 1,16,17
 381 1384 381 1384 498 1470 c 128,-1,18
 615 1556 615 1556 831 1556 c 2,19,-1
 1106 1556 l 1,0,-1
EndSplineSet
KernsSLIFO: 8217 141 0 0 8221 86 0 0 46 -112 0 0 45 -36 0 0 44 -112 0 0
EndChar
StartChar: g
Encoding: 103 103 103
Width: 1466
Flags: W
AnchorPoint: "below" 546.092 -430 basechar 0
AnchorPoint: "above" 825 1147 basechar 0
Fore
856 190 m 1,0,1
 770 92 770 92 681 46 c 128,-1,2
 592 0 592 0 487 0 c 0,3,4
 297 0 297 0 186.5 122.5 c 128,-1,5
 76 245 76 245 76 457 c 0,6,7
 76 570 76 570 114.5 683.5 c 128,-1,8
 153 797 153 797 225 897 c 0,9,10
 313 1018 313 1018 427 1081.5 c 128,-1,11
 541 1145 541 1145 672 1145 c 0,12,13
 790 1145 790 1145 870.5 1099 c 128,-1,14
 951 1053 951 1053 1006 954 c 1,15,-1
 1036 1120 l 1,16,-1
 1397 1120 l 1,17,-1
 1208 147 l 1,18,19
 1150 -154 1150 -154 960 -298 c 128,-1,20
 770 -442 770 -442 432 -442 c 0,21,22
 328 -442 328 -442 231.5 -426 c 128,-1,23
 135 -410 135 -410 41 -377 c 1,24,-1
 94 -98 l 1,25,26
 179 -152 179 -152 264 -178.5 c 128,-1,27
 349 -205 349 -205 438 -205 c 0,28,29
 616 -205 616 -205 711.5 -129 c 128,-1,30
 807 -53 807 -53 840 113 c 1,31,-1
 856 190 l 1,0,1
756 887 m 0,32,33
 624 887 624 887 536.5 768 c 128,-1,34
 449 649 449 649 449 469 c 0,35,36
 449 367 449 367 496 313.5 c 128,-1,37
 543 260 543 260 633 260 c 0,38,39
 764 260 764 260 852 378.5 c 128,-1,40
 940 497 940 497 940 674 c 0,41,42
 940 778 940 778 893 832.5 c 128,-1,43
 846 887 846 887 756 887 c 0,32,33
EndSplineSet
EndChar
StartChar: h
Encoding: 104 104 104
Width: 1458
Flags: W
AnchorPoint: "below" 546.772 0 basechar 0
AnchorPoint: "above" 565 1520 basechar 0
Fore
1321 682 m 2,0,-1
 1188 0 l 1,1,-1
 829 0 l 1,2,-1
 942 584 l 1,3,4
 954 641 954 641 960.5 680.5 c 128,-1,5
 967 720 967 720 967 743 c 0,6,7
 967 807 967 807 931.5 842 c 128,-1,8
 896 877 896 877 831 877 c 0,9,10
 720 877 720 877 640.5 790.5 c 128,-1,11
 561 704 561 704 530 551 c 1,12,-1
 422 0 l 1,13,-1
 63 0 l 1,14,-1
 365 1556 l 1,15,-1
 725 1556 l 1,16,-1
 608 956 l 1,17,18
 707 1053 707 1053 807 1100 c 128,-1,19
 907 1147 907 1147 1016 1147 c 0,20,21
 1171 1147 1171 1147 1255 1066 c 128,-1,22
 1339 985 1339 985 1339 838 c 0,23,24
 1339 806 1339 806 1334.5 767 c 128,-1,25
 1330 728 1330 728 1321 682 c 2,0,-1
EndSplineSet
EndChar
StartChar: i
Encoding: 105 105 105
Width: 702
Flags: W
AnchorPoint: "above" 546.477 1583 basechar 0
AnchorPoint: "below" 238.772 0 basechar 0
Fore
281 1120 m 1,0,-1
 641 1120 l 1,1,-1
 422 0 l 1,2,-1
 63 0 l 1,3,-1
 281 1120 l 1,0,-1
365 1556 m 1,4,-1
 725 1556 l 1,5,-1
 668 1264 l 1,6,-1
 307 1264 l 1,7,-1
 365 1556 l 1,4,-1
EndSplineSet
Substitution: 0 65534 's001' dotlessi
EndChar
StartChar: j
Encoding: 106 106 106
Width: 702
Flags: W
AnchorPoint: "below" 159.146 -430 basechar 0
AnchorPoint: "above" 576.139 1585 basechar 0
Fore
281 1120 m 1,0,-1
 641 1120 l 1,1,-1
 426 20 l 2,2,3
 380 -215 380 -215 254.5 -328.5 c 128,-1,4
 129 -442 129 -442 -84 -442 c 2,5,-1
 -262 -442 l 1,6,-1
 -217 -207 l 1,7,-1
 -154 -207 l 2,8,9
 -53 -207 -53 -207 -6.5 -161.5 c 128,-1,10
 40 -116 40 -116 66 20 c 1,11,-1
 281 1120 l 1,0,-1
365 1556 m 1,12,-1
 725 1556 l 1,13,-1
 668 1264 l 1,14,-1
 307 1264 l 1,15,-1
 365 1556 l 1,12,-1
EndSplineSet
Substitution: 0 65534 's001' dotlessj
EndChar
StartChar: k
Encoding: 107 107 107
Width: 1362
Flags: W
AnchorPoint: "above" 500.23 1520 basechar 0
AnchorPoint: "below" 546.772 0 basechar 0
Fore
365 1556 m 1,0,-1
 725 1556 l 1,1,-1
 561 713 l 1,2,-1
 1044 1120 l 1,3,-1
 1466 1120 l 1,4,-1
 815 602 l 1,5,-1
 1288 0 l 1,6,-1
 879 0 l 1,7,-1
 516 483 l 1,8,-1
 422 0 l 1,9,-1
 63 0 l 1,10,-1
 365 1556 l 1,0,-1
EndSplineSet
KernsSLIFO: 283 -73 0 0 339 -73 0 0 248 -45 0 0 245 -73 0 0 246 -73 0 0 244 -73 0 0 242 -73 0 0 243 -73 0 0 235 -73 0 0 234 -73 0 0 232 -73 0 0 233 -73 0 0 111 -73 0 0 101 -73 0 0
EndChar
StartChar: l
Encoding: 108 108 108
Width: 702
Flags: W
AnchorPoint: "above" 500.23 1520 basechar 0
AnchorPoint: "below" 204.772 0 basechar 0
Fore
365 1556 m 1,0,-1
 725 1556 l 1,1,-1
 422 0 l 1,2,-1
 63 0 l 1,3,-1
 365 1556 l 1,0,-1
EndSplineSet
EndChar
StartChar: m
Encoding: 109 109 109
Width: 2134
Flags: W
AnchorPoint: "above" 1182.48 1147 basechar 0
AnchorPoint: "below" 959.523 0 basechar 0
Fore
1284 934 m 1,0,1
 1367 1037 1367 1037 1472.5 1092 c 128,-1,2
 1578 1147 1578 1147 1692 1147 c 0,3,4
 1842 1147 1842 1147 1928.5 1064.5 c 128,-1,5
 2015 982 2015 982 2015 838 c 0,6,7
 2015 808 2015 808 2010.5 769.5 c 128,-1,8
 2006 731 2006 731 1997 682 c 1,9,-1
 1864 0 l 1,10,-1
 1503 0 l 1,11,-1
 1616 584 l 1,12,-1
 1619 599 l 2,13,14
 1645 723 1645 723 1645 758 c 0,15,16
 1645 813 1645 813 1613.5 845 c 128,-1,17
 1582 877 1582 877 1528 877 c 0,18,19
 1425 877 1425 877 1353.5 792.5 c 128,-1,20
 1282 708 1282 708 1251 551 c 2,21,-1
 1143 0 l 1,22,-1
 782 0 l 1,23,-1
 897 584 l 1,24,25
 912 659 912 659 918 697.5 c 128,-1,26
 924 736 924 736 924 758 c 0,27,28
 924 814 924 814 893 845.5 c 128,-1,29
 862 877 862 877 807 877 c 0,30,31
 708 877 708 877 633.5 789.5 c 128,-1,32
 559 702 559 702 530 551 c 1,33,-1
 422 0 l 1,34,-1
 63 0 l 1,35,-1
 281 1120 l 1,36,-1
 641 1120 l 1,37,-1
 608 956 l 1,38,39
 692 1051 692 1051 787 1099 c 128,-1,40
 882 1147 882 1147 985 1147 c 0,41,42
 1101 1147 1101 1147 1184 1087.5 c 128,-1,43
 1267 1028 1267 1028 1284 934 c 1,0,1
EndSplineSet
EndChar
StartChar: n
Encoding: 110 110 110
Width: 1458
Flags: W
AnchorPoint: "below" 569.522 0 basechar 0
AnchorPoint: "above" 809 1147 basechar 0
Fore
1321 682 m 2,0,-1
 1188 0 l 1,1,-1
 829 0 l 1,2,-1
 942 584 l 1,3,4
 954 641 954 641 960.5 680.5 c 128,-1,5
 967 720 967 720 967 743 c 0,6,7
 967 807 967 807 931.5 842 c 128,-1,8
 896 877 896 877 831 877 c 0,9,10
 720 877 720 877 640.5 790.5 c 128,-1,11
 561 704 561 704 530 551 c 1,12,-1
 422 0 l 1,13,-1
 63 0 l 1,14,-1
 281 1120 l 1,15,-1
 641 1120 l 1,16,-1
 608 956 l 1,17,18
 707 1053 707 1053 807 1100 c 128,-1,19
 907 1147 907 1147 1016 1147 c 0,20,21
 1171 1147 1171 1147 1255 1066 c 128,-1,22
 1339 985 1339 985 1339 838 c 0,23,24
 1339 806 1339 806 1334.5 767 c 128,-1,25
 1330 728 1330 728 1321 682 c 2,0,-1
EndSplineSet
EndChar
StartChar: o
Encoding: 111 111 111
Width: 1407
Flags: W
AnchorPoint: "below" 596.342 0 basechar 0
AnchorPoint: "above" 797 1147 basechar 0
Fore
768 891 m 0,0,1
 629 891 629 891 539 765 c 128,-1,2
 449 639 449 639 449 444 c 0,3,4
 449 338 449 338 497.5 282.5 c 128,-1,5
 546 227 546 227 639 227 c 0,6,7
 778 227 778 227 868 353.5 c 128,-1,8
 958 480 958 480 958 676 c 0,9,10
 958 781 958 781 909.5 836 c 128,-1,11
 861 891 861 891 768 891 c 0,0,1
797 1147 m 0,12,13
 1047 1147 1047 1147 1190 1020 c 128,-1,14
 1333 893 1333 893 1333 674 c 0,15,16
 1333 547 1333 547 1288 427.5 c 128,-1,17
 1243 308 1243 308 1157 209 c 0,18,19
 1055 91 1055 91 916 31 c 128,-1,20
 777 -29 777 -29 606 -29 c 0,21,22
 359 -29 359 -29 216.5 98 c 128,-1,23
 74 225 74 225 74 444 c 0,24,25
 74 570 74 570 120 690.5 c 128,-1,26
 166 811 166 811 252 911 c 0,27,28
 352 1027 352 1027 490.5 1087 c 128,-1,29
 629 1147 629 1147 797 1147 c 0,12,13
EndSplineSet
EndChar
StartChar: p
Encoding: 112 112 112
Width: 1466
Flags: W
AnchorPoint: "above" 881.88 1147 basechar 0
AnchorPoint: "below" 575.343 -430 basechar 0
Fore
455 162 m 1,0,-1
 340 -426 l 1,1,-1
 -20 -426 l 1,2,-1
 281 1120 l 1,3,-1
 641 1120 l 1,4,-1
 608 956 l 1,5,6
 690 1054 690 1054 780 1100.5 c 128,-1,7
 870 1147 870 1147 977 1147 c 0,8,9
 1166 1147 1166 1147 1276 1027 c 128,-1,10
 1386 907 1386 907 1386 700 c 0,11,12
 1386 571 1386 571 1347.5 449 c 128,-1,13
 1309 327 1309 327 1237 227 c 0,14,15
 1146 101 1146 101 1031.5 36 c 128,-1,16
 917 -29 917 -29 786 -29 c 0,17,18
 671 -29 671 -29 590.5 17.5 c 128,-1,19
 510 64 510 64 455 162 c 1,0,-1
831 887 m 0,20,21
 693 887 693 887 605.5 759.5 c 128,-1,22
 518 632 518 632 518 428 c 0,23,24
 518 336 518 336 567.5 283.5 c 128,-1,25
 617 231 617 231 705 231 c 0,26,27
 840 231 840 231 928 356.5 c 128,-1,28
 1016 482 1016 482 1016 678 c 0,29,30
 1016 780 1016 780 968.5 833.5 c 128,-1,31
 921 887 921 887 831 887 c 0,20,21
EndSplineSet
EndChar
StartChar: q
Encoding: 113 113 113
Width: 1466
Flags: W
AnchorPoint: "above" 881.88 1147 basechar 0
AnchorPoint: "below" 575.343 -430 basechar 0
Fore
1006 956 m 1,0,-1
 1036 1120 l 1,1,-1
 1397 1120 l 1,2,-1
 1096 -426 l 1,3,-1
 735 -426 l 1,4,-1
 850 162 l 1,5,6
 770 64 770 64 680 17.5 c 128,-1,7
 590 -29 590 -29 483 -29 c 0,8,9
 294 -29 294 -29 184 91 c 128,-1,10
 74 211 74 211 74 418 c 0,11,12
 74 547 74 547 112.5 669 c 128,-1,13
 151 791 151 791 223 891 c 0,14,15
 314 1017 314 1017 428.5 1082 c 128,-1,16
 543 1147 543 1147 674 1147 c 0,17,18
 789 1147 789 1147 869.5 1100.5 c 128,-1,19
 950 1054 950 1054 1006 956 c 1,0,-1
629 231 m 0,20,21
 767 231 767 231 853.5 358 c 128,-1,22
 940 485 940 485 940 690 c 0,23,24
 940 783 940 783 891.5 835 c 128,-1,25
 843 887 843 887 756 887 c 0,26,27
 620 887 620 887 532 761.5 c 128,-1,28
 444 636 444 636 444 440 c 0,29,30
 444 338 444 338 491.5 284.5 c 128,-1,31
 539 231 539 231 629 231 c 0,20,21
EndSplineSet
EndChar
StartChar: r
Encoding: 114 114 114
Width: 1010
Flags: W
AnchorPoint: "below" 238.522 0 basechar 0
AnchorPoint: "above" 743 1147 basechar 0
Fore
1053 815 m 1,0,1
 1016 836 1016 836 971 847 c 128,-1,2
 926 858 926 858 874 858 c 0,3,4
 737 858 737 858 646.5 770 c 128,-1,5
 556 682 556 682 524 516 c 1,6,-1
 422 0 l 1,7,-1
 63 0 l 1,8,-1
 281 1120 l 1,9,-1
 641 1120 l 1,10,-1
 602 928 l 1,11,12
 673 1034 673 1034 779.5 1090.5 c 128,-1,13
 886 1147 886 1147 1016 1147 c 0,14,15
 1035 1147 1035 1147 1059 1145 c 128,-1,16
 1083 1143 1083 1143 1116 1139 c 1,17,-1
 1053 815 l 1,0,1
EndSplineSet
KernsSLIFO: 8217 86 0 0 8221 38 0 0 46 -292 0 0 44 -301 0 0
EndChar
StartChar: s
Encoding: 115 115 115
Width: 1219
Flags: W
AnchorPoint: "below" 493.342 0 basechar 0
AnchorPoint: "above" 721 1147 basechar 0
Fore
1147 1085 m 1,0,-1
 1094 807 l 1,1,2
 989 857 989 857 885 883 c 128,-1,3
 781 909 781 909 688 909 c 0,4,5
 582 909 582 909 524.5 881.5 c 128,-1,6
 467 854 467 854 467 803 c 0,7,8
 467 773 467 773 499 755 c 128,-1,9
 531 737 531 737 625 717 c 1,10,-1
 690 705 l 1,11,12
 907 659 907 659 994 586.5 c 128,-1,13
 1081 514 1081 514 1081 385 c 0,14,15
 1081 190 1081 190 928 80.5 c 128,-1,16
 775 -29 775 -29 500 -29 c 0,17,18
 385 -29 385 -29 265 -11 c 128,-1,19
 145 7 145 7 20 43 c 1,20,-1
 74 324 l 1,21,22
 171 267 171 267 281.5 238 c 128,-1,23
 392 209 392 209 508 209 c 0,24,25
 621 209 621 209 678 236 c 128,-1,26
 735 263 735 263 735 315 c 0,27,28
 735 351 735 351 703 371 c 128,-1,29
 671 391 671 391 571 412 c 1,30,-1
 506 424 l 1,31,32
 314 464 314 464 232 542 c 128,-1,33
 150 620 150 620 150 758 c 0,34,35
 150 945 150 945 291.5 1046 c 128,-1,36
 433 1147 433 1147 696 1147 c 0,37,38
 811 1147 811 1147 922.5 1131.5 c 128,-1,39
 1034 1116 1034 1116 1147 1085 c 1,0,-1
EndSplineSet
EndChar
StartChar: t
Encoding: 116 116 116
Width: 979
Flags: W
AnchorPoint: "above" 549.698 1520 basechar 0
AnchorPoint: "below" 254.24 0 basechar 0
Fore
737 1438 m 1,0,-1
 676 1120 l 1,1,-1
 1042 1120 l 1,2,-1
 991 864 l 1,3,-1
 625 864 l 1,4,-1
 533 390 l 1,5,6
 529 374 529 374 527.5 363 c 128,-1,7
 526 352 526 352 526 342 c 0,8,9
 526 296 526 296 556.5 276 c 128,-1,10
 587 256 587 256 659 256 c 2,11,-1
 844 256 l 1,12,-1
 793 0 l 1,13,-1
 492 0 l 2,14,15
 330 0 330 0 245 68 c 128,-1,16
 160 136 160 136 160 264 c 0,17,18
 160 292 160 292 163 324 c 128,-1,19
 166 356 166 356 172 389 c 1,20,-1
 264 864 l 1,21,-1
 88 864 l 1,22,-1
 137 1120 l 1,23,-1
 315 1120 l 1,24,-1
 377 1438 l 1,25,-1
 737 1438 l 1,0,-1
EndSplineSet
EndChar
StartChar: u
Encoding: 117 117 117
Width: 1458
Flags: W
AnchorPoint: "below" 617.966 0 basechar 0
AnchorPoint: "above" 821 1147 basechar 0
Fore
139 436 m 2,0,-1
 270 1120 l 1,1,-1
 629 1120 l 1,2,-1
 516 537 l 1,3,4
 504 480 504 480 498 440 c 128,-1,5
 492 400 492 400 492 377 c 0,6,7
 492 314 492 314 527 279 c 128,-1,8
 562 244 562 244 627 244 c 0,9,10
 738 244 738 244 818 330 c 128,-1,11
 898 416 898 416 928 569 c 2,12,-1
 1036 1120 l 1,13,-1
 1395 1120 l 1,14,-1
 1178 0 l 1,15,-1
 817 0 l 1,16,-1
 850 164 l 1,17,18
 758 67 758 67 657 19 c 128,-1,19
 556 -29 556 -29 444 -29 c 0,20,21
 291 -29 291 -29 207 52 c 128,-1,22
 123 133 123 133 123 281 c 0,23,24
 123 316 123 316 127 355 c 128,-1,25
 131 394 131 394 139 436 c 2,0,-1
EndSplineSet
EndChar
StartChar: v
Encoding: 118 118 118
Width: 1335
Flags: W
AnchorPoint: "above" 782.102 1147 basechar 0
AnchorPoint: "below" 559.147 0 basechar 0
Fore
129 1120 m 1,0,-1
 459 1120 l 1,1,-1
 604 338 l 1,2,-1
 1026 1120 l 1,3,-1
 1389 1120 l 1,4,-1
 731 0 l 1,5,-1
 352 0 l 1,6,-1
 129 1120 l 1,0,-1
EndSplineSet
KernsSLIFO: 46 -167 0 0 44 -167 0 0
EndChar
StartChar: w
Encoding: 119 119 119
Width: 1892
Flags: W
AnchorPoint: "below" 837.146 0 basechar 0
AnchorPoint: "above" 1068 1147 basechar 0
Fore
178 1120 m 1,0,-1
 508 1120 l 1,1,-1
 547 350 l 1,2,-1
 885 1120 l 1,3,-1
 1169 1120 l 1,4,-1
 1210 352 l 1,5,-1
 1546 1120 l 1,6,-1
 1898 1120 l 1,7,-1
 1386 0 l 1,8,-1
 1006 0 l 1,9,-1
 969 770 l 1,10,-1
 627 0 l 1,11,-1
 256 0 l 1,12,-1
 178 1120 l 1,0,-1
EndSplineSet
KernsSLIFO: 46 -131 0 0 44 -131 0 0
EndChar
StartChar: x
Encoding: 120 120 120
Width: 1321
Flags: W
AnchorPoint: "above" 773.102 1147 basechar 0
AnchorPoint: "below" 550.147 0 basechar 0
Fore
453 573 m 1,0,-1
 156 1120 l 1,1,-1
 528 1120 l 1,2,-1
 694 788 l 1,3,-1
 985 1120 l 1,4,-1
 1374 1120 l 1,5,-1
 864 575 l 1,6,-1
 1176 0 l 1,7,-1
 803 0 l 1,8,-1
 627 354 l 1,9,-1
 305 0 l 1,10,-1
 -84 0 l 1,11,-1
 453 573 l 1,0,-1
EndSplineSet
EndChar
StartChar: y
Encoding: 121 121 121
Width: 1335
Flags: W
AnchorPoint: "below" 511.521 -430 basechar 0
AnchorPoint: "above" 801 1147 basechar 0
Fore
135 1120 m 1,0,-1
 473 1120 l 1,1,-1
 627 344 l 1,2,-1
 1024 1120 l 1,3,-1
 1407 1120 l 1,4,-1
 698 -106 l 1,5,6
 579 -313 579 -313 478 -377.5 c 128,-1,7
 377 -442 377 -442 217 -442 c 2,8,-1
 0 -442 l 1,9,-1
 37 -207 l 1,10,-1
 150 -207 l 2,11,12
 238 -207 238 -207 286.5 -177.5 c 128,-1,13
 335 -148 335 -148 373 -74 c 1,14,-1
 406 -14 l 1,15,-1
 135 1120 l 1,0,-1
EndSplineSet
KernsSLIFO: 46 -188 0 0 44 -159 0 0
EndChar
StartChar: z
Encoding: 122 122 122
Width: 1192
Flags: W
AnchorPoint: "below" 487.147 0 basechar 0
AnchorPoint: "above" 676 1147 basechar 0
Fore
223 1120 m 1,0,-1
 1200 1120 l 1,1,-1
 1151 870 l 1,2,-1
 453 256 l 1,3,-1
 1032 256 l 1,4,-1
 983 0 l 1,5,-1
 -18 0 l 1,6,-1
 29 250 l 1,7,-1
 729 864 l 1,8,-1
 174 864 l 1,9,-1
 223 1120 l 1,0,-1
EndSplineSet
EndChar
StartChar: braceleft
Encoding: 123 123 123
Width: 1458
Flags: W
Fore
1047 -109 m 1,0,-1
 1004 -334 l 1,1,-1
 786 -334 l 2,2,3
 607 -334 607 -334 516.5 -272.5 c 128,-1,4
 426 -211 426 -211 426 -88 c 0,5,6
 426 -66 426 -66 429.5 -36 c 128,-1,7
 433 -6 433 -6 440 34 c 1,8,-1
 477 227 l 1,9,10
 483 257 483 257 486 284.5 c 128,-1,11
 489 312 489 312 489 334 c 0,12,13
 489 422 489 422 443.5 458 c 128,-1,14
 398 494 398 494 281 494 c 2,15,-1
 217 494 l 1,16,-1
 262 717 l 1,17,-1
 324 717 l 2,18,19
 465 717 465 717 530.5 775 c 128,-1,20
 596 833 596 833 625 983 c 1,21,-1
 664 1188 l 2,22,23
 701 1381 701 1381 817.5 1468.5 c 128,-1,24
 934 1556 934 1556 1153 1556 c 2,25,-1
 1370 1556 l 1,26,-1
 1327 1331 l 1,27,-1
 1257 1331 l 2,28,29
 1118 1331 1118 1331 1066.5 1287.5 c 128,-1,30
 1015 1244 1015 1244 987 1102 c 2,31,-1
 954 936 l 1,32,33
 924 780 924 780 865 708.5 c 128,-1,34
 806 637 806 637 692 612 c 1,35,36
 772 591 772 591 809 546 c 128,-1,37
 846 501 846 501 846 424 c 0,38,39
 846 394 846 394 842 360.5 c 128,-1,40
 838 327 838 327 829 287 c 1,41,-1
 797 121 l 2,42,43
 788 75 788 75 785 51 c 128,-1,44
 782 27 782 27 782 10 c 0,45,46
 782 -57 782 -57 822.5 -83 c 128,-1,47
 863 -109 863 -109 979 -109 c 2,48,-1
 1047 -109 l 1,0,-1
EndSplineSet
EndChar
StartChar: bar
Encoding: 124 124 124
Width: 748
Flags: W
Fore
487 1565 m 1,0,-1
 487 -483 l 1,1,-1
 260 -483 l 1,2,-1
 260 1565 l 1,3,-1
 487 1565 l 1,0,-1
EndSplineSet
EndChar
StartChar: braceright
Encoding: 125 125 125
Width: 1458
Flags: W
Fore
133 -109 m 1,0,-1
 203 -109 l 2,1,2
 343 -109 343 -109 394.5 -64.5 c 128,-1,3
 446 -20 446 -20 473 121 c 1,4,-1
 506 287 l 1,5,6
 536 442 536 442 595.5 514 c 128,-1,7
 655 586 655 586 770 612 c 1,8,9
 690 631 690 631 652 676 c 128,-1,10
 614 721 614 721 614 799 c 0,11,12
 614 823 614 823 618.5 857 c 128,-1,13
 623 891 623 891 631 936 c 1,14,-1
 664 1102 l 1,15,16
 672 1144 672 1144 675 1169 c 128,-1,17
 678 1194 678 1194 678 1212 c 0,18,19
 678 1280 678 1280 637.5 1305.5 c 128,-1,20
 597 1331 597 1331 481 1331 c 2,21,-1
 414 1331 l 1,22,-1
 457 1556 l 1,23,-1
 676 1556 l 2,24,25
 855 1556 855 1556 944.5 1495 c 128,-1,26
 1034 1434 1034 1434 1034 1311 c 0,27,28
 1034 1283 1034 1283 1030.5 1252.5 c 128,-1,29
 1027 1222 1027 1222 1020 1188 c 1,30,-1
 981 983 l 1,31,32
 975 953 975 953 972 926 c 128,-1,33
 969 899 969 899 969 877 c 0,34,35
 969 789 969 789 1015.5 753 c 128,-1,36
 1062 717 1062 717 1178 717 c 2,37,-1
 1241 717 l 1,38,-1
 1196 494 l 1,39,-1
 1135 494 l 2,40,41
 994 494 994 494 928.5 435.5 c 128,-1,42
 863 377 863 377 834 227 c 2,43,-1
 797 35 l 2,44,45
 760 -158 760 -158 643 -246 c 128,-1,46
 526 -334 526 -334 307 -334 c 2,47,-1
 90 -334 l 1,48,-1
 133 -109 l 1,0,-1
EndSplineSet
EndChar
StartChar: asciitilde
Encoding: 126 126 126
Width: 1716
Flags: W
Fore
1499 850 m 1,0,-1
 1499 606 l 1,1,2
 1393 526 1393 526 1303.5 491.5 c 128,-1,3
 1214 457 1214 457 1118 457 c 0,4,5
 1011 457 1011 457 868 515 c 0,6,7
 854 521 854 521 846 524 c 0,8,9
 839 527 839 527 824 533 c 0,10,11
 669 594 669 594 575 594 c 0,12,13
 487 594 487 594 401 555.5 c 128,-1,14
 315 517 315 517 217 434 c 1,15,-1
 217 678 l 1,16,17
 324 758 324 758 413 792.5 c 128,-1,18
 502 827 502 827 598 827 c 0,19,20
 705 827 705 827 848 769 c 0,21,22
 863 763 863 763 870 760 c 0,23,24
 877 757 877 757 892 751 c 0,25,26
 1047 690 1047 690 1141 690 c 0,27,28
 1227 690 1227 690 1311.5 727.5 c 128,-1,29
 1396 765 1396 765 1499 850 c 1,0,-1
EndSplineSet
EndChar
StartChar: exclamdown
Encoding: 161 161 161
Width: 934
Flags: W
Fore
723 1137 m 1,0,-1
 362 1137 l 1,1,-1
 432 1493 l 1,2,-1
 793 1493 l 1,3,-1
 723 1137 l 1,0,-1
502 0 m 1,4,-1
 141 0 l 1,5,-1
 254 573 l 1,6,-1
 385 991 l 1,7,-1
 643 991 l 1,8,-1
 614 573 l 1,9,-1
 502 0 l 1,4,-1
EndSplineSet
EndChar
StartChar: cent
Encoding: 162 162 162
Width: 1425
Flags: W
Fore
741 856 m 1,0,1
 639 810 639 810 577.5 705.5 c 128,-1,2
 516 601 516 601 516 473 c 0,3,4
 516 399 516 399 544.5 344.5 c 128,-1,5
 573 290 573 290 625 264 c 1,6,-1
 741 856 l 1,0,1
1249 1085 m 1,7,-1
 1192 793 l 1,8,9
 1117 843 1117 843 1049.5 867 c 128,-1,10
 982 891 982 891 918 891 c 2,11,-1
 909 891 l 1,12,-1
 781 227 l 1,13,14
 870 229 870 229 949.5 253.5 c 128,-1,15
 1029 278 1029 278 1100 326 c 1,16,-1
 1044 33 l 1,17,18
 972 8 972 8 894 -7 c 128,-1,19
 816 -22 816 -22 731 -27 c 1,20,-1
 676 -313 l 1,21,-1
 514 -313 l 1,22,-1
 569 -23 l 1,23,24
 368 -1 368 -1 252.5 115.5 c 128,-1,25
 137 232 137 232 137 414 c 0,26,27
 137 705 137 705 319 906 c 128,-1,28
 501 1107 501 1107 797 1141 c 1,29,-1
 852 1432 l 1,30,-1
 1014 1432 l 1,31,-1
 959 1145 l 1,32,33
 1027 1143 1027 1143 1100 1128 c 128,-1,34
 1173 1113 1173 1113 1249 1085 c 1,7,-1
EndSplineSet
EndChar
StartChar: sterling
Encoding: 163 163 163
Width: 1425
Flags: W
Fore
1415 1466 m 1,0,-1
 1360 1180 l 1,1,2
 1301 1217 1301 1217 1231 1237 c 128,-1,3
 1161 1257 1161 1257 1090 1257 c 0,4,5
 965 1257 965 1257 895 1195.5 c 128,-1,6
 825 1134 825 1134 799 1001 c 2,7,-1
 766 831 l 1,8,-1
 1139 831 l 1,9,-1
 1094 592 l 1,10,-1
 719 592 l 1,11,-1
 655 266 l 1,12,-1
 1196 266 l 1,13,-1
 1145 0 l 1,14,-1
 14 0 l 1,15,-1
 66 266 l 1,16,-1
 291 266 l 1,17,-1
 354 592 l 1,18,-1
 162 592 l 1,19,-1
 207 831 l 1,20,-1
 401 831 l 1,21,-1
 434 1001 l 2,22,23
 486 1271 486 1271 637 1395.5 c 128,-1,24
 788 1520 788 1520 1063 1520 c 0,25,26
 1155 1520 1155 1520 1243 1506.5 c 128,-1,27
 1331 1493 1331 1493 1415 1466 c 1,0,-1
EndSplineSet
EndChar
StartChar: currency
Encoding: 164 164 164
Width: 1303
Flags: W
Fore
434 268 m 1,0,-1
 227 61 l 1,1,-1
 74 215 l 1,2,-1
 281 422 l 1,3,4
 253 471 253 471 239 524.5 c 128,-1,5
 225 578 225 578 225 641 c 0,6,7
 225 704 225 704 240 758 c 128,-1,8
 255 812 255 812 285 858 c 1,9,-1
 76 1063 l 1,10,-1
 229 1217 l 1,11,-1
 436 1010 l 1,12,13
 484 1040 484 1040 538 1054.5 c 128,-1,14
 592 1069 592 1069 653 1069 c 0,15,16
 707 1069 707 1069 761 1055.5 c 128,-1,17
 815 1042 815 1042 872 1014 c 1,18,-1
 1079 1221 l 1,19,-1
 1231 1067 l 1,20,-1
 1024 860 l 1,21,22
 1053 805 1053 805 1067 750 c 128,-1,23
 1081 695 1081 695 1081 641 c 0,24,25
 1081 578 1081 578 1066.5 525.5 c 128,-1,26
 1052 473 1052 473 1022 426 c 1,27,-1
 1229 219 l 1,28,-1
 1075 66 l 1,29,-1
 868 272 l 1,30,31
 822 242 822 242 769 227.5 c 128,-1,32
 716 213 716 213 653 213 c 0,33,34
 595 213 595 213 541 226.5 c 128,-1,35
 487 240 487 240 434 268 c 1,0,-1
653 422 m 0,36,37
 744 422 744 422 808 485.5 c 128,-1,38
 872 549 872 549 872 641 c 0,39,40
 872 733 872 733 808.5 796.5 c 128,-1,41
 745 860 745 860 653 860 c 0,42,43
 562 860 562 860 498 796.5 c 128,-1,44
 434 733 434 733 434 641 c 0,45,46
 434 548 434 548 497 485 c 128,-1,47
 560 422 560 422 653 422 c 0,36,37
EndSplineSet
EndChar
StartChar: yen
Encoding: 165 165 165
Width: 1425
Flags: W
Fore
1294 416 m 1,0,-1
 840 416 l 1,1,-1
 758 0 l 1,2,-1
 377 0 l 1,3,-1
 459 416 l 1,4,-1
 12 416 l 1,5,-1
 51 610 l 1,6,-1
 496 610 l 1,7,-1
 510 686 l 1,8,-1
 481 762 l 1,9,-1
 80 762 l 1,10,-1
 117 954 l 1,11,-1
 408 954 l 1,12,-1
 193 1493 l 1,13,-1
 561 1493 l 1,14,-1
 756 993 l 1,15,-1
 1141 1493 l 1,16,-1
 1546 1493 l 1,17,-1
 1106 954 l 1,18,-1
 1399 954 l 1,19,-1
 1362 762 l 1,20,-1
 954 762 l 1,21,-1
 895 686 l 1,22,-1
 877 610 l 1,23,-1
 1331 610 l 1,24,-1
 1294 416 l 1,0,-1
EndSplineSet
EndChar
StartChar: brokenbar
Encoding: 166 166 166
Width: 748
Flags: W
Fore
487 1432 m 1,0,-1
 487 674 l 1,1,-1
 260 674 l 1,2,-1
 260 1432 l 1,3,-1
 487 1432 l 1,0,-1
487 408 m 1,4,-1
 487 -350 l 1,5,-1
 260 -350 l 1,6,-1
 260 408 l 1,7,-1
 487 408 l 1,4,-1
EndSplineSet
EndChar
StartChar: section
Encoding: 167 167 167
Width: 1024
Flags: W
Fore
1012 1462 m 1,0,-1
 969 1235 l 1,1,2
 879 1275 879 1275 807 1294 c 128,-1,3
 735 1313 735 1313 674 1313 c 0,4,5
 594 1313 594 1313 547 1282.5 c 128,-1,6
 500 1252 500 1252 500 1202 c 0,7,8
 500 1172 500 1172 524.5 1147 c 128,-1,9
 549 1122 549 1122 606 1096 c 2,10,-1
 696 1055 l 2,11,12
 871 977 871 977 935 901.5 c 128,-1,13
 999 826 999 826 999 715 c 0,14,15
 999 592 999 592 922 497 c 128,-1,16
 845 402 845 402 698 344 c 1,17,18
 755 308 755 308 782 264 c 128,-1,19
 809 220 809 220 809 166 c 0,20,21
 809 4 809 4 668 -95.5 c 128,-1,22
 527 -195 527 -195 291 -195 c 0,23,24
 207 -195 207 -195 117 -180.5 c 128,-1,25
 27 -166 27 -166 -68 -137 c 1,26,-1
 -20 100 l 1,27,28
 82 57 82 57 162 35.5 c 128,-1,29
 242 14 242 14 303 14 c 0,30,31
 380 14 380 14 428.5 45.5 c 128,-1,32
 477 77 477 77 477 125 c 0,33,34
 477 156 477 156 453 179.5 c 128,-1,35
 429 203 429 203 350 240 c 2,36,-1
 215 301 l 2,37,38
 96 355 96 355 40 428.5 c 128,-1,39
 -16 502 -16 502 -16 604 c 0,40,41
 -16 727 -16 727 57.5 822.5 c 128,-1,42
 131 918 131 918 272 977 c 1,43,44
 220 1018 220 1018 195 1064 c 128,-1,45
 170 1110 170 1110 170 1163 c 0,46,47
 170 1319 170 1319 308.5 1419.5 c 128,-1,48
 447 1520 447 1520 668 1520 c 0,49,50
 751 1520 751 1520 837 1505.5 c 128,-1,51
 923 1491 923 1491 1012 1462 c 1,0,-1
444 854 m 1,52,53
 364 833 364 833 321.5 788.5 c 128,-1,54
 279 744 279 744 279 682 c 0,55,56
 279 621 279 621 327.5 578 c 128,-1,57
 376 535 376 535 539 471 c 1,58,59
 619 498 619 498 663 543.5 c 128,-1,60
 707 589 707 589 707 645 c 0,61,62
 707 706 707 706 650 752.5 c 128,-1,63
 593 799 593 799 444 854 c 1,52,53
EndSplineSet
EndChar
StartChar: dieresis
Encoding: 168 168 168
Width: 1024
Flags: W
Fore
358 1585 m 1,0,-1
 596 1585 l 1,1,-1
 547 1339 l 1,2,-1
 311 1339 l 1,3,-1
 358 1585 l 1,0,-1
756 1585 m 1,4,-1
 991 1585 l 1,5,-1
 942 1339 l 1,6,-1
 707 1339 l 1,7,-1
 756 1585 l 1,4,-1
EndSplineSet
Ligature: 0 1 'liga' space uni0308
EndChar
StartChar: copyright
Encoding: 169 169 169
Width: 2048
Flags: W
Fore
1323 1126 m 1,0,-1
 1323 911 l 1,1,2
 1266 948 1266 948 1210.5 965.5 c 128,-1,3
 1155 983 1155 983 1098 983 c 0,4,5
 985 983 985 983 921.5 919 c 128,-1,6
 858 855 858 855 858 741 c 0,7,8
 858 626 858 626 921 563 c 128,-1,9
 984 500 984 500 1098 500 c 0,10,11
 1162 500 1162 500 1219.5 518 c 128,-1,12
 1277 536 1277 536 1323 571 c 1,13,-1
 1323 358 l 1,14,15
 1258 336 1258 336 1192.5 324.5 c 128,-1,16
 1127 313 1127 313 1065 313 c 0,17,18
 854 313 854 313 727 430 c 128,-1,19
 600 547 600 547 600 741 c 0,20,21
 600 936 600 936 727 1052.5 c 128,-1,22
 854 1169 854 1169 1065 1169 c 0,23,24
 1134 1169 1134 1169 1198 1158.5 c 128,-1,25
 1262 1148 1262 1148 1323 1126 c 1,0,-1
1024 1331 m 0,26,27
 903 1331 903 1331 799 1287.5 c 128,-1,28
 695 1244 695 1244 608 1157 c 0,29,30
 521 1070 521 1070 477.5 966.5 c 128,-1,31
 434 863 434 863 434 741 c 0,32,33
 434 620 434 620 477.5 516.5 c 128,-1,34
 521 413 521 413 608 326 c 0,35,36
 694 240 694 240 798.5 197 c 128,-1,37
 903 154 903 154 1024 154 c 0,38,39
 1147 154 1147 154 1250 196.5 c 128,-1,40
 1353 239 1353 239 1440 326 c 0,41,42
 1527 413 1527 413 1570.5 516.5 c 128,-1,43
 1614 620 1614 620 1614 741 c 0,44,45
 1614 863 1614 863 1570.5 966.5 c 128,-1,46
 1527 1070 1527 1070 1440 1157 c 0,47,48
 1352 1245 1352 1245 1248.5 1288 c 128,-1,49
 1145 1331 1145 1331 1024 1331 c 0,26,27
1024 1485 m 0,50,51
 1176 1485 1176 1485 1307.5 1430 c 128,-1,52
 1439 1375 1439 1375 1548 1266 c 0,53,54
 1657 1157 1657 1157 1711 1026 c 128,-1,55
 1765 895 1765 895 1765 741 c 0,56,57
 1765 589 1765 589 1711 458.5 c 128,-1,58
 1657 328 1657 328 1548 219 c 0,59,60
 1439 110 1439 110 1307.5 55 c 128,-1,61
 1176 0 1176 0 1024 0 c 0,62,63
 872 0 872 0 740.5 55 c 128,-1,64
 609 110 609 110 500 219 c 0,65,66
 391 328 391 328 337 458.5 c 128,-1,67
 283 589 283 589 283 741 c 0,68,69
 283 895 283 895 337 1026 c 128,-1,70
 391 1157 391 1157 500 1266 c 0,71,72
 609 1375 609 1375 740.5 1430 c 128,-1,73
 872 1485 872 1485 1024 1485 c 0,50,51
EndSplineSet
EndChar
StartChar: ordfeminine
Encoding: 170 170 170
Width: 1155
Flags: W
Fore
127 573 m 1,0,-1
 942 573 l 1,1,-1
 903 373 l 1,2,-1
 88 373 l 1,3,-1
 127 573 l 1,0,-1
692 1081 m 2,4,5
 544 1081 544 1081 488 1052.5 c 128,-1,6
 432 1024 432 1024 432 954 c 0,7,8
 432 910 432 910 463 884 c 128,-1,9
 494 858 494 858 547 858 c 0,10,11
 631 858 631 858 696 914.5 c 128,-1,12
 761 971 761 971 778 1059 c 1,13,-1
 782 1081 l 1,14,-1
 692 1081 l 2,4,5
1069 1165 m 1,15,-1
 983 717 l 1,16,-1
 735 717 l 1,17,-1
 760 842 l 1,18,19
 694 766 694 766 618.5 731 c 128,-1,20
 543 696 543 696 442 696 c 0,21,22
 317 696 317 696 247.5 751.5 c 128,-1,23
 178 807 178 807 178 907 c 0,24,25
 178 1062 178 1062 301.5 1140.5 c 128,-1,26
 425 1219 425 1219 668 1219 c 2,27,-1
 809 1219 l 1,28,-1
 813 1239 l 2,29,30
 814 1243 814 1243 814.5 1248 c 128,-1,31
 815 1253 815 1253 815 1264 c 0,32,33
 815 1308 815 1308 776.5 1331 c 128,-1,34
 738 1354 738 1354 662 1354 c 0,35,36
 574 1354 574 1354 487 1336.5 c 128,-1,37
 400 1319 400 1319 315 1284 c 1,38,-1
 350 1464 l 1,39,40
 448 1492 448 1492 535.5 1506 c 128,-1,41
 623 1520 623 1520 698 1520 c 0,42,43
 884 1520 884 1520 981.5 1456 c 128,-1,44
 1079 1392 1079 1392 1079 1270 c 0,45,46
 1079 1239 1079 1239 1076.5 1213.5 c 128,-1,47
 1074 1188 1074 1188 1069 1165 c 1,15,-1
EndSplineSet
EndChar
StartChar: guillemotleft
Encoding: 171 171 171
Width: 1331
Flags: W
Fore
1217 1063 m 1,0,-1
 1167 811 l 1,1,-1
 821 582 l 1,2,-1
 1079 360 l 1,3,-1
 1036 137 l 1,4,-1
 614 506 l 1,5,-1
 651 692 l 1,6,-1
 1217 1063 l 1,0,-1
727 1063 m 1,7,-1
 678 811 l 1,8,-1
 332 582 l 1,9,-1
 590 360 l 1,10,-1
 547 137 l 1,11,-1
 125 506 l 1,12,-1
 162 692 l 1,13,-1
 727 1063 l 1,7,-1
EndSplineSet
EndChar
StartChar: logicalnot
Encoding: 172 172 172
Width: 1716
Flags: W
Fore
217 909 m 1,0,-1
 1499 909 l 1,1,-1
 1499 287 l 1,2,-1
 1264 287 l 1,3,-1
 1264 672 l 1,4,-1
 217 672 l 1,5,-1
 217 909 l 1,0,-1
EndSplineSet
EndChar
StartChar: sfthyphen
Encoding: 173 173 173
Width: 850
Flags: W
Fore
109 735 m 1,0,-1
 737 735 l 1,1,-1
 680 444 l 1,2,-1
 51 444 l 1,3,-1
 109 735 l 1,0,-1
EndSplineSet
EndChar
StartChar: registered
Encoding: 174 174 174
Width: 2048
Flags: W
Fore
1024 1331 m 0,0,1
 903 1331 903 1331 799 1287.5 c 128,-1,2
 695 1244 695 1244 608 1157 c 0,3,4
 521 1070 521 1070 477.5 966.5 c 128,-1,5
 434 863 434 863 434 741 c 0,6,7
 434 620 434 620 477.5 516.5 c 128,-1,8
 521 413 521 413 608 326 c 0,9,10
 694 240 694 240 798.5 197 c 128,-1,11
 903 154 903 154 1024 154 c 0,12,13
 1147 154 1147 154 1250 196.5 c 128,-1,14
 1353 239 1353 239 1440 326 c 0,15,16
 1527 413 1527 413 1570.5 516.5 c 128,-1,17
 1614 620 1614 620 1614 741 c 0,18,19
 1614 863 1614 863 1570.5 966.5 c 128,-1,20
 1527 1070 1527 1070 1440 1157 c 0,21,22
 1352 1245 1352 1245 1248.5 1288 c 128,-1,23
 1145 1331 1145 1331 1024 1331 c 0,0,1
967 1036 m 2,24,-1
 932 1036 l 1,25,-1
 932 829 l 1,26,-1
 967 829 l 2,27,28
 1045 829 1045 829 1084.5 855.5 c 128,-1,29
 1124 882 1124 882 1124 934 c 0,30,31
 1124 986 1124 986 1085.5 1011 c 128,-1,32
 1047 1036 1047 1036 967 1036 c 2,24,-1
1004 1174 m 2,33,34
 1180 1174 1180 1174 1267 1114.5 c 128,-1,35
 1354 1055 1354 1055 1354 934 c 0,36,37
 1354 848 1354 848 1301.5 792 c 128,-1,38
 1249 736 1249 736 1153 719 c 1,39,40
 1194 697 1194 697 1229.5 657 c 128,-1,41
 1265 617 1265 617 1294 559 c 2,42,-1
 1405 338 l 1,43,-1
 1176 338 l 1,44,-1
 1069 551 l 1,45,46
 1031 629 1031 629 1002 661.5 c 128,-1,47
 973 694 973 694 944 694 c 2,48,-1
 932 694 l 1,49,-1
 932 338 l 1,50,-1
 719 338 l 1,51,-1
 719 1174 l 1,52,-1
 1004 1174 l 2,33,34
1024 1485 m 0,53,54
 1176 1485 1176 1485 1307.5 1430 c 128,-1,55
 1439 1375 1439 1375 1548 1266 c 0,56,57
 1657 1157 1657 1157 1711 1026 c 128,-1,58
 1765 895 1765 895 1765 741 c 0,59,60
 1765 589 1765 589 1711 458.5 c 128,-1,61
 1657 328 1657 328 1548 219 c 0,62,63
 1439 110 1439 110 1307.5 55 c 128,-1,64
 1176 0 1176 0 1024 0 c 0,65,66
 872 0 872 0 740.5 55 c 128,-1,67
 609 110 609 110 500 219 c 0,68,69
 391 328 391 328 337 458.5 c 128,-1,70
 283 589 283 589 283 741 c 0,71,72
 283 895 283 895 337 1026 c 128,-1,73
 391 1157 391 1157 500 1266 c 0,74,75
 609 1375 609 1375 740.5 1430 c 128,-1,76
 872 1485 872 1485 1024 1485 c 0,53,54
EndSplineSet
EndChar
StartChar: macron
Encoding: 175 175 175
Width: 1024
Flags: W
Fore
354 1556 m 1,0,-1
 985 1556 l 1,1,-1
 948 1368 l 1,2,-1
 317 1368 l 1,3,-1
 354 1556 l 1,0,-1
EndSplineSet
LCarets: 0 65535 '    ' 1 0 
Ligature: 0 1 'liga' space uni0304
EndChar
StartChar: degree
Encoding: 176 176 176
Width: 1024
Flags: W
Fore
512 1372 m 0,0,1
 440 1372 440 1372 390 1322 c 128,-1,2
 340 1272 340 1272 340 1200 c 0,3,4
 340 1128 340 1128 389.5 1079 c 128,-1,5
 439 1030 439 1030 512 1030 c 0,6,7
 584 1030 584 1030 634 1079.5 c 128,-1,8
 684 1129 684 1129 684 1200 c 0,9,10
 684 1272 684 1272 633.5 1322 c 128,-1,11
 583 1372 583 1372 512 1372 c 0,0,1
512 1534 m 0,12,13
 578 1534 578 1534 639 1508.5 c 128,-1,14
 700 1483 700 1483 748 1436 c 1,15,16
 795 1388 795 1388 819.5 1328 c 128,-1,17
 844 1268 844 1268 844 1200 c 0,18,19
 844 1133 844 1133 819.5 1072.5 c 128,-1,20
 795 1012 795 1012 750 967 c 0,21,22
 702 919 702 919 640 893.5 c 128,-1,23
 578 868 578 868 510 868 c 0,24,25
 369 868 369 868 273.5 963.5 c 128,-1,26
 178 1059 178 1059 178 1200 c 0,27,28
 178 1341 178 1341 274.5 1437.5 c 128,-1,29
 371 1534 371 1534 512 1534 c 0,12,13
EndSplineSet
EndChar
StartChar: plusminus
Encoding: 177 177 177
Width: 1716
Flags: W
Fore
977 1284 m 1,0,-1
 977 930 l 1,1,-1
 1499 930 l 1,2,-1
 1499 694 l 1,3,-1
 977 694 l 1,4,-1
 977 340 l 1,5,-1
 739 340 l 1,6,-1
 739 694 l 1,7,-1
 217 694 l 1,8,-1
 217 930 l 1,9,-1
 739 930 l 1,10,-1
 739 1284 l 1,11,-1
 977 1284 l 1,0,-1
217 238 m 1,12,-1
 1499 238 l 1,13,-1
 1499 0 l 1,14,-1
 217 0 l 1,15,-1
 217 238 l 1,12,-1
EndSplineSet
EndChar
StartChar: twosuperior
Encoding: 178 178 178
Width: 897
Flags: W
Fore
424 836 m 1,0,-1
 801 836 l 1,1,-1
 768 668 l 1,2,-1
 92 668 l 1,3,-1
 123 821 l 1,4,-1
 489 1087 l 2,5,6
 569 1145 569 1145 608 1194.5 c 128,-1,7
 647 1244 647 1244 647 1286 c 0,8,9
 647 1326 647 1326 614.5 1349 c 128,-1,10
 582 1372 582 1372 524 1372 c 0,11,12
 456 1372 456 1372 382.5 1349 c 128,-1,13
 309 1326 309 1326 238 1282 c 1,14,-1
 274 1468 l 1,15,16
 357 1494 357 1494 431.5 1507 c 128,-1,17
 506 1520 506 1520 575 1520 c 0,18,19
 724 1520 724 1520 803.5 1465.5 c 128,-1,20
 883 1411 883 1411 883 1311 c 0,21,22
 883 1232 883 1232 829 1157.5 c 128,-1,23
 775 1083 775 1083 655 999 c 2,24,-1
 424 836 l 1,0,-1
EndSplineSet
EndChar
StartChar: threesuperior
Encoding: 179 179 179
Width: 897
Flags: W
Fore
666 1120 m 1,0,1
 741 1107 741 1107 780 1060.5 c 128,-1,2
 819 1014 819 1014 819 938 c 0,3,4
 819 801 819 801 702 727 c 128,-1,5
 585 653 585 653 369 653 c 0,6,7
 289 653 289 653 216.5 665 c 128,-1,8
 144 677 144 677 82 700 c 1,9,-1
 115 872 l 1,10,11
 173 836 173 836 232.5 817.5 c 128,-1,12
 292 799 292 799 352 799 c 0,13,14
 461 799 461 799 522.5 837 c 128,-1,15
 584 875 584 875 584 942 c 0,16,17
 584 996 584 996 534.5 1021.5 c 128,-1,18
 485 1047 485 1047 381 1047 c 2,19,-1
 305 1047 l 1,20,-1
 332 1184 l 1,21,-1
 418 1184 l 2,22,23
 524 1184 524 1184 580.5 1213 c 128,-1,24
 637 1242 637 1242 637 1296 c 0,25,26
 637 1334 637 1334 599 1353 c 128,-1,27
 561 1372 561 1372 487 1372 c 0,28,29
 433 1372 433 1372 369.5 1359 c 128,-1,30
 306 1346 306 1346 229 1319 c 1,31,-1
 260 1485 l 1,32,33
 332 1502 332 1502 406 1511 c 128,-1,34
 480 1520 480 1520 553 1520 c 0,35,36
 708 1520 708 1520 791 1470 c 128,-1,37
 874 1420 874 1420 874 1327 c 0,38,39
 874 1246 874 1246 817.5 1190 c 128,-1,40
 761 1134 761 1134 666 1120 c 1,0,1
EndSplineSet
EndChar
StartChar: acute
Encoding: 180 180 180
Width: 1024
Flags: W
Fore
811 1638 m 1,0,-1
 1104 1638 l 1,1,-1
 666 1262 l 1,2,-1
 465 1262 l 1,3,-1
 811 1638 l 1,0,-1
EndSplineSet
LCarets: 0 65535 '    ' 1 0 
Ligature: 0 1 'liga' space acutecomb
EndChar
StartChar: mu
Encoding: 181 181 181
Width: 1507
Flags: W
Fore
-55 -428 m 1,0,-1
 246 1120 l 1,1,-1
 606 1120 l 1,2,-1
 479 469 l 2,3,4
 475 448 475 448 473 428 c 128,-1,5
 471 408 471 408 471 391 c 0,6,7
 471 318 471 318 514 279 c 128,-1,8
 557 240 557 240 639 240 c 0,9,10
 741 240 741 240 801 296 c 128,-1,11
 861 352 861 352 885 469 c 1,12,-1
 1012 1120 l 1,13,-1
 1372 1120 l 1,14,-1
 1227 371 l 2,15,16
 1223 350 1223 350 1221 332.5 c 128,-1,17
 1219 315 1219 315 1219 301 c 0,18,19
 1219 272 1219 272 1232.5 258 c 128,-1,20
 1246 244 1246 244 1274 244 c 0,21,22
 1291 244 1291 244 1310.5 249.5 c 128,-1,23
 1330 255 1330 255 1350 266 c 1,24,-1
 1300 16 l 1,25,26
 1243 -7 1243 -7 1194 -18 c 128,-1,27
 1145 -29 1145 -29 1100 -29 c 0,28,29
 1012 -29 1012 -29 962.5 9 c 128,-1,30
 913 47 913 47 893 129 c 1,31,32
 831 50 831 50 755.5 10.5 c 128,-1,33
 680 -29 680 -29 592 -29 c 0,34,35
 518 -29 518 -29 471.5 -5.5 c 128,-1,36
 425 18 425 18 403 66 c 1,37,-1
 307 -428 l 1,38,-1
 -55 -428 l 1,0,-1
EndSplineSet
EndChar
StartChar: paragraph
Encoding: 182 182 182
Width: 1303
Flags: W
Fore
715 1493 m 2,0,-1
 1235 1493 l 1,1,-1
 907 -197 l 1,2,-1
 717 -197 l 1,3,-1
 1016 1346 l 1,4,-1
 827 1346 l 1,5,-1
 526 -197 l 1,6,-1
 338 -197 l 1,7,-1
 502 649 l 1,8,9
 334 669 334 669 243 761 c 128,-1,10
 152 853 152 853 152 1001 c 0,11,12
 152 1216 152 1216 308.5 1354.5 c 128,-1,13
 465 1493 465 1493 715 1493 c 2,0,-1
EndSplineSet
EndChar
StartChar: periodcentered
Encoding: 183 183 183
Width: 778
Flags: W
Fore
248 905 m 1,0,-1
 608 905 l 1,1,-1
 532 518 l 1,2,-1
 172 518 l 1,3,-1
 248 905 l 1,0,-1
EndSplineSet
EndChar
StartChar: cedilla
Encoding: 184 184 184
Width: 1024
Flags: W
Fore
459 0 m 1,0,1
 496 -52 496 -52 513 -96 c 128,-1,2
 530 -140 530 -140 530 -182 c 0,3,4
 530 -286 530 -286 454.5 -343.5 c 128,-1,5
 379 -401 379 -401 242 -401 c 0,6,7
 193 -401 193 -401 144.5 -394.5 c 128,-1,8
 96 -388 96 -388 45 -375 c 1,9,-1
 74 -219 l 1,10,11
 114 -236 114 -236 154.5 -245 c 128,-1,12
 195 -254 195 -254 233 -254 c 0,13,14
 299 -254 299 -254 337 -225.5 c 128,-1,15
 375 -197 375 -197 375 -150 c 0,16,17
 375 -124 375 -124 361.5 -89.5 c 128,-1,18
 348 -55 348 -55 317 0 c 1,19,-1
 459 0 l 1,0,1
EndSplineSet
Ligature: 0 1 'liga' space uni0327
EndChar
StartChar: onesuperior
Encoding: 185 185 185
Width: 897
Flags: W
Fore
168 825 m 1,0,-1
 373 825 l 1,1,-1
 475 1346 l 1,2,-1
 242 1294 l 1,3,-1
 272 1454 l 1,4,-1
 516 1503 l 1,5,-1
 735 1503 l 1,6,-1
 602 825 l 1,7,-1
 809 825 l 1,8,-1
 778 668 l 1,9,-1
 137 668 l 1,10,-1
 168 825 l 1,0,-1
EndSplineSet
EndChar
StartChar: ordmasculine
Encoding: 186 186 186
Width: 1155
Flags: W
Fore
719 1520 m 0,0,1
 902 1520 902 1520 1009 1429.5 c 128,-1,2
 1116 1339 1116 1339 1116 1186 c 0,3,4
 1116 967 1116 967 968.5 832.5 c 128,-1,5
 821 698 821 698 578 698 c 0,6,7
 396 698 396 698 287 789.5 c 128,-1,8
 178 881 178 881 178 1032 c 0,9,10
 178 1249 178 1249 327 1384.5 c 128,-1,11
 476 1520 476 1520 719 1520 c 0,0,1
133 573 m 1,12,-1
 956 573 l 1,13,-1
 918 373 l 1,14,-1
 94 373 l 1,15,-1
 133 573 l 1,12,-1
694 1350 m 0,16,17
 595 1350 595 1350 530 1257.5 c 128,-1,18
 465 1165 465 1165 465 1024 c 0,19,20
 465 948 465 948 500 908 c 128,-1,21
 535 868 535 868 602 868 c 0,22,23
 701 868 701 868 766 960 c 128,-1,24
 831 1052 831 1052 831 1194 c 0,25,26
 831 1269 831 1269 795.5 1309.5 c 128,-1,27
 760 1350 760 1350 694 1350 c 0,16,17
EndSplineSet
EndChar
StartChar: guillemotright
Encoding: 187 187 187
Width: 1331
Flags: W
Fore
117 135 m 1,0,-1
 166 389 l 1,1,-1
 510 618 l 1,2,-1
 254 840 l 1,3,-1
 297 1063 l 1,4,-1
 717 692 l 1,5,-1
 682 506 l 1,6,-1
 117 135 l 1,0,-1
606 135 m 1,7,-1
 655 389 l 1,8,-1
 999 618 l 1,9,-1
 741 840 l 1,10,-1
 786 1063 l 1,11,-1
 1206 692 l 1,12,-1
 1171 506 l 1,13,-1
 606 135 l 1,7,-1
EndSplineSet
EndChar
StartChar: questiondown
Encoding: 191 191 191
Width: 1188
Flags: W
Fore
541 989 m 1,0,-1
 901 989 l 1,1,-1
 891 938 l 1,2,3
 876 858 876 858 833 796.5 c 128,-1,4
 790 735 790 735 659 633 c 1,5,-1
 584 573 l 1,6,7
 504 512 504 512 469 460 c 128,-1,8
 434 408 434 408 434 354 c 0,9,10
 434 297 434 297 474 266.5 c 128,-1,11
 514 236 514 236 590 236 c 0,12,13
 670 236 670 236 771.5 270 c 128,-1,14
 873 304 873 304 987 369 c 1,15,-1
 926 55 l 1,16,17
 799 13 799 13 693.5 -7 c 128,-1,18
 588 -27 588 -27 492 -27 c 0,19,20
 297 -27 297 -27 186.5 58.5 c 128,-1,21
 76 144 76 144 76 293 c 0,22,23
 76 412 76 412 129 506 c 128,-1,24
 182 600 182 600 309 702 c 2,25,-1
 385 762 l 2,26,27
 468 827 468 827 496 864.5 c 128,-1,28
 524 902 524 902 532 944 c 1,29,-1
 541 989 l 1,0,-1
930 1137 m 1,30,-1
 569 1137 l 1,31,-1
 639 1493 l 1,32,-1
 999 1493 l 1,33,-1
 930 1137 l 1,30,-1
EndSplineSet
EndChar
StartChar: Aring
Encoding: 197 197 197
Width: 1585
Flags: W
Fore
795 1616 m 0,0,1
 795 1562 795 1562 833.5 1523.5 c 128,-1,2
 872 1485 872 1485 926 1485 c 0,3,4
 980 1485 980 1485 1018.5 1523.5 c 128,-1,5
 1057 1562 1057 1562 1057 1616 c 0,6,7
 1057 1670 1057 1670 1018 1708.5 c 128,-1,8
 979 1747 979 1747 926 1747 c 0,9,10
 872 1747 872 1747 833.5 1708.5 c 128,-1,11
 795 1670 795 1670 795 1616 c 0,0,1
1155 1456 m 1,12,-1
 1415 0 l 1,13,-1
 1049 0 l 1,14,-1
 1006 272 l 1,15,-1
 410 272 l 1,16,-1
 262 0 l 1,17,-1
 -133 0 l 1,18,-1
 692 1458 l 1,19,20
 666 1495 666 1495 653.5 1533.5 c 128,-1,21
 641 1572 641 1572 641 1616 c 0,22,23
 641 1733 641 1733 724.5 1817 c 128,-1,24
 808 1901 808 1901 926 1901 c 0,25,26
 1043 1901 1043 1901 1126.5 1817 c 128,-1,27
 1210 1733 1210 1733 1210 1616 c 0,28,29
 1210 1568 1210 1568 1197 1529.5 c 128,-1,30
 1184 1491 1184 1491 1155 1456 c 1,12,-1
555 543 m 1,31,-1
 956 543 l 1,32,-1
 866 1118 l 1,33,-1
 555 543 l 1,31,-1
EndSplineSet
Ligature: 0 0 'liga' A uni030A
EndChar
StartChar: AE
Encoding: 198 198 198
Width: 2222
Flags: W
Fore
985 1237 m 1,0,-1
 610 627 l 1,1,-1
 987 627 l 1,2,-1
 1106 1237 l 1,3,-1
 985 1237 l 1,0,-1
774 1493 m 1,4,-1
 2195 1493 l 1,5,-1
 2138 1202 l 1,6,-1
 1485 1202 l 1,7,-1
 1432 924 l 1,8,-1
 2046 924 l 1,9,-1
 1989 633 l 1,10,-1
 1374 633 l 1,11,-1
 1309 291 l 1,12,-1
 1982 291 l 1,13,-1
 1927 0 l 1,14,-1
 866 0 l 1,15,-1
 934 350 l 1,16,-1
 442 350 l 1,17,-1
 225 0 l 1,18,-1
 -160 0 l 1,19,-1
 774 1493 l 1,4,-1
EndSplineSet
KernsSLIFO: 45 -36 0 0
EndChar
StartChar: Eth
Encoding: 208 208 208
Width: 1731
Flags: W
Fore
696 1202 m 1,0,-1
 639 903 l 1,1,-1
 885 903 l 1,2,-1
 834 643 l 1,3,-1
 588 643 l 1,4,-1
 518 291 l 1,5,-1
 655 291 l 2,6,7
 926 291 926 291 1083.5 442.5 c 128,-1,8
 1241 594 1241 594 1241 850 c 0,9,10
 1241 1024 1241 1024 1137.5 1113 c 128,-1,11
 1034 1202 1034 1202 831 1202 c 2,12,-1
 696 1202 l 1,0,-1
367 1493 m 1,13,-1
 772 1493 l 2,14,15
 1062 1493 1062 1493 1207 1458.5 c 128,-1,16
 1352 1424 1352 1424 1448 1343 c 0,17,18
 1545 1262 1545 1262 1595 1146 c 128,-1,19
 1645 1030 1645 1030 1645 885 c 0,20,21
 1645 684 1645 684 1560.5 504 c 128,-1,22
 1476 324 1476 324 1325 201 c 0,23,24
 1193 92 1193 92 1018.5 46 c 128,-1,25
 844 0 844 0 481 0 c 2,26,-1
 76 0 l 1,27,-1
 201 643 l 1,28,-1
 -4 643 l 1,29,-1
 47 903 l 1,30,-1
 252 903 l 1,31,-1
 367 1493 l 1,13,-1
EndSplineSet
KernsSLIFO: 7922 -159 0 0 562 -159 0 0 374 -159 0 0 221 -159 0 0 8222 -36 0 0 8218 -36 0 0 376 -159 0 0 89 -159 0 0 45 38 0 0
EndChar
StartChar: multiply
Encoding: 215 215 215
Width: 1716
Flags: W
Fore
1460 1075 m 1,0,-1
 1026 641 l 1,1,-1
 1460 209 l 1,2,-1
 1292 41 l 1,3,-1
 858 473 l 1,4,-1
 424 41 l 1,5,-1
 256 209 l 1,6,-1
 690 641 l 1,7,-1
 256 1075 l 1,8,-1
 424 1243 l 1,9,-1
 858 809 l 1,10,-1
 1292 1243 l 1,11,-1
 1460 1075 l 1,0,-1
EndSplineSet
EndChar
StartChar: Oslash
Encoding: 216 216 216
Width: 1741
Flags: W
AnchorPoint: "above" 1057 1520 basechar 0
Fore
1196 1128 m 1,0,1
 1156 1185 1156 1185 1095 1213 c 128,-1,2
 1034 1241 1034 1241 952 1241 c 0,3,4
 750 1241 750 1241 615.5 1062.5 c 128,-1,5
 481 884 481 884 481 612 c 0,6,7
 481 590 481 590 485 538 c 0,8,9
 485 532 l 1,10,-1
 1196 1128 l 1,0,1
158 258 m 1,11,12
 116 332 116 332 95 410.5 c 128,-1,13
 74 489 74 489 74 569 c 0,14,15
 74 752 74 752 129 914 c 128,-1,16
 184 1076 184 1076 291 1206 c 0,17,18
 420 1365 420 1365 596.5 1442.5 c 128,-1,19
 773 1520 773 1520 1006 1520 c 0,20,21
 1154 1520 1154 1520 1270.5 1481 c 128,-1,22
 1387 1442 1387 1442 1475 1364 c 1,23,-1
 1733 1579 l 1,24,-1
 1835 1456 l 1,25,-1
 1577 1243 l 1,26,27
 1622 1167 1622 1167 1644.5 1086 c 128,-1,28
 1667 1005 1667 1005 1667 920 c 0,29,30
 1667 738 1667 738 1611.5 576 c 128,-1,31
 1556 414 1556 414 1450 285 c 0,32,33
 1320 127 1320 127 1142 49 c 128,-1,34
 964 -29 964 -29 733 -29 c 0,35,36
 586 -29 586 -29 468 12 c 128,-1,37
 350 53 350 53 258 135 c 1,38,-1
 6 -78 l 1,39,-1
 -96 45 l 1,40,-1
 158 258 l 1,11,12
539 371 m 1,41,42
 578 312 578 312 639 281 c 128,-1,43
 700 250 700 250 778 250 c 0,44,45
 893 250 893 250 982.5 298.5 c 128,-1,46
 1072 347 1072 347 1135 442 c 0,47,48
 1195 534 1195 534 1228.5 648.5 c 128,-1,49
 1262 763 1262 763 1262 879 c 0,50,51
 1262 904 1262 904 1255 957 c 0,52,53
 1254 965 1254 965 1253 969 c 1,54,-1
 539 371 l 1,41,42
EndSplineSet
KernsSLIFO: 221 -36 0 0 193 -36 0 0 194 -36 0 0 376 -36 0 0 195 -36 0 0 192 -36 0 0 196 -36 0 0 89 -36 0 0 88 -73 0 0 86 -36 0 0 65 -36 0 0 46 -45 0 0 45 38 0 0 44 -45 0 0
EndChar
StartChar: Thorn
Encoding: 222 222 222
Width: 1520
Flags: W
Fore
334 1493 m 1,0,-1
 719 1493 l 1,1,-1
 676 1270 l 1,2,-1
 922 1270 l 2,3,4
 1157 1270 1157 1270 1290 1162.5 c 128,-1,5
 1423 1055 1423 1055 1423 864 c 0,6,7
 1423 747 1423 747 1379.5 642.5 c 128,-1,8
 1336 538 1336 538 1253 459 c 0,9,10
 1164 373 1164 373 1039.5 334 c 128,-1,11
 915 295 915 295 731 295 c 2,12,-1
 485 295 l 1,13,-1
 428 0 l 1,14,-1
 43 0 l 1,15,-1
 334 1493 l 1,0,-1
621 993 m 1,16,-1
 541 573 l 1,17,-1
 745 573 l 2,18,19
 881 573 881 573 953.5 638 c 128,-1,20
 1026 703 1026 703 1026 825 c 0,21,22
 1026 907 1026 907 975.5 950 c 128,-1,23
 925 993 925 993 827 993 c 2,24,-1
 621 993 l 1,16,-1
EndSplineSet
EndChar
StartChar: germandbls
Encoding: 223 223 223
Width: 1473
Flags: W
Fore
279 1114 m 1,0,1
 321 1338 321 1338 475.5 1447 c 128,-1,2
 630 1556 630 1556 903 1556 c 0,3,4
 1129 1556 1129 1556 1246.5 1468 c 128,-1,5
 1364 1380 1364 1380 1364 1210 c 0,6,7
 1364 1190 1364 1190 1361.5 1166 c 128,-1,8
 1359 1142 1359 1142 1354 1115 c 1,9,-1
 1339 1042 l 1,10,11
 1188 1037 1188 1037 1099 990.5 c 128,-1,12
 1010 944 1010 944 1010 872 c 0,13,14
 1010 817 1010 817 1112 745 c 0,15,16
 1121 739 1121 739 1127 735 c 2,17,-1
 1188 692 l 2,18,19
 1272 633 1272 633 1311 563.5 c 128,-1,20
 1350 494 1350 494 1350 403 c 0,21,22
 1350 210 1350 210 1211 90.5 c 128,-1,23
 1072 -29 1072 -29 844 -29 c 0,24,25
 766 -29 766 -29 690.5 -16.5 c 128,-1,26
 615 -4 615 -4 541 20 c 1,27,-1
 590 264 l 1,28,29
 646 237 646 237 701.5 223 c 128,-1,30
 757 209 757 209 809 209 c 0,31,32
 891 209 891 209 941 247 c 128,-1,33
 991 285 991 285 991 346 c 0,34,35
 991 386 991 386 968 418.5 c 128,-1,36
 945 451 945 451 868 506 c 2,37,-1
 807 549 l 2,38,39
 740 596 740 596 710 646.5 c 128,-1,40
 680 697 680 697 680 760 c 0,41,42
 680 898 680 898 771.5 997 c 128,-1,43
 863 1096 863 1096 1036 1145 c 1,44,45
 1037 1151 1037 1151 1037.5 1159 c 128,-1,46
 1038 1167 1038 1167 1038 1182 c 0,47,48
 1038 1249 1038 1249 997 1284 c 128,-1,49
 956 1319 956 1319 877 1319 c 0,50,51
 775 1319 775 1319 716.5 1265.5 c 128,-1,52
 658 1212 658 1212 637 1100 c 1,53,-1
 422 0 l 1,54,-1
 63 0 l 1,55,-1
 279 1114 l 1,0,1
EndSplineSet
EndChar
StartChar: ae
Encoding: 230 230 230
Width: 2146
Flags: W
AnchorPoint: "above" 1177.3 1147 basechar 0
AnchorPoint: "below" 954.342 0 basechar 0
Fore
674 504 m 2,0,1
 540 504 540 504 471.5 462.5 c 128,-1,2
 403 421 403 421 403 340 c 0,3,4
 403 279 403 279 443.5 244 c 128,-1,5
 484 209 484 209 555 209 c 0,6,7
 665 209 665 209 739 275.5 c 128,-1,8
 813 342 813 342 838 463 c 1,9,-1
 846 504 l 1,10,-1
 674 504 l 2,0,1
291 1090 m 1,11,12
 408 1118 408 1118 519.5 1132.5 c 128,-1,13
 631 1147 631 1147 735 1147 c 0,14,15
 884 1147 884 1147 982 1110.5 c 128,-1,16
 1080 1074 1080 1074 1137 997 c 1,17,18
 1232 1074 1232 1074 1338.5 1110.5 c 128,-1,19
 1445 1147 1445 1147 1575 1147 c 0,20,21
 1798 1147 1798 1147 1931 1025 c 128,-1,22
 2064 903 2064 903 2064 702 c 0,23,24
 2064 657 2064 657 2059 611 c 128,-1,25
 2054 565 2054 565 2044 518 c 1,26,-1
 2030 461 l 1,27,-1
 1194 461 l 1,28,29
 1194 455 1194 455 1193 443.5 c 128,-1,30
 1192 432 1192 432 1192 426 c 0,31,32
 1192 317 1192 317 1257.5 263 c 128,-1,33
 1323 209 1323 209 1454 209 c 0,34,35
 1566 209 1566 209 1690.5 242.5 c 128,-1,36
 1815 276 1815 276 1954 344 c 1,37,-1
 1901 66 l 1,38,39
 1770 18 1770 18 1639.5 -5.5 c 128,-1,40
 1509 -29 1509 -29 1374 -29 c 0,41,42
 1201 -29 1201 -29 1083 22.5 c 128,-1,43
 965 74 965 74 899 178 c 1,44,45
 782 73 782 73 658.5 22 c 128,-1,46
 535 -29 535 -29 397 -29 c 0,47,48
 227 -29 227 -29 131 52 c 128,-1,49
 35 133 35 133 35 274 c 0,50,51
 35 490 35 490 200.5 603.5 c 128,-1,52
 366 717 366 717 682 717 c 2,53,-1
 887 717 l 1,54,-1
 893 746 l 1,55,56
 896 759 896 759 896.5 765 c 128,-1,57
 897 771 897 771 897 776 c 0,58,59
 897 842 897 842 835 875.5 c 128,-1,60
 773 909 773 909 653 909 c 0,61,62
 539 909 539 909 435.5 886 c 128,-1,63
 332 863 332 863 238 817 c 1,64,-1
 291 1090 l 1,11,12
1706 682 m 1,65,66
 1709 695 1709 695 1710.5 708.5 c 128,-1,67
 1712 722 1712 722 1712 735 c 0,68,69
 1712 815 1712 815 1663.5 862 c 128,-1,70
 1615 909 1615 909 1534 909 c 0,71,72
 1429 909 1429 909 1354.5 851 c 128,-1,73
 1280 793 1280 793 1243 682 c 1,74,-1
 1706 682 l 1,65,66
EndSplineSet
EndChar
StartChar: eth
Encoding: 240 240 240
Width: 1407
Flags: W
AnchorPoint: "below" 556.591 0 basechar 0
AnchorPoint: "above" 852.049 1520 basechar 0
Fore
958 743 m 1,0,1
 906 770 906 770 855 783.5 c 128,-1,2
 804 797 804 797 752 797 c 0,3,4
 612 797 612 797 530.5 703 c 128,-1,5
 449 609 449 609 449 451 c 0,6,7
 449 342 449 342 499 284.5 c 128,-1,8
 549 227 549 227 643 227 c 0,9,10
 783 227 783 227 873 353.5 c 128,-1,11
 963 480 963 480 963 678 c 0,12,13
 963 691 963 691 959 731 c 0,14,15
 959 738 959 738 958 743 c 1,0,1
1204 1100 m 2,16,17
 1268 1008 1268 1008 1300.5 902 c 128,-1,18
 1333 796 1333 796 1333 680 c 0,19,20
 1333 550 1333 550 1287.5 428.5 c 128,-1,21
 1242 307 1242 307 1155 207 c 0,22,23
 1054 91 1054 91 914.5 31 c 128,-1,24
 775 -29 775 -29 604 -29 c 0,25,26
 363 -29 363 -29 218.5 96 c 128,-1,27
 74 221 74 221 74 426 c 0,28,29
 74 706 74 706 256 880.5 c 128,-1,30
 438 1055 438 1055 731 1055 c 0,31,32
 780 1055 780 1055 823.5 1048 c 128,-1,33
 867 1041 867 1041 903 1028 c 1,34,-1
 752 1243 l 1,35,-1
 367 1135 l 1,36,-1
 332 1264 l 1,37,-1
 672 1358 l 1,38,-1
 535 1556 l 1,39,-1
 887 1556 l 1,40,-1
 969 1440 l 1,41,-1
 1354 1546 l 1,42,-1
 1389 1419 l 1,43,-1
 1049 1325 l 1,44,-1
 1204 1100 l 2,16,17
EndSplineSet
EndChar
StartChar: divide
Encoding: 247 247 247
Width: 1716
Flags: W
Fore
705 395 m 1,0,-1
 1012 395 l 1,1,-1
 1012 86 l 1,2,-1
 705 86 l 1,3,-1
 705 395 l 1,0,-1
705 1198 m 1,4,-1
 1012 1198 l 1,5,-1
 1012 889 l 1,6,-1
 705 889 l 1,7,-1
 705 1198 l 1,4,-1
217 760 m 1,8,-1
 1499 760 l 1,9,-1
 1499 524 l 1,10,-1
 217 524 l 1,11,-1
 217 760 l 1,8,-1
EndSplineSet
EndChar
StartChar: oslash
Encoding: 248 248 248
Width: 1407
Flags: W
AnchorPoint: "above" 819.004 1147 basechar 0
AnchorPoint: "below" 596.05 0 basechar 0
Fore
905 842 m 1,0,1
 882 866 882 866 847.5 878.5 c 128,-1,2
 813 891 813 891 768 891 c 0,3,4
 628 891 628 891 543.5 771.5 c 128,-1,5
 459 652 459 652 449 438 c 1,6,-1
 905 842 l 1,0,1
152 174 m 1,7,8
 113 233 113 233 93.5 301.5 c 128,-1,9
 74 370 74 370 74 446 c 0,10,11
 74 572 74 572 119.5 691.5 c 128,-1,12
 165 811 165 811 252 911 c 0,13,14
 352 1028 352 1028 490.5 1087.5 c 128,-1,15
 629 1147 629 1147 801 1147 c 0,16,17
 905 1147 905 1147 991 1124 c 128,-1,18
 1077 1101 1077 1101 1145 1055 c 1,19,-1
 1337 1223 l 1,20,-1
 1434 1112 l 1,21,-1
 1251 950 l 1,22,23
 1292 891 1292 891 1312.5 822 c 128,-1,24
 1333 753 1333 753 1333 674 c 0,25,26
 1333 547 1333 547 1288 427.5 c 128,-1,27
 1243 308 1243 308 1157 209 c 0,28,29
 1056 93 1056 93 915.5 32 c 128,-1,30
 775 -29 775 -29 606 -29 c 0,31,32
 497 -29 497 -29 409.5 -4.5 c 128,-1,33
 322 20 322 20 254 70 c 1,34,-1
 61 -102 l 1,35,-1
 -35 10 l 1,36,-1
 152 174 l 1,7,8
498 283 m 1,37,38
 523 255 523 255 557.5 241 c 128,-1,39
 592 227 592 227 639 227 c 0,40,41
 780 227 780 227 865.5 351 c 128,-1,42
 951 475 951 475 958 692 c 1,43,-1
 498 283 l 1,37,38
EndSplineSet
EndChar
StartChar: thorn
Encoding: 254 254 254
Width: 1466
Flags: W
Fore
455 162 m 1,0,-1
 340 -426 l 1,1,-1
 -20 -426 l 1,2,-1
 365 1556 l 1,3,-1
 725 1556 l 1,4,-1
 608 956 l 1,5,6
 690 1054 690 1054 780 1100.5 c 128,-1,7
 870 1147 870 1147 977 1147 c 0,8,9
 1166 1147 1166 1147 1276 1027 c 128,-1,10
 1386 907 1386 907 1386 700 c 0,11,12
 1386 571 1386 571 1347.5 449 c 128,-1,13
 1309 327 1309 327 1237 227 c 0,14,15
 1146 101 1146 101 1031.5 36 c 128,-1,16
 917 -29 917 -29 786 -29 c 0,17,18
 671 -29 671 -29 590.5 17.5 c 128,-1,19
 510 64 510 64 455 162 c 1,0,-1
831 887 m 0,20,21
 693 887 693 887 605.5 759.5 c 128,-1,22
 518 632 518 632 518 428 c 0,23,24
 518 336 518 336 567.5 283.5 c 128,-1,25
 617 231 617 231 705 231 c 0,26,27
 840 231 840 231 928 356.5 c 128,-1,28
 1016 482 1016 482 1016 678 c 0,29,30
 1016 780 1016 780 968.5 833.5 c 128,-1,31
 921 887 921 887 831 887 c 0,20,21
EndSplineSet
EndChar
StartChar: Dcroat
Encoding: 272 272 272
Width: 1731
Flags: W
Fore
696 1202 m 1,0,-1
 639 903 l 1,1,-1
 885 903 l 1,2,-1
 834 643 l 1,3,-1
 588 643 l 1,4,-1
 518 291 l 1,5,-1
 655 291 l 2,6,7
 926 291 926 291 1083.5 442.5 c 128,-1,8
 1241 594 1241 594 1241 850 c 0,9,10
 1241 1024 1241 1024 1137.5 1113 c 128,-1,11
 1034 1202 1034 1202 831 1202 c 2,12,-1
 696 1202 l 1,0,-1
367 1493 m 1,13,-1
 772 1493 l 2,14,15
 1062 1493 1062 1493 1207 1458.5 c 128,-1,16
 1352 1424 1352 1424 1448 1343 c 0,17,18
 1545 1262 1545 1262 1595 1146 c 128,-1,19
 1645 1030 1645 1030 1645 885 c 0,20,21
 1645 684 1645 684 1560.5 504 c 128,-1,22
 1476 324 1476 324 1325 201 c 0,23,24
 1193 92 1193 92 1018.5 46 c 128,-1,25
 844 0 844 0 481 0 c 2,26,-1
 76 0 l 1,27,-1
 201 643 l 1,28,-1
 -4 643 l 1,29,-1
 47 903 l 1,30,-1
 252 903 l 1,31,-1
 367 1493 l 1,13,-1
EndSplineSet
KernsSLIFO: 7922 -159 0 0 562 -159 0 0 374 -159 0 0 221 -159 0 0 8222 -36 0 0 8218 -36 0 0 376 -159 0 0 89 -159 0 0 45 38 0 0
EndChar
StartChar: dcroat
Encoding: 273 273 273
Width: 1466
Flags: W
Fore
629 231 m 0,0,1
 767 231 767 231 853.5 358 c 128,-1,2
 940 485 940 485 940 690 c 0,3,4
 940 783 940 783 891.5 835 c 128,-1,5
 843 887 843 887 756 887 c 0,6,7
 620 887 620 887 532 761.5 c 128,-1,8
 444 636 444 636 444 440 c 0,9,10
 444 338 444 338 491.5 284.5 c 128,-1,11
 539 231 539 231 629 231 c 0,0,1
1006 956 m 1,12,-1
 1063 1251 l 1,13,-1
 668 1251 l 1,14,-1
 705 1440 l 1,15,-1
 1100 1440 l 1,16,-1
 1122 1556 l 1,17,-1
 1483 1556 l 1,18,-1
 1460 1440 l 1,19,-1
 1673 1440 l 1,20,-1
 1636 1251 l 1,21,-1
 1423 1251 l 1,22,-1
 1180 0 l 1,23,-1
 819 0 l 1,24,-1
 852 162 l 1,25,26
 770 64 770 64 680 17.5 c 128,-1,27
 590 -29 590 -29 483 -29 c 0,28,29
 294 -29 294 -29 184 91 c 128,-1,30
 74 211 74 211 74 418 c 0,31,32
 74 547 74 547 112.5 669 c 128,-1,33
 151 791 151 791 223 891 c 0,34,35
 314 1017 314 1017 428.5 1082 c 128,-1,36
 543 1147 543 1147 674 1147 c 0,37,38
 789 1147 789 1147 869.5 1100.5 c 128,-1,39
 950 1054 950 1054 1006 956 c 1,12,-1
EndSplineSet
EndChar
StartChar: Hbar
Encoding: 294 294 294
Width: 1994
Flags: W
AnchorPoint: "above" 1181 1520 basechar 0
Fore
473 1493 m 1,0,-1
 858 1493 l 1,1,-1
 822 1306 l 1,2,-1
 1390 1306 l 1,3,-1
 1426 1493 l 1,4,-1
 1811 1493 l 1,5,-1
 1775 1306 l 1,6,-1
 1915 1306 l 1,7,-1
 1877 1112 l 1,8,-1
 1737 1112 l 1,9,-1
 1521 0 l 1,10,-1
 1136 0 l 1,11,-1
 1259 633 l 1,12,-1
 691 633 l 1,13,-1
 568 0 l 1,14,-1
 183 0 l 1,15,-1
 399 1112 l 1,16,-1
 259 1112 l 1,17,-1
 297 1306 l 1,18,-1
 437 1306 l 1,19,-1
 473 1493 l 1,0,-1
784 1112 m 1,20,-1
 748 924 l 1,21,-1
 1316 924 l 1,22,-1
 1352 1112 l 1,23,-1
 784 1112 l 1,20,-1
EndSplineSet
EndChar
StartChar: hbar
Encoding: 295 295 295
Width: 1618
Flags: W
AnchorPoint: "above" 677 1520 basechar 0
Fore
1433.5 682 m 2,0,-1
 1301 0 l 1,1,-1
 941 0 l 1,2,-1
 1042 520 l 18,3,4
 1069.5 662 1069.5 662 1074.5 722 c 0,5,6
 1075.5 737 1075.5 737 1075.5 750 c 0,7,8
 1075.5 784 1075.5 784 1067.5 803 c 0,9,10
 1053.5 838 1053.5 838 1021.5 857.5 c 0,11,12
 990 877 990 877 943 877 c 0,13,14
 831 877 831 877 750.5 790.5 c 128,-1,15
 670 704 670 704 640 551 c 9,16,-1
 533 0 l 1,17,-1
 175 0 l 1,18,-1
 419 1255 l 1,19,-1
 259 1255 l 1,20,-1
 296 1449 l 1,21,-1
 456 1449 l 1,22,-1
 477 1556 l 1,23,-1
 835 1556 l 1,24,-1
 814 1449 l 1,25,-1
 1177 1449 l 1,26,-1
 1140 1255 l 1,27,-1
 777 1255 l 1,28,-1
 719 956 l 1,29,30
 819 1054 819 1054 918.5 1100.5 c 0,31,32
 1018.5 1147 1018.5 1147 1128.5 1147 c 0,33,34
 1322.5 1147 1322.5 1147 1400 1028 c 0,35,36
 1449.5 952 1449.5 952 1449.5 832.5 c 0,37,38
 1449.5 764.5 1449.5 764.5 1433.5 682 c 2,0,-1
EndSplineSet
EndChar
StartChar: dotlessi
Encoding: 305 305 305
Width: 702
Flags: W
AnchorPoint: "below" 241.147 0 basechar 0
AnchorPoint: "above" 463 1147 basechar 0
Fore
281 1120 m 1,0,-1
 641 1120 l 1,1,-1
 422 0 l 1,2,-1
 63 0 l 1,3,-1
 281 1120 l 1,0,-1
EndSplineSet
EndChar
StartChar: kgreenlandic
Encoding: 312 312 312
Width: 1362
Flags: W
Fore
281 1120 m 1,0,-1
 639 1120 l 1,1,-1
 559 709 l 1,2,-1
 1051 1120 l 1,3,-1
 1467 1120 l 1,4,-1
 820 606 l 1,5,-1
 1292 0 l 1,6,-1
 858 0 l 1,7,-1
 512 467 l 1,8,-1
 421 0 l 1,9,-1
 63 0 l 1,10,-1
 281 1120 l 1,0,-1
EndSplineSet
EndChar
StartChar: Lslash
Encoding: 321 321 321
Width: 1352
Flags: W
Fore
410 1493 m 1,0,-1
 795 1493 l 1,1,-1
 694 977 l 1,2,-1
 1034 1128 l 1,3,-1
 1139 918 l 1,4,-1
 639 698 l 1,5,-1
 561 291 l 1,6,-1
 1235 291 l 1,7,-1
 1180 0 l 1,8,-1
 119 0 l 1,9,-1
 217 502 l 1,10,-1
 57 428 l 1,11,-1
 -47 643 l 1,12,-1
 270 778 l 1,13,-1
 410 1493 l 1,0,-1
EndSplineSet
KernsSLIFO: 366 -73 0 0 356 -339 0 0 253 -253 0 0 221 -319 0 0 217 -73 0 0 219 -73 0 0 218 -73 0 0 210 -73 0 0 212 -73 0 0 211 -73 0 0 376 -319 0 0 255 -253 0 0 8217 -264 0 0 8221 -264 0 0 338 -73 0 0 213 -73 0 0 216 -73 0 0 220 -73 0 0 214 -73 0 0 121 -253 0 0 89 -319 0 0 87 -159 0 0 86 -282 0 0 85 -73 0 0 84 -339 0 0 79 -73 0 0
EndChar
StartChar: lslash
Encoding: 322 322 322
Width: 768
Flags: W
Fore
408 1556 m 1,0,-1
 768 1556 l 1,1,-1
 666 1040 l 1,2,-1
 834 1118 l 1,3,-1
 934 915 l 1,4,-1
 614 770 l 1,5,-1
 465 0 l 1,6,-1
 104 0 l 1,7,-1
 221 598 l 1,8,-1
 82 530 l 1,9,-1
 -14 733 l 1,10,-1
 274 868 l 1,11,-1
 408 1556 l 1,0,-1
EndSplineSet
EndChar
StartChar: Eng
Encoding: 330 330 330
Width: 1714
Flags: W
AnchorPoint: "above" 1076 1520 basechar 0
Fore
354 1493 m 1,0,-1
 700 1493 l 1,1,-1
 1121 529 l 1,2,-1
 1308 1493 l 1,3,-1
 1655 1493 l 1,4,-1
 1369 20 l 2,5,6
 1325 -203 1325 -203 1192 -324 c 0,7,8
 1061 -442 1061 -442 856 -442 c 2,9,-1
 575 -442 l 1,10,-1
 620.5 -207 l 1,11,-1
 786.5 -207 l 2,12,13
 888.5 -207 888.5 -207 935.5 -161 c 0,14,15
 983 -115 983 -115 1009 20 c 1,16,-1
 597 964 l 1,17,-1
 410 0 l 1,18,-1
 64 0 l 1,19,-1
 354 1493 l 1,0,-1
EndSplineSet
EndChar
StartChar: eng
Encoding: 331 331 331
Width: 1458
Flags: W
Fore
1362 682 m 2,0,-1
 1233 20 l 2,1,2
 1190 -203 1190 -203 1057 -324 c 0,3,4
 926 -442 926 -442 721 -442 c 2,5,-1
 440 -442 l 1,6,-1
 485 -207 l 1,7,-1
 651 -207 l 2,8,9
 753 -207 753 -207 800 -161 c 128,-1,10
 847 -115 847 -115 873 20 c 2,11,-1
 971 522 l 2,12,13
 999 667 999 667 1004 722 c 0,14,15
 1005 736 1005 736 1005 748 c 0,16,17
 1005 784 1005 784 997 803 c 0,18,19
 982 838 982 838 950 858 c 0,20,21
 918 877 918 877 872 877 c 0,22,23
 760 877 760 877 679 790 c 0,24,25
 598 704 598 704 569 551 c 2,26,-1
 461 0 l 1,27,-1
 103 0 l 1,28,-1
 321 1120 l 1,29,-1
 679 1120 l 1,30,-1
 647 956 l 1,31,32
 747 1054 747 1054 847 1100 c 0,33,34
 947 1147 947 1147 1057 1147 c 0,35,36
 1251 1147 1251 1147 1329 1028 c 0,37,38
 1378 952 1378 952 1378 833 c 0,39,40
 1378 765 1378 765 1362 682 c 2,0,-1
EndSplineSet
EndChar
StartChar: OE
Encoding: 338 338 338
Width: 2390
Flags: W
Fore
1268 1202 m 1,0,-1
 1163 1202 l 2,1,2
 1023 1202 1023 1202 919 1178.5 c 128,-1,3
 815 1155 815 1155 739 1106 c 0,4,5
 626 1032 626 1032 557.5 907 c 128,-1,6
 489 782 489 782 489 647 c 0,7,8
 489 464 489 464 609.5 377.5 c 128,-1,9
 730 291 730 291 985 291 c 2,10,-1
 1092 291 l 1,11,-1
 1268 1202 l 1,0,-1
1235 1493 m 1,12,-1
 2363 1493 l 1,13,-1
 2306 1202 l 1,14,-1
 1655 1202 l 1,15,-1
 1599 924 l 1,16,-1
 2214 924 l 1,17,-1
 2157 633 l 1,18,-1
 1542 633 l 1,19,-1
 1477 291 l 1,20,-1
 2152 291 l 1,21,-1
 2095 0 l 1,22,-1
 936 0 l 1,23,-1
 881 0 l 2,24,25
 502 0 502 0 294 151 c 128,-1,26
 86 302 86 302 86 575 c 0,27,28
 86 817 86 817 204 1022.5 c 128,-1,29
 322 1228 322 1228 530 1350 c 1,30,31
 658 1423 658 1423 815.5 1458 c 128,-1,32
 973 1493 973 1493 1178 1493 c 2,33,-1
 1235 1493 l 1,12,-1
EndSplineSet
EndChar
StartChar: oe
Encoding: 339 339 339
Width: 2241
Flags: W
AnchorPoint: "below" 1021.34 0 basechar 0
AnchorPoint: "above" 1244.3 1147 basechar 0
Fore
1798 682 m 1,0,1
 1801 695 1801 695 1802.5 708.5 c 128,-1,2
 1804 722 1804 722 1804 735 c 0,3,4
 1804 815 1804 815 1756 862 c 128,-1,5
 1708 909 1708 909 1626 909 c 0,6,7
 1521 909 1521 909 1445.5 850.5 c 128,-1,8
 1370 792 1370 792 1333 682 c 1,9,-1
 1798 682 l 1,0,1
2136 518 m 2,10,-1
 2124 461 l 1,11,-1
 1286 461 l 1,12,13
 1286 455 1286 455 1285 443.5 c 128,-1,14
 1284 432 1284 432 1284 426 c 0,15,16
 1284 317 1284 317 1349.5 263 c 128,-1,17
 1415 209 1415 209 1546 209 c 0,18,19
 1658 209 1658 209 1784 243 c 128,-1,20
 1910 277 1910 277 2048 344 c 1,21,-1
 1993 66 l 1,22,23
 1862 18 1862 18 1732 -5.5 c 128,-1,24
 1602 -29 1602 -29 1466 -29 c 0,25,26
 1311 -29 1311 -29 1211 10 c 128,-1,27
 1111 49 1111 49 1053 131 c 1,28,29
 963 49 963 49 856 10 c 128,-1,30
 749 -29 749 -29 612 -29 c 0,31,32
 361 -29 361 -29 217.5 97.5 c 128,-1,33
 74 224 74 224 74 444 c 0,34,35
 74 571 74 571 119.5 691.5 c 128,-1,36
 165 812 165 812 250 911 c 0,37,38
 351 1028 351 1028 491 1087.5 c 128,-1,39
 631 1147 631 1147 803 1147 c 0,40,41
 943 1147 943 1147 1044.5 1106.5 c 128,-1,42
 1146 1066 1146 1066 1210 985 c 1,43,44
 1304 1066 1304 1066 1418 1106.5 c 128,-1,45
 1532 1147 1532 1147 1669 1147 c 0,46,47
 1892 1147 1892 1147 2025.5 1025 c 128,-1,48
 2159 903 2159 903 2159 702 c 0,49,50
 2159 662 2159 662 2153 615.5 c 128,-1,51
 2147 569 2147 569 2136 518 c 2,10,-1
768 891 m 0,52,53
 629 891 629 891 539 765 c 128,-1,54
 449 639 449 639 449 444 c 0,55,56
 449 338 449 338 497.5 282.5 c 128,-1,57
 546 227 546 227 639 227 c 0,58,59
 778 227 778 227 868 353.5 c 128,-1,60
 958 480 958 480 958 676 c 0,61,62
 958 781 958 781 909.5 836 c 128,-1,63
 861 891 861 891 768 891 c 0,52,53
EndSplineSet
EndChar
StartChar: Tbar
Encoding: 358 358 358
Width: 1397
Flags: W
TeX: 0 0 0 0
Fore
155 1493 m 1,0,-1
 1531 1493 l 1,1,-1
 1475 1202 l 1,2,-1
 980 1202 l 1,3,-1
 881 697 l 1,4,-1
 1128 697 l 1,5,-1
 1091 505 l 1,6,-1
 844 505 l 1,7,-1
 746 0 l 1,8,-1
 361 0 l 1,9,-1
 459 505 l 1,10,-1
 212 505 l 1,11,-1
 249 697 l 1,12,-1
 496 697 l 1,13,-1
 595 1202 l 1,14,-1
 99 1202 l 1,15,-1
 155 1493 l 1,0,-1
EndSplineSet
EndChar
StartChar: tbar
Encoding: 359 359 359
Width: 979
Flags: W
TeX: 0 0 0 0
Fore
703 1438 m 1,0,-1
 641 1120 l 1,1,-1
 1010 1120 l 1,2,-1
 960 864 l 1,3,-1
 591 864 l 1,4,-1
 564 722 l 1,5,-1
 748 722 l 1,6,-1
 710 530 l 1,7,-1
 526 530 l 1,8,-1
 499 389 l 2,9,10
 493 360 493 360 493 338 c 0,11,12
 493 301 493 301 509 284 c 0,13,14
 535 256 535 256 627 256 c 2,15,-1
 811 256 l 1,16,-1
 761 0 l 1,17,-1
 454 0 l 2,18,19
 242 0 242 0 171 88 c 0,20,21
 126 145 126 145 126 250 c 0,22,23
 126 311 126 311 141 389 c 2,24,-1
 168 530 l 1,25,-1
 -10 530 l 1,26,-1
 28 722 l 1,27,-1
 206 722 l 1,28,-1
 233 864 l 1,29,-1
 55 864 l 1,30,-1
 105 1120 l 1,31,-1
 283 1120 l 1,32,-1
 345 1438 l 1,33,-1
 703 1438 l 1,0,-1
EndSplineSet
EndChar
StartChar: longs
Encoding: 383 383 383
Width: 891
Flags: W
TeX: 0 0 0 0
Fore
471 0 m 1,0,-1
 111 0 l 1,1,-1
 279 864 l 1,2,-1
 102 864 l 1,3,-1
 152 1120 l 1,4,-1
 328 1120 l 1,5,-1
 344 1198 l 1,6,7
 381 1384 381 1384 498 1470 c 128,-1,8
 615 1556 615 1556 831 1556 c 2,9,-1
 1106 1556 l 1,10,-1
 1059 1321 l 1,11,-1
 862 1321 l 2,12,13
 787 1321 787 1321 752.5 1293.5 c 128,-1,14
 718 1266 718 1266 705 1199 c 1,15,-1
 471 0 l 1,0,-1
EndSplineSet
EndChar
StartChar: uni0180
Encoding: 384 384 384
Width: 1466
Flags: W
TeX: 117 0 0 0
AnchorPoint: "above" 503.049 1520 basechar 0
Fore
567.418 956 m 1,0,1
 660.468 1054 660.468 1054 759.506 1100.5 c 0,2,3
 858.545 1147 858.545 1147 975.545 1147 c 0,4,5
 1182.54 1147 1182.54 1147 1283.57 982.5 c 0,6,7
 1384.59 818 1384.59 818 1334.25 559 c 0,8,9
 1283.9 300 1283.9 300 1118.93 135.5 c 0,10,11
 953.953 -29 953.953 -29 746.953 -29 c 0,12,13
 629.953 -29 629.953 -29 548.992 17.5 c 0,14,15
 468.031 64 468.031 64 413.08 162 c 1,16,-1
 381.591 0 l 1,17,-1
 23.5908 0 l 1,18,-1
 264.039 1237 l 1,19,-1
 110.039 1237 l 1,20,-1
 149.887 1442 l 1,21,-1
 303.887 1442 l 1,22,-1
 326.047 1556 l 1,23,-1
 684.047 1556 l 1,24,-1
 661.887 1442 l 1,25,-1
 989.887 1442 l 1,26,-1
 950.039 1237 l 1,27,-1
 622.039 1237 l 1,28,-1
 567.418 956 l 1,0,1
664.492 231 m 0,29,30
 779.492 231 779.492 231 856.32 315 c 0,31,32
 933.148 399 933.148 399 964.249 559 c 0,33,34
 995.35 719 995.35 719 951.178 803 c 0,35,36
 907.006 887 907.006 887 792.006 887 c 0,37,38
 677.006 887 677.006 887 599.081 802.5 c 0,39,40
 521.155 718 521.155 718 490.249 559 c 0,41,42
 459.343 400 459.343 400 504.418 315.5 c 0,43,44
 549.492 231 549.492 231 664.492 231 c 0,29,30
EndSplineSet
EndChar
StartChar: uni0181
Encoding: 385 385 385
Width: 1661
Flags: W
TeX: 117 0 0 0
AnchorPoint: "above" 1027.35 1520 basechar 0
Fore
918.753 915 m 2,0,1
 1009.75 915 1009.75 915 1064.53 955 c 0,2,3
 1119.3 995 1119.3 995 1134.46 1073 c 0,4,5
 1149.43 1150 1149.43 1150 1110.3 1190.5 c 0,6,7
 1071.18 1231 1071.18 1231 980.178 1231 c 2,8,-1
 767.178 1231 l 1,9,-1
 705.753 915 l 1,10,-1
 918.753 915 l 2,0,1
804.822 262 m 2,11,12
 920.822 262 920.822 262 988.848 311 c 0,13,14
 1056.87 360 1056.87 360 1076.12 459 c 0,15,16
 1094.97 556 1094.97 556 1046.4 604.5 c 0,17,18
 997.825 653 997.825 653 880.825 653 c 2,19,-1
 654.825 653 l 1,20,-1
 578.822 262 l 1,21,-1
 804.822 262 l 2,11,12
1267.21 799 m 1,22,23
 1384.21 763 1384.21 763 1433.35 666 c 0,24,25
 1482.5 569 1482.5 569 1455.09 428 c 0,26,27
 1413.1 212 1413.1 212 1246.5 106 c 0,28,29
 1079.89 -0 1079.89 -0 781.896 0 c 2,30,-1
 142.896 0 l 1,31,-1
 382.178 1231 l 1,32,33
 308.824 1231 308.824 1231 302.81 1230.45 c 0,34,35
 256.815 1226.27 256.815 1226.27 239.096 1210 c 0,36,37
 202.108 1176.04 202.108 1176.04 189.514 1125.9 c 0,38,39
 186.126 1112.41 186.126 1112.41 179.632 1079 c 1,40,-1
 -75.3682 1079 l 1,41,-1
 -60.4014 1156 l 2,42,43
 -33.5771 1294 -33.5771 1294 27.2383 1359.26 c 0,44,45
 49.8076 1383.48 49.8076 1383.48 88.2627 1411.5 c 0,46,47
 175.289 1474.91 175.289 1474.91 316.648 1488.18 c 0,48,49
 367.982 1493 367.982 1493 433.104 1493 c 2,50,-1
 1011.1 1493 l 2,51,52
 1322.1 1493 1322.1 1493 1443.33 1399 c 0,53,54
 1564.56 1305 1564.56 1305 1524.32 1098 c 0,55,56
 1503.14 989 1503.14 989 1437.27 912.5 c 0,57,58
 1371.4 836 1371.4 836 1267.21 799 c 1,22,23
EndSplineSet
EndChar
StartChar: uni0183
Encoding: 387 387 387
Width: 1466
Flags: W
TeX: 117 0 0 0
Fore
567.418 956 m 1,0,1
 660.474 1054 660.474 1054 759.506 1100.5 c 0,2,3
 858.545 1147 858.545 1147 975.545 1147 c 0,4,5
 1182.55 1147 1182.55 1147 1283.57 982.5 c 0,6,7
 1384.59 818.006 1384.59 818.006 1334.25 559 c 0,8,9
 1283.91 299.994 1283.91 299.994 1118.93 135.5 c 0,10,11
 953.945 -29 953.945 -29 746.953 -29 c 0,12,13
 629.954 -29 629.954 -29 548.992 17.5 c 0,14,15
 468.031 64.0011 468.031 64.0011 413.08 162 c 1,16,-1
 381.591 0 l 1,17,-1
 23.5908 0 l 1,18,-1
 326.047 1556 l 1,19,-1
 1355.05 1556 l 1,20,-1
 1298.48 1265 l 1,21,-1
 627.481 1265 l 1,22,-1
 567.418 956 l 1,0,1
664.492 231 m 0,23,24
 779.495 231 779.495 231 856.32 315 c 0,25,26
 933.15 399.001 933.15 399.001 964.249 559 c 0,27,28
 995.35 719 995.35 719 951.178 803 c 0,29,30
 907.006 887 907.006 887 792.006 887 c 0,31,32
 677.006 887 677.006 887 599.081 802.5 c 0,33,34
 521.157 718.001 521.157 718.001 490.249 559 c 0,35,36
 459.342 399.998 459.342 399.998 504.418 315.5 c 0,37,38
 549.493 231 549.493 231 664.492 231 c 0,23,24
EndSplineSet
EndChar
StartChar: uni0184
Encoding: 388 388 388
Width: 1561
Flags: W
TeX: 117 0 0 0
Fore
785.822 262 m 2,0,1
 906.639 262 906.639 262 969.57 307 c 0,2,3
 1037.09 356 1037.09 356 1055.17 449 c 0,4,5
 1072.86 540 1072.86 540 1024.19 588 c 0,6,7
 979.673 633 979.673 633 857.938 633 c 2,8,-1
 631.938 633 l 1,9,-1
 559.822 262 l 1,10,-1
 785.822 262 l 2,0,1
762.896 0 m 10,11,-1
 123.896 0 l 17,12,-1
 303.503 924 l 1,0,0
 150.491 1104 l 1,0,0
 799.104 1493 l 25,14,-1
 688.503 924 l 1,17,-1
 942.503 924 l 2,18,19
 1225.5 924 1225.5 924 1363.76 807 c 0,20,21
 1489.16 701 1489.16 701 1442.5 461 c 24,22,23
 1396.24 223 1396.24 223 1229.64 117 c 0,24,25
 1045.9 0 1045.9 0 762.896 0 c 10,11,-1
EndSplineSet
EndChar
StartChar: uni0185
Encoding: 389 389 389
Width: 1466
Flags: W
TeX: 117 0 0 0
Fore
619.418 956 m 1,0,1
 712.473 1054 712.473 1054 811.506 1100.5 c 0,2,3
 910.545 1147 910.545 1147 1027.54 1147 c 0,4,5
 1234.54 1147 1234.54 1147 1335.57 982.5 c 0,6,7
 1436.59 818.006 1436.59 818.006 1386.25 559 c 0,8,9
 1335.9 299.994 1335.9 299.994 1170.93 135.5 c 0,10,11
 1005.94 -29 1005.94 -29 798.953 -29 c 0,12,13
 681.953 -29 681.953 -29 600.992 17.5 c 0,14,15
 520.031 64 520.031 64 465.08 162 c 1,16,-1
 433.591 0 l 1,17,-1
 75.5908 0 l 1,18,-1
 255.198 924 l 1,0,0
 118.187 1104 l 1,19,-1
 736.047 1556 l 1,20,-1
 619.418 956 l 1,0,1
716.492 231 m 0,23,24
 831.492 231 831.492 231 908.32 315 c 0,25,26
 985.148 399 985.148 399 1016.25 559 c 0,27,28
 1047.35 719 1047.35 719 1003.18 803 c 0,29,30
 959.006 887 959.006 887 844.006 887 c 0,31,32
 729.006 887 729.006 887 651.081 802.5 c 0,33,34
 573.155 718 573.155 718 542.249 559 c 0,35,36
 511.343 400 511.343 400 556.418 315.5 c 0,37,38
 601.492 231 601.492 231 716.492 231 c 0,23,24
EndSplineSet
EndChar
StartChar: uni0186
Encoding: 390 390 390
Width: 1503
Flags: W
TeX: 117 0 0 0
AnchorPoint: "above" 737 1520 basechar 0
Fore
-26.9717 82 m 1,0,-1
 33.0918 391 l 1,1,2
 125.902 318 125.902 318 223.294 284 c 0,3,4
 320.685 250 320.685 250 435.685 250 c 0,5,6
 641.685 250 641.685 250 785.343 382 c 0,7,8
 929.001 514 929.001 514 973.902 745 c 0,9,10
 1019 977 1019 977 926.657 1109 c 0,11,12
 834.315 1241 834.315 1241 628.315 1241 c 0,13,14
 513.315 1241 513.315 1241 402.706 1207 c 0,15,16
 292.098 1173 292.098 1173 170.908 1100 c 1,17,-1
 230.972 1409 l 1,18,19
 347.662 1464 347.662 1464 468.104 1492 c 0,20,21
 588.548 1520 588.548 1520 713.548 1520 c 0,22,23
 1086.55 1520 1086.55 1520 1264.02 1311.5 c 128,-1,24
 1441.49 1103 1441.49 1103 1371.9 745 c 0,25,26
 1302.51 388 1302.51 388 1043.98 179.5 c 0,27,28
 785.452 -29 785.452 -29 412.452 -29 c 0,29,30
 287.452 -29 287.452 -29 177.896 -1 c 0,31,32
 68.3379 27 68.3379 27 -26.9717 82 c 1,0,-1
EndSplineSet
EndChar
StartChar: uni0187
Encoding: 391 391 391
Width: 1503
Flags: W
TeX: 117 0 0 0
AnchorPoint: "above" 1023.39 1520 basechar 0
Fore
1206.87 82 m 1,0,1
 1090.17 26.9951 1090.17 26.9951 969.74 -1 c 0,2,3
 849.298 -29 849.298 -29 724.298 -29 c 0,4,5
 351.298 -29 351.298 -29 173.826 179.5 c 0,6,7
 -3.64551 388 -3.64551 388 65.748 745 c 0,8,9
 135.336 1103 135.336 1103 393.864 1311.5 c 0,10,11
 652.393 1520 652.393 1520 1025.39 1520 c 0,12,13
 1073.56 1520 1073.56 1520 1119.34 1515.85 c 1,14,15
 1182.79 1664.56 1182.79 1664.56 1298.38 1754 c 0,16,17
 1476.7 1892 1476.7 1892 1783.7 1892 c 2,18,-1
 1861.7 1892 l 1,19,-1
 1805.14 1601 l 1,20,-1
 1745.14 1601 l 2,21,22
 1625.14 1601 1625.14 1601 1550.61 1534 c 0,23,24
 1476.11 1467.01 1476.11 1467.01 1450.83 1337.03 c 2,25,-1
 1404.75 1100 l 1,26,27
 1311.98 1172.98 1311.98 1172.98 1214.55 1207 c 0,28,29
 1117.18 1241 1117.18 1241 1002.16 1241 c 0,30,31
 796.161 1241 796.161 1241 652.503 1109 c 0,32,33
 508.845 977 508.845 977 463.748 745 c 0,34,35
 418.847 514 418.847 514 511.188 382 c 0,36,37
 603.53 250 603.53 250 809.53 250 c 0,38,39
 924.54 250 924.54 250 1035.14 284 c 0,40,41
 1145.77 318.008 1145.77 318.008 1266.94 391 c 1,42,-1
 1206.87 82 l 1,0,1
EndSplineSet
EndChar
StartChar: uni0188
Encoding: 392 392 392
Width: 1214
Flags: W
TeX: 117 0 0 0
AnchorPoint: "above" 814.64 1147 basechar 0
Fore
1134.15 1021 m 2,0,-1
 1089.83 793 l 1,1,2
 1026.54 843.004 1026.54 843.004 957.713 867 c 0,3,4
 888.878 891 888.878 891 809.878 891 c 0,5,6
 659.878 891 659.878 891 559.37 803.5 c 0,7,8
 458.862 716 458.862 716 428.344 559 c 0,9,10
 397.826 402 397.826 402 464.318 314.5 c 0,11,12
 530.81 227 530.81 227 680.81 227 c 0,13,14
 764.812 227 764.812 227 845.169 252 c 0,15,16
 925.519 276.999 925.519 276.999 999.054 326 c 1,17,-1
 942.1 33 l 1,18,19
 852.074 2 852.074 2 762.562 -13.5 c 0,20,21
 673.049 -29 673.049 -29 586.049 -29 c 0,22,23
 283.049 -29 283.049 -29 142.274 126.5 c 0,24,25
 1.50098 282.001 1.50098 282.001 55.3438 559 c 0,26,27
 109.187 835.997 109.187 835.997 310.414 991.5 c 0,28,29
 510.252 1145.93 510.252 1145.93 810.455 1146.99 c 1,30,31
 859.389 1281.73 859.389 1281.73 950.917 1364.5 c 0,32,33
 1081.95 1483 1081.95 1483 1286.95 1483 c 2,34,-1
 1463.95 1483 l 1,35,-1
 1418.27 1248 l 1,36,-1
 1356.27 1248 l 2,37,38
 1254.26 1248 1254.26 1248 1207.33 1202 c 0,39,40
 1160.39 1155.99 1160.39 1155.99 1134.15 1021 c 2,0,-1
EndSplineSet
EndChar
StartChar: uni018A
Encoding: 394 394 394
Width: 1800
Flags: W
TeX: 117 0 0 0
AnchorPoint: "above" 1027.35 1520 basechar 0
Fore
761.54 1202 m 1,0,-1
 584.46 291 l 1,1,-1
 722.46 291 l 2,2,3
 958.46 291 958.46 291 1105.7 408 c 0,4,5
 1252.94 525 1252.94 525 1296.29 748 c 0,6,7
 1339.44 970 1339.44 970 1237.99 1086 c 0,8,9
 1136.54 1202 1136.54 1202 899.54 1202 c 2,10,-1
 761.54 1202 l 1,0,-1
382.178 1231 m 1,11,12
 308.824 1231 308.824 1231 302.81 1230.45 c 0,13,14
 256.815 1226.27 256.815 1226.27 239.096 1210 c 0,15,16
 202.108 1176.04 202.108 1176.04 189.514 1125.9 c 0,17,18
 186.126 1112.41 186.126 1112.41 179.632 1079 c 1,19,-1
 -75.3682 1079 l 1,20,-1
 -60.4014 1156 l 2,21,22
 -33.5771 1294 -33.5771 1294 27.2383 1359.26 c 0,23,24
 49.8076 1383.48 49.8076 1383.48 88.2627 1411.5 c 0,25,26
 175.289 1474.91 175.289 1474.91 316.648 1488.18 c 0,27,28
 367.982 1493 367.982 1493 433.104 1493 c 2,29,-1
 839.104 1493 l 2,30,31
 1179.1 1493 1179.1 1493 1336.18 1444.5 c 0,32,33
 1492.17 1396.33 1492.17 1396.33 1589.7 1280 c 0,34,35
 1675.28 1177.92 1675.28 1177.92 1700.41 1047 c 0,36,37
 1725.75 915 1725.75 915 1693.29 748 c 0,38,39
 1660.44 579 1660.44 579 1583.69 446.5 c 0,40,41
 1507.16 314.397 1507.16 314.397 1382.3 213 c 0,42,43
 1239.3 96.877 1239.3 96.877 1062.32 48.5 c 0,44,45
 884.896 0 884.896 0 548.896 0 c 2,46,-1
 142.896 0 l 1,47,-1
 382.178 1231 l 1,11,12
EndSplineSet
EndChar
StartChar: uni018B
Encoding: 395 395 395
Width: 1561
Flags: W
TeX: 117 0 0 0
Fore
711.822 262 m 2,0,-1
 937.822 262 l 1,1,-1
 1009.94 633 l 1,2,-1
 783.938 633 l 2,3,4
 662.203 633 662.203 633 600.19 588 c 0,5,6
 532.86 539.999 532.86 539.999 515.172 449 c 0,7,8
 497.094 356 497.094 356 545.57 307 c 0,9,10
 591.005 262 591.005 262 711.822 262 c 2,0,-1
632.896 0 m 18,11,12
 349.894 0 349.894 0 211.638 117 c 0,13,14
 86.2422 223.001 86.2422 223.001 132.505 461 c 0,15,16
 179.155 701 179.155 701 345.76 807 c 0,17,18
 529.503 924 529.503 924 812.503 924 c 2,19,-1
 1066.5 924 l 1,20,-1
 1120.54 1202 l 1,21,-1
 476.54 1202 l 1,22,-1
 533.104 1493 l 1,23,-1
 1562.1 1493 l 1,24,-1
 1271.9 0 l 1,25,-1
 632.896 0 l 18,11,12
EndSplineSet
EndChar
StartChar: uni018C
Encoding: 396 396 396
Width: 1466
Flags: W
TeX: 117 0 0 0
Fore
971.418 956 m 1,0,-1
 1031.48 1265 l 1,1,-1
 362.481 1265 l 1,2,-1
 419.047 1556 l 1,3,-1
 1448.05 1556 l 1,4,-1
 1145.59 0 l 1,5,-1
 787.591 0 l 1,6,-1
 819.08 162 l 1,7,8
 726.031 63.9992 726.031 63.9992 626.992 17.5 c 0,9,10
 527.954 -29 527.954 -29 410.953 -29 c 0,11,12
 203.954 -29 203.954 -29 102.929 135.5 c 0,13,14
 1.90514 299.999 1.90514 299.999 52.249 559 c 0,15,16
 102.594 818.001 102.594 818.001 267.569 982.5 c 0,17,18
 432.541 1147 432.541 1147 639.545 1147 c 0,19,20
 756.545 1147 756.545 1147 837.506 1100.5 c 0,21,22
 915.513 1055.7 915.513 1055.7 971.418 956 c 1,0,-1
594.492 231 m 0,23,24
 709.495 231 709.495 231 786.32 315 c 0,25,26
 863.15 399.001 863.15 399.001 894.249 559 c 0,27,28
 925.35 719 925.35 719 881.178 803 c 0,29,30
 837.006 887 837.006 887 722.006 887 c 0,31,32
 608.005 887 608.005 887 531.178 803 c 0,33,34
 454.35 718.999 454.35 718.999 423.249 559 c 0,35,36
 392.149 399 392.149 399 436.32 315 c 0,37,38
 480.494 231 480.494 231 594.492 231 c 0,23,24
EndSplineSet
EndChar
StartChar: uni018D
Encoding: 397 397 397
Width: 1407
Flags: W
TeX: 117 0 0 0
AnchorPoint: "above" 932.717 1520 basechar 0
Fore
162.321 -118 m 17,0,1
 270.705 -188 270.705 -188 556.715 -188 c 0,2,3
 759.715 -188 759.715 -188 773.904 -115 c 0,4,5
 786.733 -49 786.733 -49 577.148 -16 c 0,6,7
 335.321 21.0098 335.321 21.0098 217.111 133 c 0,8,9
 73.3535 268.004 73.3535 268.004 127.195 545 c 0,10,11
 178.705 809.995 178.705 809.995 373.03 966 c 0,12,13
 567.543 1123 567.543 1123 854.548 1123 c 0,14,15
 1140.55 1123 1140.55 1123 1276.03 966 c 0,16,17
 1409.71 810 1409.71 810 1356.25 535 c 0,18,19
 1316.4 330 1316.4 330 1120.53 166 c 0,20,21
 1059.81 115.998 1059.81 115.998 989.586 84 c 1,22,23
 1122.23 5 1122.23 5 1091.32 -154 c 0,24,25
 1038.45 -426 1038.45 -426 510.452 -426 c 0,26,27
 245.433 -426 245.433 -426 116.059 -356 c 1,28,-1
 162.321 -118 l 17,0,1
762.855 214 m 1,29,30
 820.132 236 820.132 236 873.018 292 c 0,31,32
 955.929 379 955.929 379 986.446 536 c 0,33,34
 1016.96 693 1016.96 693 968.069 781 c 0,35,36
 920.176 869 920.176 869 805.175 869 c 0,37,38
 693.175 869 693.175 869 609.875 780 c 0,39,40
 526.381 690 526.381 690 498.001 544 c 0,41,42
 468.261 391 468.261 391 523.877 317 c 0,43,44
 580.91 239.999 580.91 239.999 677.771 229 c 0,45,46
 722.8 224 722.8 224 762.855 214 c 1,29,30
EndSplineSet
EndChar
StartChar: uni018E
Encoding: 398 398 398
Width: 1399
Flags: W
TeX: 117 0 0 0
AnchorPoint: "above" 840.354 1520 basechar 0
Fore
1394.1 1493 m 1,0,-1
 1103.9 0 l 1,11,-1
 42.8955 0 l 1,10,-1
 99.46 291 l 1,9,-1
 775.46 291 l 1,8,-1
 841.938 633 l 1,7,-1
 226.938 633 l 1,6,-1
 283.503 924 l 1,5,-1
 898.503 924 l 1,4,-1
 952.54 1202 l 1,3,-1
 298.54 1202 l 1,2,-1
 355.104 1493 l 1,1,-1
 1394.1 1493 l 1,0,-1
EndSplineSet
EndChar
StartChar: uni018F
Encoding: 399 399 399
Width: 1741
Flags: W
TeX: 117 0 0 0
Fore
1258.46 829 m 8,22,23
 104.278 829 l 17,0,0
 79.592 702 79.592 702 74 569 c 0,27,28
 63.1478 310.893 63.1478 310.893 255 136 c 128,-1,26
 436 -29 436 -29 733 -29 c 0,24,25
 965 -29 965 -29 1142.5 49.5 c 128,-1,23
 1320 128 1320 128 1450 287 c 0,21,22
 1556 416 1556 416 1611.5 578 c 24,6,7
 1672.12 754.953 1672.12 754.953 1677.45 912.5 c 128,-1,8
 1682.07 1071 1682.07 1071 1620 1202 c 0,9,10
 1544.2 1362 1544.2 1362 1387.41 1441 c 128,-1,11
 1230.62 1520 1230.62 1520 989.625 1520 c 0,12,13
 855.625 1520 855.625 1520 708.74 1492 c 128,-1,14
 561.854 1464 561.854 1464 408.473 1409 c 1,15,-1
 347.346 1100 l 1,16,17
 496.947 1171 496.947 1171 627.055 1206 c 128,-1,18
 757.16 1241 757.16 1241 875.16 1241 c 0,19,20
 1133.16 1241 1133.16 1241 1228.29 1069 c 128,-1,21
 1281.16 973.44 1281.16 973.44 1258.46 829 c 8,22,23
1201.77 571 m 17,0,0
 1174.28 501.572 1174.28 501.572 1135 442 c 0,12,13
 1072 347 1072 347 982.5 298.5 c 128,-1,11
 893 250 893 250 778 250 c 0,9,10
 637 250 637 250 558 345 c 128,-1,8
 488.681 428.358 488.681 428.358 480.187 571 c 9,0,0
 1201.77 571 l 17,0,0
EndSplineSet
EndChar
StartChar: uni0190
Encoding: 400 400 400
Width: 1425
Flags: W
TeX: 117 0 0 0
AnchorPoint: "above" 937 1520 basechar 0
Fore
456.565 805 m 1,0,1
 328.175 839 328.175 839 275.405 922.5 c 0,2,3
 222.636 1006 222.636 1006 248.1 1137 c 0,4,5
 285.421 1329 285.421 1329 448.484 1424.5 c 0,6,7
 611.548 1520 611.548 1520 902.548 1520 c 0,8,9
 1010.55 1520 1010.55 1520 1119.44 1504 c 0,10,11
 1228.33 1488 1228.33 1488 1336.11 1456 c 1,12,-1
 1281.29 1174 l 1,13,14
 1195.26 1215 1195.26 1215 1104.34 1236 c 0,15,16
 1013.43 1257 1013.43 1257 920.426 1257 c 0,17,18
 794.426 1257 794.426 1257 716.29 1210 c 0,19,20
 638.154 1163 638.154 1163 621.438 1077 c 0,21,22
 603.359 984 603.359 984 665.516 938.5 c 0,23,24
 727.671 893 727.671 893 872.671 893 c 2,25,-1
 1034.67 893 l 1,26,-1
 986.465 645 l 1,27,-1
 832.465 645 l 2,28,29
 669.465 645 669.465 645 575.76 592.5 c 128,-1,30
 482.055 540 482.055 540 462.229 438 c 0,31,32
 442.984 339 442.984 339 514.183 286 c 0,33,34
 585.38 233 585.38 233 738.38 233 c 0,35,36
 841.38 233 841.38 233 953.226 260.5 c 0,37,38
 1065.07 288 1065.07 288 1183.57 342 c 1,39,-1
 1125.84 45 l 1,40,41
 1005.64 8 1005.64 8 886.549 -10.5 c 0,42,43
 767.452 -29 767.452 -29 652.452 -29 c 0,44,45
 326.452 -29 326.452 -29 178.903 86.5 c 0,46,47
 31.3545 202 31.3545 202 74.5068 424 c 0,48,49
 103.47 573 103.47 573 200.728 669.5 c 0,50,51
 297.984 766 297.984 766 456.565 805 c 1,0,1
EndSplineSet
EndChar
StartChar: uni0191
Encoding: 401 401 401
Width: 1399
Flags: W
TeX: 117 0 0 0
Fore
110.928 145 m 2,0,-1
 372.953 1493 l 1,1,-1
 1411.95 1493 l 1,2,-1
 1355.39 1202 l 1,3,-1
 701.389 1202 l 1,4,-1
 647.351 924 l 1,5,-1
 1262.35 924 l 1,6,-1
 1205.79 633 l 1,7,-1
 590.786 633 l 1,8,-1
 495.928 145 l 2,9,10
 441.696 -134 441.696 -134 263.372 -272 c 0,11,12
 85.0469 -410 85.0469 -410 -221.953 -410 c 2,13,-1
 -299.953 -410 l 1,14,-1
 -243.389 -119 l 1,15,-1
 -183.389 -119 l 2,16,17
 -63.3887 -119 -63.3887 -119 11.1357 -52 c 0,18,19
 85.6592 15 85.6592 15 110.928 145 c 2,0,-1
EndSplineSet
EndChar
StartChar: florin
Encoding: 402 402 402
Width: 891
Flags: W
AnchorPoint: "above" 579.633 1520 basechar 0
Fore
1101.63 1556 m 1,0,-1
 1055.95 1321 l 1,1,-1
 857.951 1321 l 2,2,3
 781.957 1321 781.957 1321 746.606 1293.5 c 0,4,5
 711.261 1266 711.261 1266 698.043 1198 c 2,6,-1
 682.881 1120 l 1,7,-1
 988.881 1120 l 1,8,-1
 939.12 864 l 1,9,-1
 633.12 864 l 1,10,-1
 451.957 -68 l 2,11,12
 416.385 -251.005 416.385 -251.005 297.377 -338.5 c 0,13,14
 178.363 -426 178.363 -426 -35.6309 -426 c 2,15,-1
 -309.631 -426 l 1,16,-1
 -263.951 -191 l 1,17,-1
 -65.9512 -191 l 2,18,19
 10.0434 -191 10.0434 -191 45.3936 -163.5 c 0,20,21
 80.7394 -136.004 80.7394 -136.004 93.957 -68 c 2,22,-1
 275.12 864 l 1,23,-1
 97.1201 864 l 1,24,-1
 146.881 1120 l 1,25,-1
 324.881 1120 l 1,26,-1
 340.043 1198 l 2,27,28
 375.615 1381.01 375.615 1381.01 494.623 1468.5 c 0,29,30
 613.637 1556 613.637 1556 827.631 1556 c 2,31,-1
 1101.63 1556 l 1,0,-1
EndSplineSet
EndChar
StartChar: uni0193
Encoding: 403 403 403
Width: 1681
Flags: W
TeX: 117 0 0 0
AnchorPoint: "above" 1044.39 1520 basechar 0
Fore
1370.51 111 m 1,0,1
 1212.9 41.002 1212.9 41.002 1051.1 6 c 0,2,3
 889.298 -29 889.298 -29 724.298 -29 c 0,4,5
 351.298 -29 351.298 -29 173.826 179.5 c 0,6,7
 -3.64551 388 -3.64551 388 65.748 745 c 0,8,9
 135.919 1106 135.919 1106 398.156 1313 c 0,10,11
 660.393 1520 660.393 1520 1046.39 1520 c 0,12,13
 1136.39 1520 1136.39 1520 1219.78 1509.79 c 1,14,15
 1283.44 1662.74 1283.44 1662.74 1401.38 1754 c 0,16,17
 1579.7 1892 1579.7 1892 1886.7 1892 c 2,18,-1
 1964.7 1892 l 1,19,-1
 1908.14 1601 l 1,20,-1
 1848.14 1601 l 2,21,22
 1728.14 1601 1728.14 1601 1653.61 1534 c 0,23,24
 1579.09 1466.99 1579.09 1466.99 1553.82 1337 c 2,25,-1
 1507.75 1100 l 1,26,27
 1396.54 1171.01 1396.54 1171.01 1279.86 1206 c 0,28,29
 1163.15 1241 1163.15 1241 1039.16 1241 c 0,30,31
 809.155 1241 809.155 1241 659.683 1112.5 c 0,32,33
 510.204 983.995 510.204 983.995 463.748 745 c 0,34,35
 417.68 508 417.68 508 512.604 379 c 0,36,37
 607.53 250 607.53 250 828.53 250 c 0,38,39
 888.54 250 888.54 250 941.487 257.5 c 0,40,41
 994.456 265.003 994.456 265.003 1038.56 281 c 1,42,-1
 1094.93 571 l 1,43,-1
 859.926 571 l 1,44,-1
 910.076 829 l 1,45,-1
 1510.08 829 l 1,46,-1
 1370.51 111 l 1,0,1
EndSplineSet
EndChar
StartChar: uni0194
Encoding: 404 404 404
Width: 1539
Flags: W
TeX: 0 0 0 0
Fore
750.223 510 m 1,0,-1
568.206 762 m 1,1,-1
 212.298 1493 l 1,2,-1
 614.298 1493 l 1,3,-1
 847.801 1012 l 1,4,-1
 1267.3 1493 l 1,5,-1
 1671.3 1493 l 1,6,-1
 1031.21 762 l 1,7,8
 1217.29 380.296 1217.29 380.296 1143.37 -14 c 0,9,10
 1092.66 -285.237 1092.66 -285.237 586.718 -290 c 0,11,12
 80.8311 -294.857 80.8311 -294.857 133.367 -14 c 0,13,14
 198.444 335.34 198.444 335.34 568.206 762 c 1,1,-1
750.223 510 m 1,15,16
 520.711 245 520.711 245 497.502 125.6 c 0,17,18
 474.841 -0.0126953 474.841 -0.0126953 645.088 0 c 16,19,20
 818.091 0.0146484 818.091 0.0146484 843.357 130 c 0,21,22
 872.301 278.899 872.301 278.899 750.223 510 c 1,15,16
EndSplineSet
EndChar
StartChar: uni0195
Encoding: 405 405 405
Width: 2140
Flags: W
TeX: 117 0 0 0
Fore
888.051 520 m 2,0,1
 916.623 666.983 916.623 666.983 920.815 722 c 0,2,3
 925.007 776.998 925.007 776.998 914.061 803 c 0,4,5
 899.864 838 899.864 838 867.654 857.5 c 0,6,7
 835.446 877 835.446 877 789.444 877 c 0,8,9
 677.445 877 677.445 877 596.631 790.5 c 0,10,11
 515.816 703.998 515.816 703.998 486.077 551 c 2,12,-1
 378.974 0 l 1,13,-1
 20.9736 0 l 1,14,-1
 323.429 1556 l 1,15,-1
 681.429 1556 l 1,16,-1
 564.801 956 l 1,17,18
 664.859 1054 664.859 1054 764.889 1100.5 c 0,19,20
 864.928 1147 864.928 1147 974.928 1147 c 0,21,22
 1168.93 1147 1168.93 1147 1246.3 1028 c 0,23,24
 1323.67 909 1323.67 909 1279.54 682 c 2,25,-1
 1236.39 460 l 2,26,27
 1203.58 291.223 1203.58 291.223 1210.81 279 c 0,28,29
 1241.75 226.575 1241.75 226.575 1288.88 231 c 2,30,-1
 1310.16 233 l 2,31,32
 1427.89 233 1427.89 233 1529.47 330 c 0,33,34
 1621.63 418.018 1621.63 418.018 1649.23 560 c 0,35,36
 1670.02 667.02 1670.02 667.02 1635.38 782 c 0,37,38
 1610.86 865.993 1610.86 865.993 1541.25 938 c 1,39,-1
 1574.68 1120 l 1,40,41
 1713.37 1116.75 1713.37 1116.75 1799.45 1076.74 c 0,42,43
 1838.25 1058.71 1838.25 1058.71 1885.6 1027 c 0,44,45
 1941.54 989.537 1941.54 989.537 1969.02 922.913 c 0,46,47
 1971.16 917.73 1971.16 917.73 2000.28 835 c 0,48,49
 2038.29 727.009 2038.29 727.009 2007.58 569 c 0,50,51
 1958.2 315 1958.2 315 1774.69 158 c 0,52,53
 1589.96 0 1589.96 0 1346.97 0 c 2,54,-1
 1209.58 -2 l 2,55,56
 1007.72 -4.93836 1007.72 -4.93836 919.521 116 c 0,57,58
 832.814 235.83 832.814 235.83 876.389 460 c 2,59,-1
 888.051 520 l 2,0,1
EndSplineSet
EndChar
StartChar: uni0196
Encoding: 406 406 406
Width: 892
Flags: W
TeX: 117 0 0 0
AnchorPoint: "above" 528.354 1520 basechar 0
Fore
718.104 1493 m 1,0,-1
 535.776 555 l 2,1,2
 510.507 425.001 510.507 425.001 558.983 358 c 0,3,4
 607.46 291 607.46 291 727.46 291 c 2,5,-1
 787.46 291 l 1,6,-1
 730.896 0 l 1,7,-1
 652.896 0 l 2,8,9
 345.896 0 345.896 0 221.22 138 c 0,10,11
 96.5437 276.001 96.5437 276.001 150.776 555 c 2,12,-1
 333.104 1493 l 1,13,-1
 718.104 1493 l 1,0,-1
EndSplineSet
EndChar
StartChar: uni0197
Encoding: 407 407 407
Width: 797
Flags: W
TeX: 117 0 0 0
AnchorPoint: "above" 528.354 1520 basechar 0
Fore
346.104 1493 m 1,0,-1
 731.104 1493 l 1,1,-1
 612.145 881 l 1,2,-1
 813.145 881 l 1,3,-1
 762.605 621 l 1,4,-1
 561.605 621 l 1,5,-1
 440.896 0 l 1,6,-1
 55.8955 0 l 1,7,-1
 176.605 621 l 1,8,-1
 -14.3945 621 l 1,9,-1
 36.1445 881 l 1,10,-1
 227.145 881 l 1,11,-1
 346.104 1493 l 1,0,-1
EndSplineSet
EndChar
StartChar: uni0198
Encoding: 408 408 408
Width: 1587
Flags: W
TeX: 117 0 0 0
AnchorPoint: "below" 735.771 0 basechar 0
AnchorPoint: "above" 820.229 1520 basechar 0
Fore
1739.37 1222.37 m 1,0,-1
 1532.84 1055 l 1,1,-1
 1506.19 1090.68 l 2,2,3
 1449.09 1167.12 1449.09 1167.12 1386.61 1161.53 c 0,4,5
 1309.61 1154.63 1309.61 1154.63 1193.95 1059.05 c 2,6,-1
 863.554 786 l 1,7,-1
 1503.77 0 l 1,8,-1
 1021.77 0 l 1,9,-1
 542.066 588 l 1,10,-1
 427.771 0 l 1,11,-1
 42.7705 0 l 1,12,-1
 332.98 1493 l 1,13,-1
 717.98 1493 l 1,14,-1
 612.043 948 l 1,15,-1
 1087.64 1339.8 l 2,16,17
 1266.62 1487.25 1266.62 1487.25 1399.17 1494 c 0,18,19
 1521.58 1500.24 1521.58 1500.24 1624.67 1368.71 c 2,20,-1
 1739.37 1222.37 l 1,0,-1
EndSplineSet
EndChar
StartChar: uni0199
Encoding: 409 409 409
Width: 1362
Flags: W
TeX: 117 0 0 0
AnchorPoint: "above" 500.229 1520 basechar 0
Fore
516.588 709 m 1,0,-1
 1008.48 1120 l 1,1,-1
 1424.48 1120 l 1,2,-1
 777.566 606 l 1,3,-1
 1249.77 0 l 1,4,-1
 815.771 0 l 1,5,-1
 469.548 467 l 1,6,-1
 378.771 0 l 1,7,-1
 20.7715 0 l 1,8,-1
 233.425 1094 l 2,9,10
 276.771 1317 276.771 1317 410.291 1438 c 0,11,12
 541.229 1556 541.229 1556 746.229 1556 c 2,13,-1
 1027.23 1556 l 1,14,-1
 981.549 1321 l 1,15,-1
 815.549 1321 l 2,16,17
 715.417 1321 715.417 1321 666.607 1275 c 0,18,19
 617.636 1228.85 617.636 1228.85 591.425 1094 c 2,20,-1
 516.588 709 l 1,0,-1
EndSplineSet
EndChar
StartChar: uni019A
Encoding: 410 410 410
Width: 738
Flags: W
TeX: 117 0 0 0
AnchorPoint: "above" 521.23 1520 basechar 0
Fore
344.228 1556 m 1,0,-1
 702.228 1556 l 1,1,-1
 571.021 881 l 1,2,-1
 748.021 881 l 1,3,-1
 697.482 621 l 1,4,-1
 520.482 621 l 1,5,-1
 399.772 0 l 1,6,-1
 41.7725 0 l 1,7,-1
 162.482 621 l 1,8,-1
 -20.5176 621 l 1,9,-1
 30.0215 881 l 1,10,-1
 213.021 881 l 1,11,-1
 344.228 1556 l 1,0,-1
EndSplineSet
EndChar
StartChar: uni019B
Encoding: 411 411 411
Width: 1212
Flags: W
TeX: 117 0 0 0
AnchorPoint: "above" 745.23 1520 basechar 0
Fore
-90.2275 0 m 1,0,-1
 457.04 1020 l 1,1,-1
 420.4 1229.35 l 1,2,-1
 83.0332 1128 l 1,3,-1
 71.1084 1257 l 1,4,-1
 398.577 1354.04 l 1,5,-1
 363.228 1556 l 1,6,-1
 721.228 1556 l 1,7,-1
 739.395 1454.52 l 1,8,-1
 1086.84 1554 l 1,9,-1
 1096.76 1425 l 1,10,-1
 761.952 1328.5 l 1,11,-1
 999.772 0 l 1,12,-1
 641.772 0 l 1,13,-1
 549.684 514 l 1,14,-1
 267.772 0 l 1,15,-1
 -90.2275 0 l 1,0,-1
EndSplineSet
EndChar
StartChar: uni019C
Encoding: 412 412 412
Width: 2134
Flags: W
TeX: 117 0 0 0
Fore
825.674 186 m 1,0,1
 737.458 82 737.458 82 633.364 27.5 c 128,-1,2
 529.271 -27 529.271 -27 417.271 -27 c 0,3,4
 235.432 -27 235.432 -27 146.402 92 c 128,-1,5
 66.2314 199.159 66.2314 199.159 112.658 438 c 2,6,-1
 317.729 1493 l 1,7,-1
 677.729 1493 l 1,8,-1
 491.707 536 l 1,9,10
 488.18 523 488.18 523 484.959 509 c 128,-1,11
 481.737 495 481.737 495 476.684 469 c 0,12,13
 453.553 350 453.553 350 478.153 296.5 c 128,-1,14
 502.754 243 502.754 243 580.754 243 c 0,15,16
 682.754 243 682.754 243 754.582 327 c 128,-1,17
 826.409 411 826.409 411 859.316 570 c 1,18,-1
 1038.73 1493 l 1,19,-1
 1398.73 1493 l 1,20,-1
 1212.71 536 l 2,21,22
 1176.55 349.998 1176.55 349.998 1198.15 296.5 c 128,-1,23
 1219.75 243 1219.75 243 1301.75 243 c 0,24,25
 1405.39 243 1405.39 243 1477.18 327.5 c 128,-1,26
 1549.79 412.967 1549.79 412.967 1580.12 569 c 2,27,-1
 1759.73 1493 l 1,28,-1
 2119.73 1493 l 1,29,-1
 1829.52 0 l 1,30,-1
 1469.52 0 l 1,31,-1
 1501.4 164 l 1,32,33
 1416.93 69 1416.93 69 1322.1 21 c 128,-1,34
 1227.27 -27 1227.27 -27 1124.27 -27 c 0,35,36
 1008.27 -27 1008.27 -27 930.156 29 c 128,-1,37
 852.042 85 852.042 85 825.674 186 c 1,0,1
EndSplineSet
EndChar
StartChar: uni019D
Encoding: 413 413 413
Width: 1714
Flags: W
TeX: 117 0 0 0
AnchorPoint: "above" 1069.2 1520 basechar 0
Fore
110.928 145 m 2,0,-1
 372.953 1493 l 1,1,-1
 802.953 1493 l 1,2,-1
 1146.91 469 l 1,3,-1
 1345.95 1493 l 1,4,-1
 1710.95 1493 l 1,5,-1
 1420.74 0 l 1,6,-1
 990.743 0 l 1,7,-1
 646.788 1024 l 1,8,-1
 475.928 145 l 2,9,10
 428.829 -97.3018 428.829 -97.3018 323.903 -215.441 c 0,11,12
 296.309 -246.511 296.309 -246.511 263.372 -272 c 0,13,14
 85.0469 -410 85.0469 -410 -221.953 -410 c 2,15,-1
 -299.953 -410 l 1,16,-1
 -243.389 -119 l 1,17,-1
 -183.389 -119 l 2,18,19
 -63.3887 -119 -63.3887 -119 11.1357 -52 c 0,20,21
 85.6592 15 85.6592 15 110.928 145 c 2,0,-1
EndSplineSet
EndChar
StartChar: uni019F
Encoding: 415 415 415
Width: 1741
Flags: W
TeX: 117 0 0 0
Fore
1020.55 1520 m 0,0,1
 1380.55 1520 1380.55 1520 1544.5 1314 c 0,2,3
 1708.46 1108 1708.46 1108 1637.9 745 c 0,4,5
 1567.54 383 1567.54 383 1323.5 177 c 0,6,7
 1079.45 -29 1079.45 -29 719.452 -29 c 0,8,9
 360.452 -29 360.452 -29 195.995 177 c 0,10,11
 31.5371 383 31.5371 383 101.902 745 c 0,12,13
 172.463 1108 172.463 1108 417.005 1314 c 0,14,15
 661.548 1520 661.548 1520 1020.55 1520 c 0,0,1
966.315 1241 m 0,16,17
 790.315 1241 790.315 1241 668.046 1111 c 0,18,19
 568.483 1005.14 568.483 1005.14 519.576 829 c 1,20,-1
 1253.89 829 l 1,21,22
 1273.46 1005.14 1273.46 1005.14 1215.05 1111 c 0,23,24
 1143.32 1241 1143.32 1241 966.315 1241 c 0,16,17
482.17 571 m 1,25,26
 483.437 457.055 483.437 457.055 525.954 380 c 0,27,28
 597.685 250 597.685 250 773.685 250 c 0,29,30
 950.685 250 950.685 250 1072.95 380 c 0,31,32
 1145.43 457.055 1145.43 457.055 1190.99 571 c 1,33,-1
 482.17 571 l 1,25,26
EndSplineSet
EndChar
StartChar: uni01A2
Encoding: 418 418 418
Width: 2281
Flags: W
TeX: 117 0 0 0
Fore
966.315 1241 m 0,0,1
 790.315 1241 790.315 1241 668.046 1111 c 0,2,3
 545.776 981 545.776 981 499.902 745 c 0,4,5
 454.224 510 454.224 510 525.954 380 c 0,6,7
 597.685 250 597.685 250 773.685 250 c 0,8,9
 950.685 250 950.685 250 1072.95 380 c 1,10,-1
 1215.05 1111 l 1,11,12
 1143.32 1241 1143.32 1241 966.315 1241 c 0,0,1
1596.09 0 m 1,13,-1
 1778.42 938 l 2,14,15
 1803.69 1068.01 1803.69 1068.01 1755.21 1135 c 0,16,17
 1706.73 1202 1706.73 1202 1586.73 1202 c 2,18,-1
 1522.73 1202 l 1,19,-1
 1323.5 177 l 1,20,21
 1079.45 -29 1079.45 -29 719.452 -29 c 0,22,23
 360.452 -29 360.452 -29 195.995 177 c 0,24,25
 31.5371 383 31.5371 383 101.902 745 c 0,26,27
 172.463 1108 172.463 1108 417.005 1314 c 0,28,29
 661.548 1520 661.548 1520 1020.55 1520 c 0,30,31
 1150.88 1520 1150.88 1520 1255.52 1493 c 2,32,-1
 1661.3 1493 l 2,33,34
 1970.96 1493 1970.96 1493 2092.97 1355 c 0,35,36
 2217.17 1214.54 2217.17 1214.54 2163.42 938 c 2,37,-1
 1981.09 0 l 1,38,-1
 1596.09 0 l 1,13,-1
EndSplineSet
EndChar
StartChar: uni01A3
Encoding: 419 419 419
Width: 1971
Flags: W
TeX: 117 0 0 0
Fore
809.674 891 m 0,0,1
 690.674 891 690.674 891 611.555 805.5 c 0,2,3
 532.435 720 532.435 720 501.14 559 c 0,4,5
 469.845 398 469.845 398 515.725 312.5 c 0,6,7
 561.605 227 561.605 227 680.605 227 c 0,8,9
 797.605 227 797.605 227 876.225 312.5 c 1,10,-1
 972.055 805.5 l 1,11,12
 926.674 891 926.674 891 809.674 891 c 0,0,1
1252.56 -442 m 1,13,-1
 1466.38 658 l 2,14,15
 1492.62 793 1492.62 793 1463.57 839 c 0,16,17
 1434.51 885 1434.51 885 1332.51 885 c 2,18,-1
 1260.01 885 l 1,19,-1
 1112.67 127 l 1,20,21
 919.844 -29 919.844 -29 630.844 -29 c 0,22,23
 340.844 -29 340.844 -29 207.667 127 c 0,24,25
 74.4902 283 74.4902 283 128.14 559 c 0,26,27
 181.788 835 181.788 835 375.612 991 c 0,28,29
 569.436 1147 569.436 1147 859.436 1147 c 0,30,31
 979.666 1147 979.666 1147 1072.75 1120 c 2,32,-1
 1493.19 1120 l 2,33,34
 1698.19 1120 1698.19 1120 1783.15 1001.5 c 0,35,36
 1868.12 883 1868.12 883 1824.38 658 c 2,37,-1
 1610.56 -442 l 1,38,-1
 1252.56 -442 l 1,13,-1
EndSplineSet
EndChar
StartChar: uni01A4
Encoding: 420 420 420
Width: 1601
Flags: W
TeX: 117 0 0 0
AnchorPoint: "above" 1027.35 1520 basechar 0
Fore
763.873 1214 m 1,0,-1
 682.816 797 l 1,1,-1
 895.816 797 l 2,2,3
 1007.82 797 1007.82 797 1079.41 851.5 c 0,4,5
 1151 906 1151 906 1170.44 1006 c 0,6,7
 1189.88 1106 1189.88 1106 1139.38 1160 c 0,8,9
 1088.87 1214 1088.87 1214 976.873 1214 c 2,10,-1
 763.873 1214 l 1,0,-1
382.178 1231 m 1,11,12
 308.824 1231 308.824 1231 302.81 1230.45 c 0,13,14
 256.815 1226.27 256.815 1226.27 239.096 1210 c 0,15,16
 202.108 1176.04 202.108 1176.04 189.514 1125.9 c 0,17,18
 186.126 1112.41 186.126 1112.41 179.632 1079 c 1,19,-1
 -75.3682 1079 l 1,20,-1
 -60.4014 1156 l 2,21,22
 -33.5771 1294 -33.5771 1294 27.2383 1359.26 c 0,23,24
 49.8076 1383.48 49.8076 1383.48 88.2627 1411.5 c 0,25,26
 175.289 1474.91 175.289 1474.91 316.648 1488.18 c 0,27,28
 367.982 1493 367.982 1493 433.104 1493 c 2,29,-1
 1072.1 1493 l 2,30,31
 1357.1 1493 1357.1 1493 1485.02 1366.5 c 0,32,33
 1612.93 1240 1612.93 1240 1567.44 1006 c 0,34,35
 1521.76 771 1521.76 771 1344.67 644.5 c 0,36,37
 1167.58 518 1167.58 518 882.584 518 c 2,38,-1
 628.584 518 l 1,39,-1
 527.896 0 l 1,40,-1
 142.896 0 l 1,41,-1
 382.178 1231 l 1,11,12
EndSplineSet
EndChar
StartChar: uni01A5
Encoding: 421 421 421
Width: 1466
Flags: W
TeX: 117 0 0 0
Fore
653.043 1198 m 2,0,-1
 606.003 956 l 1,1,2
 699.057 1054 699.057 1054 798.091 1100.5 c 0,3,4
 897.129 1147 897.129 1147 1014.13 1147 c 0,5,6
 1221.13 1147 1221.13 1147 1322.15 982.5 c 0,7,8
 1423.18 818.004 1423.18 818.004 1372.83 559 c 0,9,10
 1322.49 299.994 1322.49 299.994 1157.51 135.5 c 0,11,12
 992.528 -29 992.528 -29 785.538 -29 c 0,13,14
 668.538 -29 668.538 -29 587.577 17.5 c 0,15,16
 506.615 64 506.615 64 451.665 162 c 1,17,-1
 337.369 -426 l 1,18,-1
 -20.6309 -426 l 1,19,-1
 295.043 1198 l 2,20,21
 327.796 1366.5 327.796 1366.5 449.623 1468.5 c 0,22,23
 554.131 1556 554.131 1556 782.631 1556 c 2,24,-1
 1056.63 1556 l 1,25,-1
 1010.95 1321 l 1,26,-1
 812.951 1321 l 2,27,28
 736.957 1321 736.957 1321 701.606 1293.5 c 0,29,30
 666.263 1266.01 666.263 1266.01 653.043 1198 c 2,0,-1
830.591 887 m 0,31,32
 715.591 887 715.591 887 637.665 802.5 c 0,33,34
 559.74 718 559.74 718 528.834 559 c 0,35,36
 497.928 400 497.928 400 543.002 315.5 c 0,37,38
 588.077 231 588.077 231 703.077 231 c 0,39,40
 818.077 231 818.077 231 894.905 315 c 0,41,42
 971.732 399 971.732 399 1002.83 559 c 0,43,44
 1033.93 719 1033.93 719 989.763 803 c 0,45,46
 945.591 887 945.591 887 830.591 887 c 0,31,32
EndSplineSet
EndChar
StartChar: uni01A6
Encoding: 422 422 422
Width: 1511
Flags: W
TeX: 117 0 0 0
Fore
521.003 258 m 1,0,-1
 470.854 0 l 1,1,-1
 85.8535 0 l 1,2,-1
 376.062 1493 l 1,3,-1
 761.062 1493 l 1,4,-1
 710.524 1233 l 1,5,-1
 964.524 1233 l 2,6,7
 1249.52 1233 1249.52 1233 1377.43 1106.5 c 0,8,9
 1505.35 980 1505.35 980 1459.67 745 c 0,10,11
 1414.18 511 1414.18 511 1237.09 384.5 c 0,12,13
 1149.14 321.676 1149.14 321.676 1034.58 290.053 c 1,14,-1
 1085.47 -74 l 2,15,16
 1096.21 -150.879 1096.21 -150.879 1129.75 -178 c 0,17,18
 1165.62 -207 1165.62 -207 1256.62 -207 c 2,19,-1
 1368.62 -207 l 1,20,-1
 1322.94 -442 l 1,21,-1
 1115.94 -442 l 2,22,23
 960.938 -442 960.938 -442 880.918 -367.5 c 0,24,25
 806.85 -298.54 806.85 -298.54 766.249 -106 c 2,26,-1
 720.49 111 l 2,27,28
 699.236 211.789 699.236 211.789 694.229 218 c 0,29,30
 670.531 247.388 670.531 247.388 623.626 258 c 2,31,-1
 521.003 258 l 1,0,-1
656.681 956 m 1,32,-1
 575.235 537 l 1,33,-1
 788.235 537 l 2,34,35
 900.235 537 900.235 537 971.829 591.5 c 0,36,37
 1043.42 646 1043.42 646 1062.67 745 c 0,38,39
 1082.3 846 1082.3 846 1031.99 901 c 0,40,41
 981.681 956 981.681 956 869.681 956 c 2,42,-1
 656.681 956 l 1,32,-1
EndSplineSet
EndChar
StartChar: uni01A7
Encoding: 423 423 423
Width: 1475
Flags: W
TeX: 117 0 0 0
AnchorPoint: "above" 853.548 1520 basechar 0
Fore
287.163 1446 m 1,0,-1
 225.739 1130 l 1,1,2
 359.43 1185 359.43 1185 481.873 1213 c 128,-1,3
 604.315 1241 604.315 1241 708.315 1241 c 0,4,5
 846.315 1241 846.315 1241 904.929 1203 c 128,-1,6
 963.543 1165 963.543 1165 947.992 1085 c 0,7,8
 936.329 1025 936.329 1025 885.317 991.5 c 128,-1,9
 834.306 958 834.306 958 712.641 934 c 2,10,-1
 542.227 901 l 2,11,12
 283.507 851 283.507 851 158.681 749 c 128,-1,13
 33.8535 647 33.8535 647 -2.69043 459 c 0,14,15
 -50.7021 212 -50.7021 212 72.375 91.5 c 128,-1,16
 195.452 -29 195.452 -29 496.452 -29 c 0,17,18
 638.452 -29 638.452 -29 786.701 -2 c 128,-1,19
 934.949 25 934.949 25 1088.25 78 c 1,20,-1
 1151.42 403 l 1,21,22
 993.651 327 993.651 327 852.668 288.5 c 128,-1,23
 711.685 250 711.685 250 587.685 250 c 0,24,25
 461.685 250 461.685 250 402.849 292 c 128,-1,26
 344.013 334 344.013 334 359.174 412 c 0,27,28
 372.781 482 372.781 482 425.667 520 c 128,-1,29
 478.554 558 478.554 558 620.385 588 c 2,30,-1
 775.8 621 l 2,31,32
 1009.13 669 1009.13 669 1133.04 774 c 128,-1,33
 1256.95 879 1256.95 879 1291.55 1057 c 0,34,35
 1334.9 1280 1334.9 1280 1214.22 1400 c 128,-1,36
 1093.55 1520 1093.55 1520 823.548 1520 c 0,37,38
 700.548 1520 700.548 1520 566.951 1501.5 c 128,-1,39
 433.355 1483 433.355 1483 287.163 1446 c 1,0,-1
EndSplineSet
EndChar
StartChar: uni01A8
Encoding: 424 424 424
Width: 1219
Flags: W
TeX: 117 0 0 0
AnchorPoint: "above" 716.296 1147 basechar 0
Fore
208.244 1085 m 1,0,-1
 155.373 813 l 1,1,2
 279.703 861 279.703 861 391.368 885 c 128,-1,3
 503.033 909 503.033 909 598.033 909 c 0,4,5
 700.033 909 700.033 909 744.576 883.5 c 128,-1,6
 789.12 858 789.12 858 778.817 805 c 0,7,8
 770.459 762 770.459 762 728.488 739 c 128,-1,9
 686.518 716 686.518 716 587.38 705 c 1,10,-1
 522.63 696 l 2,11,12
 240.827 661 240.827 661 130.276 581 c 128,-1,13
 19.7256 501 19.7256 501 -13.5127 330 c 0,14,15
 -48.3076 151 -48.3076 151 66.1982 61 c 128,-1,16
 180.704 -29 180.704 -29 442.704 -29 c 0,17,18
 553.704 -29 553.704 -29 675.606 -11.5 c 128,-1,19
 797.508 6 797.508 6 929.311 41 c 1,20,-1
 982.183 313 l 1,21,22
 865.074 261 865.074 261 747.521 235 c 128,-1,23
 629.967 209 629.967 209 513.967 209 c 0,24,25
 408.967 209 408.967 209 361.604 238 c 128,-1,26
 314.241 267 314.241 267 325.32 324 c 0,27,28
 334.651 372 334.651 372 375.719 395.5 c 128,-1,29
 416.787 419 416.787 419 528.313 432 c 2,30,-1
 592.869 440 l 2,31,32
 837.7 470 837.7 470 949.445 551 c 128,-1,33
 1061.19 632 1061.19 632 1093.26 797 c 0,34,35
 1127.86 975 1127.86 975 1022.58 1061 c 128,-1,36
 917.296 1147 917.296 1147 665.296 1147 c 0,37,38
 566.296 1147 566.296 1147 454.38 1132 c 128,-1,39
 342.464 1117 342.464 1117 208.244 1085 c 1,0,-1
EndSplineSet
EndChar
StartChar: uni01AA
Encoding: 426 426 426
Width: 1130
Flags: W
TeX: 117 0 0 0
Fore
474.102 1554 m 1,31,32
 587.237 1554 l 2,30,-1
 792.237 1554 792.237 1554 877.3 1436 c 0,28,29
 947.657 1337.35 947.657 1337.35 932.301 1179.59 c 1,26,27
 1048.01 1179.39 1048.01 1179.39 1103.34 1179 c 1,24,25
 1062.33 968 l 1,23,-1
 894.33 968 l 1,22,-1
 689.453 -86 l 2,21,-1
 676.235 -154 676.235 -154 700.793 -182 c 0,19,20
 725.545 -209 725.545 -209 801.545 -209 c 2,17,18
 999.544 -209 l 1,16,-1
 953.864 -444 l 1,15,-1
 679.865 -444 l 2,14,-1
 465.865 -444 465.865 -444 380.971 -356 c 0,12,13
 295.882 -269 295.882 -269 331.453 -86 c 2,10,11
 536.412 968.424 l 1,9,-1
 327.524 969 l 2,8,-1
 20.4033 969.846 20.4033 969.846 70.1729 1245 c 0,6,7
 121.333 1527.84 121.333 1527.84 410.132 1553.46 c 1,4,5
 410.237 1554 l 1,3,-1
 416.6 1554 l 1,2,-1
 474.102 1554 l 1,31,32
572.275 1179.64 m 1,33,34
 575.933 1244 575.933 1244 557.616 1273 c 0,42,43
 528.558 1319 528.558 1319 426.558 1319 c 2,40,41
 383.275 1319 l 2,39,-1
 287.926 1311.88 287.926 1311.88 277.923 1254 c 0,37,38
 264.962 1179 264.962 1179 369.345 1179 c 0,35,36
 432.883 1179.45 432.883 1179.45 572.275 1179.64 c 1,33,34
EndSplineSet
EndChar
StartChar: uni01AB
Encoding: 427 427 427
Width: 979
Flags: W
TeX: 117 0 0 0
AnchorPoint: "above" 592.656 1520 basechar 0
Fore
745.718 1438 m 1,0,-1
 683.904 1120 l 1,1,-1
 1052.9 1120 l 1,2,-1
 1003.14 864 l 1,3,-1
 634.144 864 l 1,4,-1
 541.812 389 l 2,5,6
 526.65 311 526.65 311 552.306 283.5 c 0,7,8
 577.96 256 577.96 256 669.96 256 c 2,9,-1
 853.96 256 l 1,10,-1
 803.98 -0 l 2,11,12
 758.464 -210.324 758.464 -210.324 633.316 -323.5 c 0,13,14
 502.282 -442 502.282 -442 297.282 -442 c 2,15,-1
 120.282 -442 l 1,16,-1
 165.962 -207 l 1,17,-1
 227.962 -207 l 2,18,19
 329.963 -207 329.963 -207 376.903 -161 c 0,20,21
 420.532 -118.245 420.532 -118.245 446.279 1.38965 c 1,22,23
 276.266 11.0889 276.266 11.0889 213.901 88.5 c 0,24,25
 142.604 177 142.604 177 183.812 389 c 2,26,-1
 276.144 864 l 1,27,-1
 98.1436 864 l 1,28,-1
 147.904 1120 l 1,29,-1
 325.904 1120 l 1,30,-1
 387.718 1438 l 1,31,-1
 745.718 1438 l 1,0,-1
EndSplineSet
EndChar
StartChar: uni01AC
Encoding: 428 428 428
Width: 1447
Flags: W
TeX: 117 0 0 0
AnchorPoint: "above" 911.354 1520 basechar 0
Fore
789.104 1493 m 1,0,-1
 1581.1 1493 l 1,1,-1
 1524.54 1202 l 1,2,-1
 1029.54 1202 l 1,3,-1
 795.896 0 l 1,4,-1
 410.896 0 l 1,5,-1
 644.54 1202 l 1,6,-1
 641.54 1202 l 2,7,8
 488.546 1202 488.546 1202 432.653 1164 c 0,9,10
 376.768 1126 376.768 1126 356.357 1021 c 2,11,-1
 346.833 972 l 1,12,-1
 73.833 972 l 1,13,-1
 108.238 1149 l 2,14,15
 143.423 1330.01 143.423 1330.01 255.263 1411.5 c 0,16,17
 367.11 1493 367.11 1493 581.104 1493 c 2,18,-1
 789.104 1493 l 1,0,-1
EndSplineSet
EndChar
StartChar: uni01AD
Encoding: 429 429 429
Width: 979
Flags: W
TeX: 117 0 0 0
AnchorPoint: "above" 571.909 1755 basechar 0
Fore
644.64 1198 m 2,0,-1
 629.479 1120 l 1,1,-1
 998.479 1120 l 1,2,-1
 948.717 864 l 1,3,-1
 579.717 864 l 1,4,-1
 487.386 389 l 2,5,6
 472.225 311 472.225 311 497.879 283.5 c 0,7,8
 523.533 256 523.533 256 615.533 256 c 2,9,-1
 799.533 256 l 1,10,-1
 749.772 0 l 1,11,-1
 442.772 0 l 2,12,13
 230.772 0 230.772 0 159.475 88.5 c 0,14,15
 88.1777 177 88.1777 177 129.386 389 c 2,16,-1
 221.717 864 l 1,17,-1
 43.7168 864 l 1,18,-1
 93.4785 1120 l 1,19,-1
 271.479 1120 l 1,20,-1
 286.64 1198 l 2,21,22
 319.393 1366.5 319.393 1366.5 441.22 1468.5 c 0,23,24
 545.728 1556 545.728 1556 774.228 1556 c 2,25,-1
 1048.23 1556 l 1,26,-1
 1002.55 1321 l 1,27,-1
 804.549 1321 l 2,28,29
 728.555 1321 728.555 1321 693.203 1293.5 c 0,30,31
 657.859 1266.01 657.859 1266.01 644.64 1198 c 2,0,-1
EndSplineSet
EndChar
StartChar: uni01AE
Encoding: 430 430 430
Width: 1397
Flags: W
TeX: 117 0 0 0
AnchorPoint: "above" 901.201 1520 basechar 0
Fore
634.389 1202 m 1,0,-1
 138.389 1202 l 1,1,-1
 194.953 1493 l 1,2,-1
 1570.95 1493 l 1,3,-1
 1514.39 1202 l 1,4,-1
 1019.39 1202 l 1,5,-1
 813.928 145 l 2,6,7
 788.659 15.001 788.659 15.001 837.136 -52 c 0,8,9
 885.611 -119.001 885.611 -119.001 1005.61 -119 c 2,10,-1
 1065.61 -119 l 1,11,-1
 1009.05 -410 l 1,12,-1
 931.047 -410 l 2,13,14
 624.047 -410 624.047 -410 499.372 -272 c 0,15,16
 374.696 -134 374.696 -134 428.928 145 c 2,17,-1
 634.389 1202 l 1,0,-1
EndSplineSet
EndChar
StartChar: uni01B1
Encoding: 433 433 433
Width: 1575
Flags: W
TeX: 117 0 0 0
Fore
1323.9 1224 m 1,0,-1
 1614.9 1224 l 1,1,-1
 1664.66 1480 l 1,2,-1
 1055.66 1480 l 1,3,-1
 999.096 1189 l 1,4,5
 1108.38 1103 1108.38 1103 1148.82 971.5 c 0,6,7
 1189.26 840 1189.26 840 1157.18 675 c 0,8,9
 1117.72 472 1117.72 472 993.579 355.5 c 0,10,11
 869.438 239 869.438 239 691.434 239 c 0,12,13
 514.43 239 514.43 239 435.579 355.5 c 0,14,15
 356.725 472 356.725 472 396.184 675 c 0,16,17
 428.062 839 428.062 839 519.817 971.5 c 0,18,19
 611.573 1104 611.573 1104 754.096 1189 c 1,20,-1
 810.66 1480 l 1,21,-1
 201.66 1480 l 1,22,-1
 151.898 1224 l 1,23,-1
 442.898 1224 l 1,24,25
 293.379 1103 293.379 1103 205.359 964 c 0,26,27
 117.34 825 117.34 825 85.4629 661 c 0,28,29
 24.623 348.01 24.623 348.01 175.98 159.5 c 0,30,31
 327.334 -29 327.334 -29 639.34 -29 c 0,32,33
 952.35 -29 952.35 -29 1176.98 159.5 c 0,34,35
 1401.62 348.01 1401.62 348.01 1462.46 661 c 0,36,37
 1494.34 825.011 1494.34 825.011 1460.36 964 c 0,38,39
 1426.37 1103.01 1426.37 1103.01 1323.9 1224 c 1,0,-1
EndSplineSet
EndChar
StartChar: uni01B2
Encoding: 434 434 434
Width: 1666
Flags: W
TeX: 117 0 0 0
AnchorPoint: "above" 528.354 1520 basechar 0
Fore
730.896 0 m 0,32,33
 652.896 0 l 2,8,9
 345.896 0 345.896 0 221.22 138 c 0,10,11
 96.5439 276 96.5439 276 150.776 555 c 2,12,-1
 333.104 1493 l 1,13,-1
 718.104 1493 l 1,0,-1
 535.776 555 l 2,1,2
 510.507 425 510.507 425 558.983 358 c 0,3,4
 607.46 291 607.46 291 727.46 291 c 2,5,-1
 787.46 291 l 0,12,13
 965.46 291 965.46 291 1089.61 407.5 c 0,10,11
 1233.32 542.365 1233.32 542.365 1259.1 675 c 0,8,9
 1298.61 878.239 1298.61 878.239 1250.74 971.5 c 0,6,7
 1167.32 1134 1167.32 1134 1017.79 1229 c 1,4,5
 1045.97 1374 l 1,3,-1
 1315.97 1374 l 1,0,-1
 1479.63 1236.97 1479.63 1236.97 1562.28 964 c 0,38,39
 1599.43 841.302 1599.43 841.302 1564.38 661 c 0,36,37
 1515.14 407.704 1515.14 407.704 1273.01 211.5 c 0,34,35
 1012 -0 1012 -0 730.896 0 c 0,32,33
EndSplineSet
EndChar
StartChar: uni01B3
Encoding: 435 435 435
Width: 1483
Flags: W
TeX: 117 0 0 0
AnchorPoint: "above" 888.277 1527 basechar 0
Fore
1065.48 1302.97 m 2,0,0
 1209.87 1476.09 1209.87 1476.09 1350.4 1511.02 c 0,18,19
 1473.77 1541.68 1473.77 1541.68 1606.44 1438.95 c 2,20,-1
 1754.04 1324.64 l 1,0,-1
 1578.86 1125.49 l 1,1,-1
 1544.21 1153.62 l 2,2,3
 1475.71 1209.24 1475.71 1209.24 1429.51 1195.99 c 0,4,5
 1380.14 1181.83 1380.14 1181.83 1276.8 1060.64 c 2,0,0
 908.724 629 l 1,5,-1
 786.459 0 l 1,6,-1
 401.459 0 l 1,7,-1
 523.724 629 l 1,8,-1
 122.669 1493 l 1,0,-1
 543.669 1493 l 1,1,-1
 780.258 961 l 1,2,-1
 1065.48 1302.97 l 2,0,0
EndSplineSet
EndChar
StartChar: uni01B4
Encoding: 436 436 436
Width: 1485
Flags: W
TeX: 117 0 0 0
AnchorPoint: "above" 810.433 1147 basechar 0
AnchorPoint: "below" 503.895 -430 basechar 0
Fore
1220.66 737.056 m 1,0,0
 1301.27 871.542 1301.27 871.542 1348.67 894.568 c 0,4,5
 1401.91 920.416 1401.91 920.416 1498.15 877.131 c 2,2,3
 1603.04 829.953 l 1,1,-1
 1740.97 1052 l 1,0,-1
 1503.47 1158.25 l 2,20,-1
 1346.31 1228.56 1346.31 1228.56 1227.97 1175.96 c 0,18,19
 1078.64 1109.57 1078.64 1109.57 980.064 924 c 2,0,0
 680.455 360 l 1,2,-1
 527.185 1120 l 1,1,-1
 169.185 1120 l 1,0,-1
 442.12 -43 l 1,15,-1
 426.095 -74 l 1,14,-1
 388.516 -149 388.516 -149 341.379 -178 c 128,-1,13
 294.242 -207 294.242 -207 203.242 -207 c 2,11,12
 91.2422 -207 l 1,10,-1
 45.5625 -442 l 1,9,-1
 252.562 -442 l 2,8,-1
 407.562 -442 407.562 -442 516.544 -367.5 c 128,-1,7
 624.125 -293.957 624.125 -293.957 732.874 -106 c 2,5,6
 1220.66 737.056 l 1,0,0
EndSplineSet
EndChar
StartChar: uni01B5
Encoding: 437 437 437
Width: 1485
Flags: W
TeX: 117 0 0 0
AnchorPoint: "above" 867.354 1520 basechar 0
Fore
260.104 1493 m 1,0,-1
 1515.1 1493 l 1,1,-1
 1469.81 1260 l 1,2,-1
 1082.85 881 l 1,3,-1
 1277.14 881 l 1,4,-1
 1226.61 621 l 1,5,-1
 817.392 621 l 1,6,-1
 480.46 291 l 1,7,-1
 1304.46 291 l 1,8,-1
 1247.9 0 l 1,9,-1
 -53.1045 0 l 1,10,-1
 -7.81445 233 l 1,11,-1
 388.336 621 l 1,12,-1
 209.605 621 l 1,13,-1
 260.145 881 l 1,14,-1
 653.797 881 l 1,15,-1
 981.54 1202 l 1,16,-1
 203.54 1202 l 1,17,-1
 260.104 1493 l 1,0,-1
EndSplineSet
EndChar
StartChar: uni01B6
Encoding: 438 438 438
Width: 1192
Flags: W
TeX: 117 0 0 0
AnchorPoint: "above" 710.102 1147 basechar 0
Fore
225.853 1120 m 1,0,-1
 1202.85 1120 l 1,1,-1
 1154.26 870 l 1,2,-1
 937.063 682 l 1,3,-1
 1060.71 682 l 1,4,-1
 1017.76 461 l 1,5,-1
 681.743 461 l 1,6,-1
 444.908 256 l 1,7,-1
 1034.91 256 l 1,8,-1
 985.147 0 l 1,9,-1
 -16.8525 0 l 1,10,-1
 31.7422 250 l 1,11,-1
 275.509 461 l 1,12,-1
 158.757 461 l 1,13,-1
 201.715 682 l 1,14,-1
 530.828 682 l 1,15,-1
 741.092 864 l 1,16,-1
 176.092 864 l 1,17,-1
 225.853 1120 l 1,0,-1
EndSplineSet
EndChar
StartChar: uni01B7
Encoding: 439 439 439
Width: 1582
Flags: W
TeX: 117 0 0 0
Fore
408.159 400 m 17,0,0
 388.915 300.999 388.915 300.999 460.113 248 c 0,27,28
 531.311 195 531.311 195 684.311 195 c 24,25,26
 841.311 195 841.311 195 933.113 248 c 0,27,28
 1024.92 300.999 1024.92 300.999 1044.16 400 c 0,29,30
 1063.99 502 1063.99 502 990.69 554.5 c 0,31,32
 917.396 607 917.396 607 754.396 607 c 2,33,-1
 567.396 607 l 1,34,-1
 615.019 851.956 l 1,0,-1
 988.052 1202 l 1,1,-1
 210.052 1202 l 1,2,-1
 266.616 1493 l 1,3,-1
 1521.62 1493 l 1,4,-1
 1473.02 1243 l 1,5,-1
 1003.66 809 l 1,6,7
 1134.93 798.372 1134.93 798.372 1212.44 777 c 0,8,9
 1331.67 744.123 1331.67 744.123 1395.66 631.5 c 0,10,11
 1454.26 529.145 1454.26 529.145 1426.44 386 c 0,12,13
 1383.29 164.003 1383.29 164.003 1190.83 48.5 c 0,14,15
 998.384 -67 998.384 -67 635.384 -67 c 24,16,17
 254.001 -67 254.001 -67 124.834 48.5 c 0,14,15
 -19.9932 178.003 -19.9932 178.003 23.1592 400 c 1,12,13
 408.159 400 l 17,0,0
EndSplineSet
EndChar
StartChar: uni01B8
Encoding: 440 440 440
Width: 1582
Flags: W
TeX: 117 0 0 0
Fore
1044.16 400 m 9,0,0
 1429.16 400 l 1,12,13
 1386.01 178.003 1386.01 178.003 1190.83 48.5 c 0,14,15
 1016.76 -67 1016.76 -67 635.384 -67 c 24,16,17
 272.384 -67 272.384 -67 124.834 48.5 c 0,14,15
 -22.7139 164.003 -22.7139 164.003 20.4375 386 c 0,12,13
 48.2617 529.145 48.2617 529.145 146.658 631.5 c 0,10,11
 254.425 744.123 254.425 744.123 386.44 777 c 0,8,9
 472.258 798.372 472.258 798.372 607.66 809 c 1,6,7
 307.021 1243 l 1,5,-1
 355.616 1493 l 1,4,-1
 1610.62 1493 l 1,3,-1
 1554.05 1202 l 1,2,-1
 776.052 1202 l 1,1,-1
 1013 851.956 l 1,0,-1
 965.396 607 l 1,34,-1
 778.396 607 l 2,33,-1
 615.396 607 615.396 607 521.69 554.5 c 0,31,32
 427.985 502 427.985 502 408.159 400 c 0,29,30
 388.915 300.999 388.915 300.999 460.113 248 c 0,27,28
 531.311 195 531.311 195 688.311 195 c 24,25,26
 841.311 195 841.311 195 933.113 248 c 0,27,28
 1024.92 300.999 1024.92 300.999 1044.16 400 c 9,0,0
EndSplineSet
EndChar
StartChar: uni01B9
Encoding: 441 441 441
Width: 1312
Flags: W
TeX: 117 0 0 0
AnchorPoint: "above" 856.865 1147 basechar 0
Fore
1005 478.956 m 1,0,-1
 709.855 864 l 1,1,-1
 1274.86 864 l 1,2,-1
 1324.62 1120 l 1,3,-1
 347.616 1120 l 1,4,-1
 299.021 870 l 1,5,-1
 632.66 436 l 1,6,7
 468.867 426.521 468.867 426.521 378.44 404 c 0,8,9
 246.426 371.123 246.426 371.123 138.658 258.5 c 0,10,11
 40.2622 156.145 40.2622 156.145 12.4375 13 c 0,12,13
 -30.7146 -208.996 -30.7146 -208.996 116.834 -324.5 c 0,14,15
 264.383 -440 264.383 -440 590.384 -440 c 0,16,17
 705.38 -440 705.38 -440 824.479 -421.5 c 0,18,19
 943.583 -402.999 943.583 -402.999 1063.77 -366 c 1,20,-1
 1121.5 -69 l 1,21,22
 1003 -123.002 1003 -123.002 891.156 -150.5 c 0,23,24
 779.309 -178 779.309 -178 676.311 -178 c 0,25,26
 523.311 -178 523.311 -178 452.113 -125 c 0,27,28
 380.916 -72.0005 380.916 -72.0005 400.159 27 c 0,29,30
 419.986 129 419.986 129 513.69 181.5 c 0,31,32
 607.396 234 607.396 234 770.396 234 c 2,33,-1
 957.396 234 l 1,34,-1
 1005 478.956 l 1,0,-1
EndSplineSet
EndChar
StartChar: uni01BB
Encoding: 443 443 443
Width: 1425
Flags: W
TeX: 117 0 0 0
Fore
497.28 283 m 1,0,-1
 1154.28 283 l 1,1,-1
 1099.27 0 l 1,2,-1
 14.2705 0 l 1,3,-1
 69.2803 283 l 1,4,-1
 418.396 546 l 1,5,-1
 192.402 546 l 1,6,-1
 242.941 806 l 1,7,-1
 758.834 806 l 1,8,9
 808.747 850.19 808.747 850.19 840.853 893 c 0,10,11
 888.1 956.002 888.1 956.002 901.316 1024 c 0,12,13
 921.725 1128.99 921.725 1128.99 863.667 1193 c 0,14,15
 805.613 1257 805.613 1257 688.607 1257 c 0,16,17
 598.592 1257 598.592 1257 484.123 1218.5 c 0,18,19
 369.594 1179.98 369.594 1179.98 232.867 1104 c 1,20,-1
 296.624 1432 l 1,21,22
 434.949 1474.99 434.949 1474.99 566.355 1497.5 c 0,23,24
 697.729 1520 697.729 1520 819.729 1520 c 0,25,26
 1087.73 1520 1087.73 1520 1213.29 1402 c 0,27,28
 1338.85 1284 1338.85 1284 1297.84 1073 c 0,29,30
 1274.12 950.999 1274.12 950.999 1190.62 845.5 c 0,31,32
 1175.79 826.767 1175.79 826.767 1156.33 806 c 1,33,-1
 1182.94 806 l 1,34,-1
 1132.4 546 l 1,35,-1
 848.034 546 l 1,36,-1
 497.28 283 l 1,0,-1
EndSplineSet
EndChar
StartChar: uni01BC
Encoding: 444 444 444
Width: 1582
Flags: W
TeX: 117 0 0 0
Fore
167.396 607 m 1,0,-1
 215.011 851.956 l 1,1,-1
 339.616 1493 l 1,2,-1
 1400.62 1493 l 1,3,-1
 1344.05 1202 l 1,4,-1
 668.052 1202 l 1,5,-1
 600.016 851.984 l 1,6,-1
 819.019 852 l 2,7,8
 1074.5 852.019 1074.5 852.019 1231.36 792 c 0,9,10
 1336.98 751.586 1336.98 751.586 1395.66 631.5 c 0,11,12
 1451.82 516.574 1451.82 516.574 1426.44 386 c 0,13,14
 1383.29 164.003 1383.29 164.003 1190.83 48.5 c 0,15,16
 998.384 -67 998.384 -67 635.384 -67 c 0,17,18
 254.001 -67 254.001 -67 124.834 48.5 c 0,19,20
 -19.9932 178.003 -19.9932 178.003 23.1592 400 c 1,21,-1
 408.159 400 l 1,22,23
 388.915 300.999 388.915 300.999 460.113 248 c 0,24,25
 531.311 195 531.311 195 684.311 195 c 0,26,27
 841.311 195 841.311 195 933.113 248 c 0,28,29
 1024.92 300.999 1024.92 300.999 1044.16 400 c 0,30,31
 1063.99 502 1063.99 502 990.69 554.5 c 0,32,33
 917.396 607 917.396 607 754.396 607 c 2,34,-1
 552.396 607 l 1,35,-1
 167.396 607 l 1,0,-1
EndSplineSet
EndChar
StartChar: uni01BD
Encoding: 445 445 445
Width: 1312
Flags: W
TeX: 117 0 0 0
Fore
151.396 234 m 1,0,-1
 199.011 478.956 l 1,1,-1
 323.616 1120 l 1,2,-1
 1172.62 1120 l 1,3,-1
 1129.66 899 l 1,4,-1
 638.658 899 l 1,5,-1
 557.019 478.999 l 1,6,-1
 563.019 479 l 2,7,8
 806.27 479.029 806.27 479.029 905.883 432 c 0,9,10
 1054.41 361.877 1054.41 361.877 1106.66 258.5 c 0,11,12
 1162.76 143.285 1162.76 143.285 1137.44 13 c 0,13,14
 1094.29 -208.997 1094.29 -208.997 901.834 -324.5 c 0,15,16
 709.384 -440 709.384 -440 383.384 -440 c 0,17,18
 268.384 -440 268.384 -440 156.479 -421.5 c 0,19,20
 44.5654 -402.999 44.5654 -402.999 -61.2324 -366 c 1,21,-1
 -3.50195 -69 l 1,22,23
 94.002 -123.001 94.002 -123.001 195.156 -150.5 c 0,24,25
 296.313 -178 296.313 -178 399.311 -178 c 0,26,27
 552.311 -178 552.311 -178 644.113 -125 c 0,28,29
 735.915 -72.001 735.915 -72.001 755.159 27 c 0,30,31
 774.985 129 774.985 129 701.69 181.5 c 0,32,33
 628.396 234 628.396 234 465.396 234 c 2,34,-1
 151.396 234 l 1,0,-1
EndSplineSet
EndChar
StartChar: uni01BE
Encoding: 446 446 446
Width: 1173
Flags: W
TeX: 117 0 0 0
Fore
288.522 789 m 1,0,-1
 348.197 1096 l 1,1,-1
 191.197 1096 l 1,2,-1
 228.907 1290 l 1,3,-1
 385.907 1290 l 1,4,-1
 414.675 1438 l 1,5,-1
 772.675 1438 l 1,6,-1
 743.907 1290 l 1,7,-1
 1001.91 1290 l 1,8,-1
 964.197 1096 l 1,9,-1
 706.197 1096 l 1,10,-1
 693.174 1029 l 1,11,12
 875.327 998.357 875.327 998.357 958.876 904 c 0,13,14
 1085.69 759.016 1085.69 759.016 1040.79 528 c 0,15,16
 998.961 312.811 998.961 312.811 841.145 180 c 0,17,18
 591.596 -30 591.596 -30 350.325 -30 c 0,19,20
 169.325 -30 169.325 -30 91.8232 -12 c 0,21,22
 14.1279 5 14.1279 5 -55.0684 40 c 1,23,-1
 2.85645 338 l 1,24,25
 72.498 295 72.498 295 146.416 274 c 0,26,27
 221.14 252 221.14 252 301.14 252 c 0,28,29
 480.14 252 480.14 252 601.3 366 c 0,30,31
 671.645 432.189 671.645 432.189 690.789 528 c 0,32,33
 704.59 599 704.59 599 662.363 675 c 0,34,35
 598.522 789 598.522 789 381.522 789 c 2,36,-1
 288.522 789 l 1,0,-1
EndSplineSet
EndChar
StartChar: uni01C0
Encoding: 448 448 448
Width: 762
Flags: W
TeX: 117 0 0 0
Fore
374.508 1493 m 1,0,-1
 759.508 1493 l 1,1,-1
 386.492 -426 l 1,2,-1
 1.49219 -426 l 1,3,-1
 374.508 1493 l 1,0,-1
EndSplineSet
EndChar
StartChar: uni01C2
Encoding: 450 450 450
Width: 1114
Flags: W
TeX: 117 0 0 0
Fore
547.508 1493 m 1,0,-1
 932.508 1493 l 1,1,-1
 823.655 933 l 1,2,-1
 1174.66 933 l 1,3,-1
 1128.98 698 l 1,4,-1
 777.976 698 l 1,5,-1
 735.212 478 l 1,6,-1
 1086.21 478 l 1,7,-1
 1040.14 241 l 1,8,-1
 689.144 241 l 1,9,-1
 559.492 -426 l 1,10,-1
 174.492 -426 l 1,11,-1
 304.144 241 l 1,12,-1
 -46.8564 241 l 1,13,-1
 -0.788086 478 l 1,14,-1
 350.212 478 l 1,15,-1
 392.976 698 l 1,16,-1
 41.9756 698 l 1,17,-1
 87.6553 933 l 1,18,-1
 438.655 933 l 1,19,-1
 547.508 1493 l 1,0,-1
EndSplineSet
EndChar
StartChar: uni01E4
Encoding: 484 484 484
Width: 1681
Flags: W
Fore
1447 382 m 1,0,-1
 1395 111 l 1,1,2
 1249 40 1249 40 1092 5.5 c 128,-1,3
 935 -29 935 -29 756 -29 c 0,4,5
 438 -29 438 -29 256 132.5 c 128,-1,6
 74 294 74 294 74 573 c 0,7,8
 74 754 74 754 131 912.5 c 128,-1,9
 188 1071 188 1071 301 1202 c 0,10,11
 439 1362 439 1362 626.5 1441 c 128,-1,12
 814 1520 814 1520 1055 1520 c 0,13,14
 1189 1520 1189 1520 1325 1492 c 128,-1,15
 1461 1464 1461 1464 1593 1409 c 1,16,-1
 1534 1100 l 1,17,18
 1412 1171 1412 1171 1295.5 1206 c 128,-1,19
 1179 1241 1179 1241 1061 1241 c 0,20,21
 803 1241 803 1241 641 1069 c 128,-1,22
 479 897 479 897 479 627 c 0,23,24
 479 448 479 448 573.5 349 c 128,-1,25
 668 250 668 250 840 250 c 0,26,27
 896 250 896 250 952 257.5 c 128,-1,28
 1008 265 1008 265 1065 281 c 1,29,-1
 1085 382 l 1,30,-1
 969 382 l 1,31,-1
 982 469 l 1,32,-1
 1102 469 l 1,33,-1
 1122 571 l 1,34,-1
 887 571 l 1,35,-1
 936 829 l 1,36,-1
 1534 829 l 1,37,-1
 1464 469 l 1,38,-1
 1587 469 l 1,39,-1
 1574 382 l 1,40,-1
 1447 382 l 1,0,-1
EndSplineSet
EndChar
StartChar: uni01E5
Encoding: 485 485 485
Width: 1466
Flags: W
Fore
756 887 m 0,0,1
 624 887 624 887 536.5 768 c 128,-1,2
 449 649 449 649 449 469 c 0,3,4
 449 367 449 367 496 313.5 c 128,-1,5
 543 260 543 260 633 260 c 0,6,7
 764 260 764 260 852 378.5 c 128,-1,8
 940 497 940 497 940 674 c 0,9,10
 940 778 940 778 893 832.5 c 128,-1,11
 846 887 846 887 756 887 c 0,0,1
784 -44 m 1,12,13
 822 21 822 21 840 113 c 2,14,-1
 856 190 l 1,15,16
 770 92 770 92 681 46 c 128,-1,17
 592 0 592 0 487 0 c 0,18,19
 297 0 297 0 186.5 122.5 c 128,-1,20
 76 245 76 245 76 457 c 0,21,22
 76 570 76 570 114.5 683.5 c 128,-1,23
 153 797 153 797 225 897 c 0,24,25
 313 1018 313 1018 427 1081.5 c 128,-1,26
 541 1145 541 1145 672 1145 c 0,27,28
 790 1145 790 1145 870.5 1099 c 128,-1,29
 951 1053 951 1053 1006 954 c 1,30,-1
 1036 1120 l 1,31,-1
 1397 1120 l 1,32,-1
 1208 147 l 2,33,34
 1188 42 1188 42 1151 -44 c 1,35,-1
 1311 -44 l 1,36,-1
 1289 -133 l 1,37,-1
 1106 -133 l 1,38,39
 1047 -231 1047 -231 960 -298 c 0,40,41
 770 -442 770 -442 432 -442 c 0,42,43
 328 -442 328 -442 231.5 -426 c 128,-1,44
 135 -410 135 -410 41 -377 c 1,45,-1
 94 -98 l 1,46,47
 179 -152 179 -152 264 -178.5 c 128,-1,48
 349 -205 349 -205 438 -205 c 0,49,50
 611 -205 611 -205 706 -133 c 1,51,-1
 282 -133 l 1,52,-1
 304 -44 l 1,53,-1
 784 -44 l 1,12,13
EndSplineSet
EndChar
StartChar: uni01F0
Encoding: 496 496 496
Width: 702
Flags: W
Fore
281 1120 m 1,0,-1
 641 1120 l 1,1,-1
 426 20 l 2,2,3
 380 -215 380 -215 254.5 -328.5 c 128,-1,4
 129 -442 129 -442 -84 -442 c 2,5,-1
 -262 -442 l 1,6,-1
 -217 -207 l 1,7,-1
 -154 -207 l 2,8,9
 -53 -207 -53 -207 -6.5 -161.5 c 128,-1,10
 40 -116 40 -116 66 20 c 2,11,-1
 281 1120 l 1,0,-1
625 1263 m 1,12,-1
 365 1263 l 1,13,-1
 182 1639 l 1,14,-1
 358 1639 l 1,15,-1
 514 1412 l 1,16,-1
 758 1639 l 1,17,-1
 954 1639 l 1,18,-1
 625 1263 l 1,12,-1
EndSplineSet
EndChar
StartChar: uni01F6
Encoding: 502 502 502
Width: 2639
Flags: W
TeX: 117 0 0 0
Fore
1178.32 924 m 1,0,-1
 1288.92 1493 l 1,1,-1
 1673.92 1493 l 1,2,-1
 1499.95 598 l 2,3,4
 1463.99 413 1463.99 413 1509.04 333.5 c 0,5,6
 1554.08 254 1554.08 254 1691.09 254 c 0,7,8
 1829.09 254 1829.09 254 1905.04 333.5 c 0,9,10
 1981 413.013 1981 413.013 2016.95 598 c 2,11,-1
 2118.42 1120 l 1,12,-1
 2503.42 1120 l 1,13,-1
 2401.95 598 l 2,14,15
 2340.35 281.014 2340.35 281.014 2151.21 126 c 0,16,17
 1962.07 -29 1962.07 -29 1636.08 -29 c 0,18,19
 1312.02 -30.1479 1312.02 -30.1479 1182.21 126 c 0,20,21
 1053.34 280.985 1053.34 280.985 1114.95 598 c 2,22,-1
 1121.76 633 l 1,23,-1
 553.757 633 l 1,24,-1
 430.715 0 l 1,25,-1
 45.7148 0 l 1,26,-1
 335.924 1493 l 1,27,-1
 720.924 1493 l 1,28,-1
 610.322 924 l 1,29,-1
 1178.32 924 l 1,0,-1
EndSplineSet
EndChar
StartChar: uni0221
Encoding: 545 545 545
Width: 1771
Flags: W
TeX: 117 0 0 0
AnchorPoint: "above" 1273.2 1520 basechar 0
AnchorPoint: "below" 592.739 0 basechar 0
Fore
1300.45 230 m 0,0,1
 1434.45 230 1434.45 230 1449.75 319 c 0,2,3
 1454.61 344 1454.61 344 1427.61 344 c 0,4,5
 1352.61 344 1352.61 344 1300.69 293 c 2,6,-1
 1254.56 246 l 1,7,8
 1273.45 230 1273.45 230 1300.45 230 c 0,0,1
606.642 231 m 0,9,10
 721.642 231 721.642 231 798.969 315 c 0,11,12
 875.297 399 875.297 399 906.398 559 c 128,-1,13
 937.499 719 937.499 719 893.827 803 c 0,14,15
 849.154 887 849.154 887 734.154 887 c 0,16,17
 620.154 887 620.154 887 543.827 803 c 0,18,19
 466.499 719 466.499 719 435.398 559 c 128,-1,20
 404.297 399 404.297 399 448.969 315 c 0,21,22
 492.642 231 492.642 231 606.642 231 c 0,9,10
1257.65 514 m 9,23,24
 1351.53 606 1351.53 606 1457.53 606 c 0,25,26
 1551.53 606 1551.53 606 1591.65 550 c 0,27,28
 1642.24 481 1642.24 481 1610.3 327 c 0,29,30
 1579.2 167 1579.2 167 1496.29 80 c 0,31,32
 1398.88 -25 1398.88 -25 1232.69 -26 c 0,33,34
 1141.69 -26 1141.69 -26 1075.74 0 c 17,35,36
 1025.36 -74 1025.36 -74 979.805 -154 c 25,37,-1
 829.8 -82 l 17,38,39
 860.491 -27 860.491 -27 928.456 86 c 17,40,41
 915.178 100 915.178 100 906.677 118 c 1,42,43
 848.458 50 848.458 50 771.655 15 c 0,44,45
 675.103 -29 675.103 -29 423.103 -29 c 0,46,47
 216.103 -29 216.103 -29 115.175 136 c 0,48,49
 14.0537 300 14.0537 300 64.3984 559 c 128,-1,50
 114.742 818 114.742 818 279.621 982 c 0,51,52
 444.693 1147 444.693 1147 651.693 1147 c 0,53,54
 767.693 1147 767.693 1147 847.558 1100 c 0,55,56
 928.616 1054 928.616 1054 983.567 956 c 1,57,-1
 1100.2 1556 l 1,58,-1
 1460.2 1556 l 1,59,-1
 1257.65 514 l 9,23,24
EndSplineSet
EndChar
StartChar: uni0224
Encoding: 548 548 548
Width: 1485
Flags: W
TeX: 117 0 0 0
Fore
1290.62 0 m 1,0,1
 1232.42 -268.006 1232.42 -268.006 1046.74 -376.549 c 0,2,3
 934.777 -442 934.777 -442 781.938 -442 c 2,4,-1
 500.938 -442 l 1,5,-1
 546.616 -207 l 1,6,-1
 712.616 -207 l 2,7,8
 814.616 -207 814.616 -207 861.558 -161 c 0,9,10
 904.93 -118.495 904.93 -118.495 930.633 -0 c 1,11,-1
 -10.1465 0 l 1,12,-1
 35.1436 233 l 1,13,-1
 1024.5 1202 l 1,14,-1
 246.498 1202 l 1,15,-1
 303.062 1493 l 1,16,-1
 1558.06 1493 l 1,17,-1
 1512.77 1260 l 1,18,-1
 523.418 291 l 1,19,-1
 1347.42 291 l 1,20,-1
 1290.62 0 l 1,0,1
EndSplineSet
EndChar
StartChar: uni0225
Encoding: 549 549 549
Width: 1192
Flags: W
TeX: 117 0 0 0
Fore
1027.88 0 m 1,0,1
 969.67 -268.007 969.67 -268.007 783.992 -376.549 c 0,2,3
 672.032 -442 672.032 -442 519.189 -442 c 2,4,-1
 238.189 -442 l 1,5,-1
 283.868 -207 l 1,6,-1
 449.868 -207 l 2,7,8
 551.868 -207 551.868 -207 598.81 -161 c 0,9,10
 642.185 -118.495 642.185 -118.495 667.886 0 c 1,11,-1
 26.1055 0 l 1,12,-1
 74.7002 250 l 1,13,-1
 784.05 864 l 1,14,-1
 219.05 864 l 1,15,-1
 268.811 1120 l 1,16,-1
 1245.81 1120 l 1,17,-1
 1197.22 870 l 1,18,-1
 487.866 256 l 1,19,-1
 1077.87 256 l 1,20,-1
 1027.88 0 l 1,0,1
EndSplineSet
EndChar
StartChar: uni0234
Encoding: 564 564 564
Width: 1007
Flags: W
TeX: 117 0 0 0
AnchorPoint: "above" 515.197 1520 basechar 0
AnchorPoint: "below" 219.739 0 basechar 0
Fore
549.447 230 m 0,0,0
 683.447 230 683.447 230 698.747 319 c 0,1,2
 703.606 344 703.606 344 676.606 344 c 0,0,0
 601.606 344 601.606 344 549.692 293 c 2,0,0
 503.557 246 l 1,1,2
 522.447 230 522.447 230 549.447 230 c 0,0,0
493.65 514 m 9,2,-1
 587.534 606 587.534 606 693.534 606 c 0,0,0
 780.534 606 780.534 606 822.203 558 c 0,0,0
 879.985 490 879.985 490 846.302 327 c 0,0,0
 815.007 166 815.007 166 731.901 78 c 0,0,0
 634.686 -26 634.686 -26 468.686 -26 c 0,0,0
 377.686 -26 377.686 -26 311.739 0 c 17,0,0
 261.355 -74 261.355 -74 215.805 -154 c 25,0,0
 65.7998 -82 l 17,0,0
 96.4912 -27 96.4912 -27 164.456 86 c 17,0,0
 74.2266 198 74.2266 198 144.398 559 c 18,3,-1
 338.195 1556 l 1,0,-1
 696.195 1556 l 1,1,-1
 493.65 514 l 9,2,-1
EndSplineSet
EndChar
StartChar: uni0235
Encoding: 565 565 565
Width: 1775
Flags: W
TeX: 117 0 0 0
Fore
1301.4 514 m 25,0,0
 1395.28 606 1395.28 606 1501.28 606 c 0,0,0
 1582.28 606 1582.28 606 1624.12 564 c 0,0,0
 1689.29 498 1689.29 498 1654.05 327 c 0,0,0
 1618.42 154 1618.42 154 1527.32 66 c 0,0,0
 1432.44 -26 1432.44 -26 1276.44 -26 c 0,0,0
 1185.44 -26 1185.44 -26 1119.49 0 c 17,0,0
 1069.11 -74 1069.11 -74 1023.56 -154 c 25,0,0
 873.551 -82 l 17,0,0
 904.242 -27 904.242 -27 972.207 86 c 17,0,0
 877.338 205 877.338 205 942.957 522 c 0,4,5
 971.004 656 971.004 656 975.833 722 c 0,6,7
 979.523 777 979.523 777 968.577 803 c 0,7,8
 954.381 838 954.381 838 922.269 858 c 128,-1,9
 889.962 877 889.962 877 843.962 877 c 0,10,11
 731.962 877 731.962 877 651.051 790 c 128,-1,12
 570.334 704 570.334 704 540.594 551 c 2,13,-1
 433.49 0 l 1,14,-1
 75.4902 0 l 1,15,-1
 293.196 1120 l 1,16,-1
 651.196 1120 l 1,17,-1
 619.317 956 l 1,18,19
 719.367 1054 719.367 1054 819.309 1100 c 128,-1,20
 919.444 1147 919.444 1147 1029.44 1147 c 0,21,22
 1223.44 1147 1223.44 1147 1301.31 1028 c 128,-1,23
 1378.18 909 1378.18 909 1334.06 682 c 10,0,-1
 1301.4 514 l 25,0,0
1357.2 230 m 0,0,0
 1491.98 234 1491.98 234 1506.5 319 c 0,1,2
 1510.36 344 1510.36 344 1484.36 344 c 0,0,0
 1409.75 346 1409.75 346 1357.44 293 c 2,0,0
 1311.31 246 l 1,1,2
 1330.2 230 1330.2 230 1357.2 230 c 0,0,0
EndSplineSet
EndChar
StartChar: uni0236
Encoding: 566 566 566
Width: 1048
Flags: W
TeX: 117 0 0 0
AnchorPoint: "above" 564.86 1520 basechar 0
AnchorPoint: "below" 269.402 0 basechar 0
Fore
587.054 240 m 0,0,0
 721.831 244 721.831 244 736.354 329 c 0,1,2
 740.213 354 740.213 354 714.213 354 c 0,0,0
 639.602 356 639.602 356 587.3 303 c 2,0,0
 541.164 256 l 1,1,2
 560.054 240 560.054 240 587.054 240 c 0,0,0
717.921 1438 m 1,0,-1
 656.108 1120 l 1,1,-1
 1025.11 1120 l 1,2,-1
 975.347 864 l 1,3,-1
 606.347 864 l 1,4,-1
 538.147 508 l 25,5,6
 639.808 604 639.808 604 745.808 604 c 0,0,0
 836.808 604 836.808 604 877.7 552 c 0,0,0
 931.288 483 931.288 483 898.576 325 c 128,-1,0
 865.863 167 865.863 167 786.953 80 c 0,0,0
 689.96 -28 689.96 -28 520.96 -28 c 0,0,0
 429.96 -28 429.96 -28 364.014 -2 c 17,0,0
 313.629 -76 313.629 -76 268.079 -156 c 25,0,0
 118.074 -84 l 17,0,0
 151.126 -22 151.126 -22 206.62 68 c 1,0,0
 195.369 77 195.369 77 186.508 88 c 16,0,0
 114.808 177 114.808 177 156.017 389 c 2,14,-1
 248.347 864 l 1,15,-1
 70.3467 864 l 1,16,-1
 120.108 1120 l 1,17,-1
 298.108 1120 l 1,18,-1
 359.921 1438 l 1,19,-1
 717.921 1438 l 1,0,-1
EndSplineSet
EndChar
StartChar: dotlessj
Encoding: 567 567 567
Width: 702
Flags: W
AnchorPoint: "below" 201.521 -430 basechar 0
AnchorPoint: "above" 491 1147 basechar 0
Fore
281 1120 m 1,0,-1
 641 1120 l 1,1,-1
 426 20 l 2,2,3
 380 -215 380 -215 254.5 -328.5 c 128,-1,4
 129 -442 129 -442 -84 -442 c 2,5,-1
 -262 -442 l 1,6,-1
 -217 -207 l 1,7,-1
 -154 -207 l 2,8,9
 -53 -207 -53 -207 -6.5 -161.5 c 128,-1,10
 40 -116 40 -116 66 20 c 1,11,-1
 281 1120 l 1,0,-1
EndSplineSet
EndChar
StartChar: uni0238
Encoding: 568 568 568
Width: 2228
Flags: W
TeX: 117 0 0 0
Fore
594.492 231 m 0,0,1
 709.492 231 709.492 231 786.32 315 c 0,2,3
 863.148 399 863.148 399 894.249 559 c 0,4,5
 925.35 719 925.35 719 881.178 803 c 0,6,7
 837.006 887 837.006 887 722.006 887 c 0,8,9
 608.006 887 608.006 887 531.178 803 c 0,10,11
 454.35 719 454.35 719 423.249 559 c 0,12,13
 392.148 399 392.148 399 436.32 315 c 0,14,15
 480.492 231 480.492 231 594.492 231 c 0,0,1
1426.49 231 m 0,16,17
 1541.49 231 1541.49 231 1618.32 315 c 0,18,19
 1695.15 399 1695.15 399 1726.25 559 c 0,20,21
 1757.35 719 1757.35 719 1713.18 803 c 0,22,23
 1669.01 887 1669.01 887 1554.01 887 c 0,24,25
 1439.01 887 1439.01 887 1361.08 802.5 c 0,26,27
 1297.21 733.239 1297.21 733.239 1264.92 613.923 c 2,28,-1
 1243.57 504.077 l 2,29,30
 1229.47 384.762 1229.47 384.762 1266.42 315.5 c 0,31,32
 1311.49 231 1311.49 231 1426.49 231 c 0,16,17
1446.05 1556 m 1,33,-1
 1448.05 1556 l 1,34,-1
 1331.93 958.635 l 1,35,36
 1423.8 1054.63 1423.8 1054.63 1521.51 1100.5 c 0,37,38
 1620.54 1147 1620.54 1147 1737.54 1147 c 0,39,40
 1944.54 1147 1944.54 1147 2045.57 982.5 c 0,41,42
 2146.59 818 2146.59 818 2096.25 559 c 0,43,44
 2045.9 300 2045.9 300 1880.93 135.5 c 0,45,46
 1715.95 -29.001 1715.95 -29.001 1508.95 -29 c 0,47,48
 1391.95 -29 1391.95 -29 1310.99 17.5 c 0,49,50
 1231.12 63.373 1231.12 63.373 1176.57 159.365 c 1,51,-1
 1145.59 0 l 1,52,-1
 1143.59 0 l 1,53,-1
 785.591 0 l 1,54,-1
 817.08 162 l 1,55,56
 723.837 63 723.837 63 625.896 17 c 0,57,58
 527.953 -29 527.953 -29 410.953 -29 c 0,59,60
 203.953 -29 203.953 -29 102.929 135.5 c 0,61,62
 1.9043 300 1.9043 300 52.249 559 c 0,63,64
 102.594 818 102.594 818 267.569 982.5 c 0,65,66
 432.545 1147 432.545 1147 639.545 1147 c 0,67,68
 755.545 1147 755.545 1147 836.006 1100.5 c 0,69,70
 916.468 1054 916.468 1054 971.418 956 c 1,71,-1
 1088.05 1556 l 1,72,-1
 1446.05 1556 l 1,33,-1
EndSplineSet
EndChar
StartChar: uni0239
Encoding: 569 569 569
Width: 2228
Flags: W
TeX: 117 0 0 0
Fore
800.341 887 m 0,0,1
 686.341 887 686.341 887 609.514 803 c 0,2,3
 532.686 719 532.686 719 501.585 559 c 0,4,5
 470.483 399 470.483 399 514.655 315 c 0,6,7
 558.828 231 558.828 231 672.828 231 c 0,8,9
 787.828 231 787.828 231 864.655 315 c 0,10,11
 941.483 399 941.483 399 972.585 559 c 0,12,13
 1003.69 719 1003.69 719 959.514 803 c 0,14,15
 915.341 887 915.341 887 800.341 887 c 0,0,1
1632.34 887 m 0,16,17
 1517.34 887 1517.34 887 1439.42 802.5 c 0,18,19
 1375.54 733.239 1375.54 733.239 1343.26 613.923 c 2,20,-1
 1321.91 504.077 l 2,21,22
 1307.81 384.762 1307.81 384.762 1344.75 315.5 c 0,23,24
 1389.83 231 1389.83 231 1504.83 231 c 0,25,26
 1619.83 231 1619.83 231 1696.66 315 c 0,27,28
 1773.48 399 1773.48 399 1804.58 559 c 0,29,30
 1835.69 719 1835.69 719 1791.51 803 c 0,31,32
 1747.34 887 1747.34 887 1632.34 887 c 0,16,17
1254.9 159.365 m 1,33,-1
 1141.12 -426 l 1,34,-1
 1139.12 -426 l 1,35,-1
 781.12 -426 l 1,36,-1
 895.415 162 l 1,37,38
 802.172 63 802.172 63 704.23 17 c 0,39,40
 606.289 -29 606.289 -29 489.289 -29 c 0,41,42
 282.289 -29 282.289 -29 181.265 135.5 c 0,43,44
 80.2402 300 80.2402 300 130.585 559 c 0,45,46
 180.929 818 180.929 818 345.71 981.5 c 0,47,48
 510.491 1145 510.491 1145 717.491 1145 c 0,49,50
 834.491 1145 834.491 1145 914.55 1099 c 0,51,52
 994.608 1053 994.608 1053 1049.36 954 c 1,53,-1
 1081.63 1120 l 1,54,-1
 1439.63 1120 l 1,55,-1
 1441.63 1120 l 1,56,-1
 1410.27 958.635 l 1,57,58
 1502.13 1054.63 1502.13 1054.63 1599.84 1100.5 c 0,59,60
 1698.88 1147 1698.88 1147 1815.88 1147 c 0,61,62
 2022.88 1147 2022.88 1147 2123.9 982.5 c 0,63,64
 2224.93 818 2224.93 818 2174.58 559 c 0,65,66
 2124.24 300 2124.24 300 1959.26 135.5 c 0,67,68
 1794.29 -29.001 1794.29 -29.001 1587.29 -29 c 0,69,70
 1470.29 -29 1470.29 -29 1389.33 17.5 c 0,71,72
 1309.45 63.373 1309.45 63.373 1254.9 159.365 c 1,33,-1
EndSplineSet
EndChar
StartChar: uni023A
Encoding: 570 570 570
Width: 1585
Flags: W
TeX: 117 0 0 0
Fore
1001.77 272 m 1,0,-1
 399.767 272 l 1,1,-1
 251.896 0 l 1,2,-1
 13.9922 -0 l 1,3,-1
 -74.4893 -74 l 1,4,-1
 -134.104 0 l 1,5,-1
 -135.104 0 l 1,6,-1
 -134.692 0.729492 l 1,7,-1
 -165.524 39 l 1,8,-1
 -66.0332 122.299 l 1,9,-1
 708.104 1493 l 1,10,-1
 1167.1 1493 l 1,11,-1
 1218.99 1198.19 l 1,12,-1
 1659.49 1567 l 1,13,-1
 1750.14 1452 l 1,14,-1
 1248.21 1032.22 l 1,15,-1
 1429.9 0 l 1,16,-1
 1042.9 0 l 1,17,-1
 1001.77 272 l 1,0,-1
636.934 710.861 m 1,18,-1
 901.471 932.346 l 1,19,-1
 870.072 1143 l 1,20,-1
 636.934 710.861 l 1,18,-1
670.427 549 m 1,21,-1
 958.61 549 l 1,22,-1
 926.667 763.303 l 1,23,-1
 670.427 549 l 1,21,-1
EndSplineSet
EndChar
StartChar: uni023B
Encoding: 571 571 571
Width: 1503
Flags: W
TeX: 117 0 0 0
Fore
-115.489 -74 m 1,0,-1
 -206.524 39 l 1,1,-1
 125.813 317.251 l 1,2,3
 53.0352 494.596 53.0352 494.596 101.708 745 c 0,4,5
 171.297 1103 171.297 1103 429.825 1311.5 c 0,6,7
 688.354 1520 688.354 1520 1061.35 1520 c 0,8,9
 1186.35 1520 1186.35 1520 1295.91 1492 c 0,10,11
 1381 1470.25 1381 1470.25 1457.51 1432.22 c 1,12,-1
 1618.49 1567 l 1,13,-1
 1709.14 1452 l 1,14,-1
 1470.31 1252.26 l 1,15,-1
 1440.71 1100 l 1,16,17
 1399.27 1132.6 1399.27 1132.6 1356.91 1157.42 c 1,18,-1
 511.116 450.053 l 1,19,20
 525.286 413.252 525.286 413.252 547.148 382 c 0,21,22
 639.49 250 639.49 250 845.49 250 c 0,23,24
 960.49 250 960.49 250 1071.1 284 c 0,25,26
 1181.71 318 1181.71 318 1302.9 391 c 1,27,-1
 1242.83 82 l 1,28,29
 1126.14 27 1126.14 27 1005.7 -1 c 0,30,31
 885.258 -29 885.258 -29 760.258 -29 c 0,32,33
 387.258 -29 387.258 -29 209.786 179.5 c 2,34,-1
 200.716 190.454 l 1,35,-1
 -115.489 -74 l 1,0,-1
485.179 618.131 m 1,36,-1
 1204.98 1220.79 l 1,37,38
 1126.78 1241 1126.78 1241 1038.12 1241 c 0,39,40
 832.121 1241 832.121 1241 688.463 1109 c 0,41,42
 544.805 977 544.805 977 499.708 745 c 0,43,44
 486.552 677.316 486.552 677.316 485.179 618.131 c 1,36,-1
EndSplineSet
EndChar
StartChar: uni023C
Encoding: 572 572 572
Width: 1214
Flags: W
TeX: 117 0 0 0
Fore
-29.916 -94 m 1,0,-1
 -123.645 0 l 1,1,-1
 115.828 212.641 l 1,2,3
 47.2471 351.844 47.2471 351.844 87.5137 559 c 0,4,5
 141.357 836 141.357 836 342.584 991.5 c 0,6,7
 543.81 1147 543.81 1147 846.81 1147 c 0,8,9
 934.81 1147 934.81 1147 1017.3 1131.5 c 0,10,11
 1069.97 1121.6 1069.97 1121.6 1121.22 1105.38 c 1,12,-1
 1246.92 1217 l 1,13,-1
 1336.28 1116 l 1,14,-1
 1153.28 953.918 l 1,15,-1
 1122 793 l 1,16,17
 1079.4 826.657 1079.4 826.657 1034.29 848.533 c 1,18,-1
 473.831 352.153 l 1,19,20
 483.231 331.945 483.231 331.945 496.488 314.5 c 0,21,22
 562.979 227 562.979 227 712.979 227 c 0,23,24
 796.979 227 796.979 227 877.339 252 c 0,25,26
 957.699 277 957.699 277 1031.22 326 c 1,27,-1
 974.27 33 l 1,28,29
 884.244 2 884.244 2 794.731 -13.5 c 0,30,31
 705.219 -29 705.219 -29 618.219 -29 c 0,32,33
 336.611 -29 336.611 -29 195.131 105.318 c 1,34,-1
 -29.916 -94 l 1,0,-1
453.428 512.416 m 1,35,-1
 878.314 889.697 l 1,36,37
 860.457 891 860.457 891 842.048 891 c 0,38,39
 692.048 891 692.048 891 591.54 803.5 c 0,40,41
 491.032 716 491.032 716 460.514 559 c 0,42,43
 455.827 534.889 455.827 534.889 453.428 512.416 c 1,35,-1
EndSplineSet
EndChar
StartChar: uni023D
Encoding: 573 573 573
Width: 1305
Flags: W
TeX: 117 0 0 0
Fore
333.104 1493 m 1,0,-1
 718.104 1493 l 1,1,-1
 599.145 881 l 1,2,-1
 800.334 881 l 1,3,-1
 749.795 621 l 1,4,-1
 548.605 621 l 1,5,-1
 484.46 291 l 1,6,-1
 1160.46 291 l 1,7,-1
 1103.9 0 l 1,8,-1
 42.8955 0 l 1,9,-1
 163.605 621 l 1,10,-1
 -27.2041 621 l 1,11,-1
 23.335 881 l 1,12,-1
 214.145 881 l 1,13,-1
 333.104 1493 l 1,0,-1
EndSplineSet
EndChar
StartChar: uni023E
Encoding: 574 574 574
Width: 1397
Flags: W
TeX: 117 0 0 0
Fore
121.51 1320.17 m 1,0,-1
 15.1357 1452 l 1,1,-1
 150.489 1567 l 1,2,-1
 210.104 1493 l 1,3,-1
 1531.1 1493 l 1,4,-1
 1474.54 1202 l 1,5,-1
 979.54 1202 l 1,6,-1
 875.547 667 l 1,7,-1
 1381.48 39 l 1,8,-1
 1246.51 -74 l 1,9,-1
 831.485 440.326 l 1,10,-1
 745.896 0 l 1,11,-1
 360.896 0 l 1,12,-1
 521.225 824.822 l 1,13,-1
 216.868 1202 l 1,14,-1
 98.54 1202 l 1,15,-1
 121.51 1320.17 l 1,0,-1
565.383 1052 m 1,16,-1
 594.54 1202 l 1,17,-1
 444.54 1202 l 1,18,-1
 565.383 1052 l 1,16,-1
EndSplineSet
EndChar
StartChar: uni023F
Encoding: 575 575 575
Width: 1219
Flags: W
TeX: 117 0 0 0
Fore
1194.24 1085 m 1,0,-1
 1141.37 813 l 1,1,2
 1035.7 861 1035.7 861 933.367 885 c 0,3,4
 831.032 909 831.032 909 736.032 909 c 0,5,6
 634.032 909 634.032 909 579.575 883.5 c 0,7,8
 525.119 858 525.119 858 514.816 805 c 0,9,10
 506.458 762 506.458 762 539.487 739 c 0,11,12
 572.517 716 572.517 716 667.379 705 c 2,13,-1
 728.629 696 l 2,14,15
 996.826 661 996.826 661 1076.28 581 c 0,16,17
 1155.72 501 1155.72 501 1122.49 330 c 0,18,19
 1087.69 151 1087.69 151 938.197 61 c 0,20,21
 799.316 -22.6104 799.316 -22.6104 563.338 -28.5469 c 1,22,-1
 734.914 -186.236 l 2,23,24
 811.91 -257 811.91 -257 890.385 -257 c 2,25,-1
 1105.38 -257 l 1,26,-1
 1059.71 -492 l 1,27,-1
 852.705 -492 l 2,28,29
 685.438 -492 685.438 -492 554.388 -371.556 c 2,30,-1
 359.02 -192 l 2,31,32
 134.421 14.4209 134.421 14.4209 77.3213 38.0654 c 2,33,-1
 67.3096 41 l 1,34,-1
 120.182 313 l 1,35,36
 217.073 261 217.073 261 324.52 235 c 0,37,38
 431.966 209 431.966 209 547.966 209 c 0,39,40
 652.966 209 652.966 209 711.603 238 c 0,41,42
 770.24 267 770.24 267 781.319 324 c 0,43,44
 790.65 372 790.65 372 758.718 395.5 c 0,45,46
 728.21 417.952 728.21 417.952 620.312 432 c 2,47,-1
 558.868 440 l 2,48,49
 325.292 470.411 325.292 470.411 245.444 551 c 0,50,51
 165.188 632 165.188 632 197.262 797 c 0,52,53
 231.861 975 231.861 975 370.578 1061 c 0,54,55
 509.295 1147 509.295 1147 761.295 1147 c 0,56,57
 860.295 1147 860.295 1147 966.379 1132 c 0,58,59
 1072.46 1117 1072.46 1117 1194.24 1085 c 1,0,-1
EndSplineSet
EndChar
StartChar: uni0240
Encoding: 576 576 576
Width: 1192
Flags: W
TeX: 117 0 0 0
Fore
273.671 1120 m 1,0,-1
 1250.67 1120 l 1,1,-1
 1202.08 870 l 1,2,-1
 355.015 141.155 l 1,3,4
 444.955 82.667 444.955 82.667 542.171 -6.68066 c 2,5,-1
 737.538 -186.236 l 2,6,7
 814.534 -257 814.534 -257 893.009 -257 c 2,8,-1
 1108.01 -257 l 1,9,-1
 1062.33 -492 l 1,10,-1
 855.329 -492 l 2,11,12
 688.062 -492 688.062 -492 557.012 -371.556 c 2,13,-1
 361.644 -192 l 2,14,15
 170.952 -16.7422 170.952 -16.7422 30.9648 0 c 1,16,-1
 79.5596 250 l 1,17,-1
 788.909 864 l 1,18,-1
 223.909 864 l 1,19,-1
 273.671 1120 l 1,0,-1
EndSplineSet
EndChar
StartChar: uni0241
Encoding: 577 577 577
Width: 1601
Flags: W
TeX: 117 0 0 0
Fore
599.873 1214 m 1,0,-1
 522.218 1214 522.218 1214 520.505 1213.45 c 2,13,14
 477.378 1213.15 477.378 1213.15 456.791 1193 c 0,15,16
 419.056 1156.06 419.056 1156.06 407.209 1108.9 c 0,17,18
 403.821 1095.41 403.821 1095.41 397.327 1062 c 1,19,-1
 142.327 1062 l 1,20,-1
 157.294 1139 l 2,21,22
 187.423 1294 187.423 1294 248.238 1359.26 c 0,23,24
 270.808 1383.48 270.808 1383.48 309.263 1411.5 c 0,25,26
 396.29 1474.91 396.29 1474.91 537.648 1488.18 c 0,27,28
 588.982 1493 588.982 1493 654.104 1493 c 2,29,-1
 1072.1 1493 l 2,30,31
 1357.1 1493 1357.1 1493 1485.02 1366.5 c 0,32,33
 1612.93 1240 1612.93 1240 1567.44 1006 c 0,34,35
 1521.76 771 1521.76 771 1344.67 644.5 c 0,36,37
 1167.58 518 1167.58 518 882.584 518 c 2,38,-1
 849.584 518 l 1,39,-1
 748.896 0 l 1,40,-1
 363.896 0 l 1,41,-1
 518.816 797 l 1,1,-1
 895.816 797 l 2,2,3
 1007.82 797 1007.82 797 1079.41 851.5 c 0,4,5
 1151 906 1151 906 1170.44 1006 c 0,6,7
 1189.88 1106 1189.88 1106 1139.38 1160 c 0,8,9
 1088.87 1214 1088.87 1214 976.873 1214 c 2,10,-1
 599.873 1214 l 1,0,-1
EndSplineSet
EndChar
StartChar: uni0250
Encoding: 592 592 592
Width: 1382
Flags: W
AnchorPoint: "above" 812.296 1147 basechar 0
AnchorPoint: "below" 589.342 0 basechar 0
Fore
645.691 614 m 2,0,1
 757.691 614 757.691 614 821.577 652 c 0,2,3
 885.464 690 885.464 690 899.848 764 c 0,4,5
 913.065 832 913.065 832 875.05 870.5 c 0,6,7
 837.033 909 837.033 909 756.033 909 c 0,8,9
 655.033 909 655.033 909 571.94 836.5 c 0,10,11
 488.848 764 488.848 764 467.66 655 c 2,12,-1
 459.691 614 l 1,13,-1
 645.691 614 l 2,0,1
72.4492 479 m 2,14,-1
 196.658 1118 l 1,15,-1
 557.658 1118 l 1,16,-1
 525.392 952 l 1,17,18
 617.218 1054 617.218 1054 716.257 1100.5 c 128,-1,19
 815.296 1147 815.296 1147 944.296 1147 c 0,20,21
 1118.3 1147 1118.3 1147 1207.07 1045.5 c 0,22,23
 1295.84 944 1295.84 944 1264.35 782 c 0,24,25
 1226.05 585 1226.05 585 1072.67 493 c 0,26,27
 919.288 401 919.288 401 629.288 401 c 2,28,-1
 418.288 401 l 1,29,-1
 412.846 373 l 2,30,31
 396.323 288 396.323 288 455.645 248.5 c 128,-1,32
 514.967 209 514.967 209 656.967 209 c 0,33,34
 771.967 209 771.967 209 875.438 232 c 0,35,36
 978.908 255 978.908 255 1072.85 301 c 1,37,-1
 1019.78 28 l 1,38,39
 899.342 0 899.342 0 780.522 -14.5 c 0,40,41
 661.704 -29 661.704 -29 545.704 -29 c 0,42,43
 242.704 -29 242.704 -29 131.433 90.5 c 0,44,45
 20.1611 210 20.1611 210 72.4492 479 c 2,14,-1
EndSplineSet
EndChar
StartChar: uni0251
Encoding: 593 593 593
Width: 1466
Flags: W
TeX: 0 0 0 0
AnchorPoint: "below" 589.342 0 basechar 0
AnchorPoint: "above" 784 1147 basechar 0
Fore
1011.17 956 m 1,0,-1
 1043.05 1120 l 1,1,-1
 1403.05 1120 l 1,2,-1
 1185.34 0 l 1,3,-1
 825.342 0 l 1,4,-1
 856.831 162 l 1,5,6
 763.587 63 763.587 63 665.646 17 c 0,7,8
 567.704 -29 567.704 -29 450.704 -29 c 0,9,10
 243.704 -29 243.704 -29 142.68 135.5 c 0,11,12
 41.6553 300 41.6553 300 92 559 c 0,13,14
 142.345 818 142.345 818 307.32 982.5 c 0,15,16
 472.296 1147 472.296 1147 679.296 1147 c 0,17,18
 795.296 1147 795.296 1147 875.757 1100.5 c 128,-1,19
 956.218 1054 956.218 1054 1011.17 956 c 1,0,-1
634.243 231 m 0,20,21
 749.243 231 749.243 231 826.071 315 c 128,-1,22
 902.899 399 902.899 399 934 559 c 128,-1,23
 965.101 719 965.101 719 920.929 803 c 128,-1,24
 876.757 887 876.757 887 761.757 887 c 0,25,26
 647.757 887 647.757 887 570.929 803 c 128,-1,27
 494.101 719 494.101 719 463 559 c 128,-1,28
 431.899 399 431.899 399 476.071 315 c 0,29,30
 520.243 231 520.243 231 634.243 231 c 0,20,21
EndSplineSet
EndChar
StartChar: uni0252
Encoding: 594 594 594
Width: 1466
Flags: W
TeX: 0 0 0 0
AnchorPoint: "below" 589.342 0 basechar 0
AnchorPoint: "above" 784 1147 basechar 0
Fore
374.831 162 m 1,0,-1
 342.953 -2 l 1,1,-1
 -17.0469 -2 l 1,2,-1
 200.658 1118 l 1,3,-1
 560.658 1118 l 1,4,-1
 529.169 956 l 1,5,6
 622.413 1055 622.413 1055 720.354 1101 c 0,7,8
 818.296 1147 818.296 1147 935.296 1147 c 0,9,10
 1142.3 1147 1142.3 1147 1243.32 982.5 c 0,11,12
 1344.34 818 1344.34 818 1294 559 c 128,-1,13
 1243.66 300 1243.66 300 1078.68 135.5 c 0,14,15
 913.704 -29 913.704 -29 706.704 -29 c 0,16,17
 590.704 -29 590.704 -29 510.243 17.5 c 0,18,19
 429.782 64 429.782 64 374.831 162 c 1,0,-1
751.757 887 m 0,20,21
 636.757 887 636.757 887 559.929 803 c 128,-1,22
 483.101 719 483.101 719 452 559 c 128,-1,23
 420.899 399 420.899 399 465.071 315 c 0,24,25
 509.243 231 509.243 231 624.243 231 c 0,26,27
 738.243 231 738.243 231 815.071 315 c 128,-1,28
 891.899 399 891.899 399 923 559 c 128,-1,29
 954.101 719 954.101 719 909.929 803 c 128,-1,30
 865.757 887 865.757 887 751.757 887 c 0,20,21
EndSplineSet
EndChar
StartChar: uni0253
Encoding: 595 595 595
Width: 1466
Flags: W
TeX: 0 0 0 0
AnchorPoint: "above" 503.049 1520 basechar 0
AnchorPoint: "below" 549.591 0 basechar 0
Fore
664.492 231 m 0,0,1
 779.492 231 779.492 231 856.32 315 c 0,2,3
 933.148 399 933.148 399 964.249 559 c 0,4,5
 995.35 719 995.35 719 951.178 803 c 0,6,7
 907.006 887 907.006 887 792.006 887 c 0,8,9
 677.006 887 677.006 887 599.081 802.5 c 0,10,11
 521.155 718 521.155 718 490.249 559 c 0,12,13
 459.343 400 459.343 400 504.418 315.5 c 0,14,15
 549.492 231 549.492 231 664.492 231 c 0,0,1
569.931 958.635 m 1,16,17
 661.804 1054.63 661.804 1054.63 759.506 1100.5 c 0,18,19
 858.545 1147 858.545 1147 975.545 1147 c 0,20,21
 1182.54 1147 1182.54 1147 1283.57 982.5 c 0,22,23
 1384.59 818 1384.59 818 1334.25 559 c 0,24,25
 1283.9 300 1283.9 300 1118.93 135.5 c 0,26,27
 953.953 -29 953.953 -29 746.953 -29 c 0,28,29
 629.953 -29 629.953 -29 548.992 17.5 c 0,30,31
 468.031 64 468.031 64 413.08 162 c 1,32,-1
 381.591 0 l 1,33,-1
 23.5908 0 l 1,34,-1
 236.243 1094 l 2,35,36
 279.59 1317 279.59 1317 413.109 1438 c 0,37,38
 544.047 1556 544.047 1556 749.047 1556 c 2,39,-1
 1030.05 1556 l 1,40,-1
 984.367 1321 l 1,41,-1
 818.367 1321 l 2,42,43
 716.367 1321 716.367 1321 669.426 1275 c 0,44,45
 622.484 1229 622.484 1229 596.243 1094 c 2,46,-1
 569.931 958.635 l 1,16,17
EndSplineSet
EndChar
StartChar: uni0254
Encoding: 596 596 596
Width: 1214
Flags: W
AnchorPoint: "below" 332.342 0 basechar 0
AnchorPoint: "above" 633 1147 basechar 0
Fore
190.244 1085 m 1,0,-1
 281.27 1116 281.27 1116 369.783 1131.5 c 128,-1,29
 458.296 1147 458.296 1147 546.296 1147 c 0,27,28
 849.296 1147 849.296 1147 990.069 991.5 c 0,25,26
 1130.84 836 1130.84 836 1077 559 c 0,23,24
 1023.16 282 1023.16 282 821.931 126.5 c 0,21,22
 620.704 -29 620.704 -29 317.704 -29 c 0,19,20
 230.704 -29 230.704 -29 147.217 -13.5 c 0,17,18
 63.7305 2 63.7305 2 -14.2441 33 c 1,15,16
 42.709 326 l 1,14,-1
 97.1846 277 97.1846 277 167.825 252 c 0,12,13
 238.466 227 238.466 227 322.466 227 c 0,10,11
 472.466 227 472.466 227 572.974 314.5 c 128,-1,9
 673.482 402 673.482 402 704 559 c 128,-1,8
 734.518 716 734.518 716 668.026 803.5 c 128,-1,7
 601.534 891 601.534 891 451.534 891 c 0,5,6
 372.534 891 372.534 891 294.369 867 c 0,3,4
 216.204 843 216.204 843 133.485 793 c 1,1,2
 190.244 1085 l 1,0,-1
EndSplineSet
EndChar
StartChar: uni0255
Encoding: 597 597 597
Width: 1214
Flags: W
TeX: 0 0 0 0
AnchorPoint: "below" 635.227 0 basechar 0
AnchorPoint: "above" 821 1147 basechar 0
Fore
608.323 232 m 1,0,1
 660.658 208 660.658 208 714.464 207 c 2,2,-1
 719.464 207 l 2,3,4
 866.464 207 866.464 207 876.543 264 c 0,5,6
 890.122 339 890.122 339 759.122 339 c 0,7,8
 676.122 339 676.122 339 608.323 232 c 1,0,1
1190.13 1085 m 1,9,-1
 1133.37 793 l 1,10,11
 1070.09 843 1070.09 843 1000.75 867 c 0,12,13
 932.42 891 932.42 891 853.42 891 c 0,14,15
 703.42 891 703.42 891 602.509 804 c 0,16,17
 502.403 716 502.403 716 471.886 559 c 0,18,19
 447.977 436 447.977 436 483.426 356 c 1,20,21
 619.637 532 619.637 532 786.637 532 c 0,22,23
 1071.67 527 1071.67 527 1029.38 294 c 0,24,25
 971.59 -29 971.59 -29 656.59 -29 c 2,26,-1
 633.59 -29 l 2,27,28
 629.59 -29 l 0,29,30
 625.59 -29 625.59 -29 622.59 -29 c 0,31,32
 553.59 -29 553.59 -29 550.784 -28 c 0,33,34
 547.784 -28 547.784 -28 544.979 -27 c 1,35,-1
 522.819 -141 l 1,36,-1
 323.014 -140 l 1,37,38
 339.925 -53 339.925 -53 354.143 15 c 1,39,40
 251.529 53 251.529 53 185.719 126 c 0,41,42
 45.042 282 45.042 282 98.8857 559 c 0,43,44
 152.729 836 152.729 836 354.052 992 c 0,45,46
 555.181 1147 555.181 1147 858.181 1147 c 0,47,48
 946.181 1147 946.181 1147 1028.27 1132 c 0,49,50
 1111.16 1116 1111.16 1116 1190.13 1085 c 1,9,-1
EndSplineSet
EndChar
StartChar: uni0256
Encoding: 598 598 598
Width: 1620
Flags: W
TeX: 0 0 0 0
AnchorPoint: "below" 537.146 -430 basechar 0
AnchorPoint: "above" 1301.19 1520 basechar 0
Fore
634.632 231 m 0,0,1
 749.632 231 749.632 231 826.46 315 c 0,2,3
 903.288 399 903.288 399 934.389 559 c 0,4,5
 965.489 719 965.489 719 921.317 803 c 0,6,7
 877.146 887 877.146 887 762.146 887 c 0,8,9
 648.146 887 648.146 887 571.317 803 c 0,10,11
 494.489 719 494.489 719 463.389 559 c 0,12,13
 432.288 399 432.288 399 476.46 315 c 0,14,15
 520.632 231 520.632 231 634.632 231 c 0,0,1
1162.81 -442 m 2,16,17
 857.184 -442 857.184 -442 820.099 -187.062 c 0,18,19
 808.061 -104.313 808.061 -104.313 825.956 -0 c 1,20,-1
 857.22 162 l 1,21,22
 763.977 63 763.977 63 666.034 17 c 0,23,24
 568.093 -29 568.093 -29 451.093 -29 c 0,25,26
 244.093 -29 244.093 -29 143.068 135.5 c 0,27,28
 42.0439 300 42.0439 300 92.3887 559 c 0,29,30
 142.733 818 142.733 818 307.709 982.5 c 0,31,32
 472.685 1147 472.685 1147 679.685 1147 c 0,33,34
 795.685 1147 795.685 1147 876.146 1100.5 c 0,35,36
 956.607 1054 956.607 1054 1011.56 956 c 1,37,-1
 1128.19 1556 l 1,38,-1
 1488.19 1556 l 1,39,-1
 1189.62 20 l 2,40,41
 1163.38 -114.999 1163.38 -114.999 1192.43 -161 c 0,42,43
 1221.49 -207 1221.49 -207 1323.49 -207 c 2,44,-1
 1489.49 -207 l 1,45,-1
 1443.81 -442 l 1,46,-1
 1162.81 -442 l 2,16,17
EndSplineSet
EndChar
